<?xml version="1.0" encoding="utf-8" standalone="no"?>
<!DOCTYPE svg PUBLIC "-//W3C//DTD SVG 1.1//EN"
  "http://www.w3.org/Graphics/SVG/1.1/DTD/svg11.dtd">
<!-- Created with matplotlib (https://matplotlib.org/) -->
<svg height="375.925258pt" version="1.1" viewBox="0 0 473.018455 375.925258" width="473.018455pt" xmlns="http://www.w3.org/2000/svg" xmlns:xlink="http://www.w3.org/1999/xlink">
 <metadata>
  <rdf:RDF xmlns:cc="http://creativecommons.org/ns#" xmlns:dc="http://purl.org/dc/elements/1.1/" xmlns:rdf="http://www.w3.org/1999/02/22-rdf-syntax-ns#">
   <cc:Work>
    <dc:type rdf:resource="http://purl.org/dc/dcmitype/StillImage"/>
    <dc:date>2021-01-26T03:13:41.109380</dc:date>
    <dc:format>image/svg+xml</dc:format>
    <dc:creator>
     <cc:Agent>
      <dc:title>Matplotlib v3.3.3, https://matplotlib.org/</dc:title>
     </cc:Agent>
    </dc:creator>
   </cc:Work>
  </rdf:RDF>
 </metadata>
 <defs>
  <style type="text/css">*{stroke-linecap:butt;stroke-linejoin:round;}</style>
 </defs>
 <g id="figure_1">
  <g id="patch_1">
   <path d="M 0 375.925258 
L 473.018455 375.925258 
L 473.018455 -0 
L 0 -0 
z
" style="fill:#ffffff;"/>
  </g>
  <g id="axes_1">
   <g id="patch_2">
    <path d="M 46.976583 340.130802 
L 356.375542 340.130802 
L 356.375542 19.841765 
L 46.976583 19.841765 
z
" style="fill:#ffffff;"/>
   </g>
   <g id="matplotlib.axis_1">
    <g id="xtick_1">
     <g id="line2d_1">
      <path clip-path="url(#p8be0796206)" d="M 82.553744 340.130802 
L 82.553744 19.841765 
" style="fill:none;stroke:#cccccc;stroke-linecap:round;stroke-width:0.8;"/>
     </g>
     <g id="text_1">
      <!-- $\mathdefault{16}$ -->
      <g style="fill:#262626;" transform="translate(77.896146 354.519085)scale(0.088 -0.088)">
       <defs>
        <path d="M 26.59375 63.40625 
C 26.59375 65.5 26.5 65.5 25.09375 65.5 
C 21.203125 61.1875 15.296875 59.796875 9.703125 59.796875 
C 9.40625 59.796875 8.90625 59.796875 8.796875 59.5 
C 8.703125 59.296875 8.703125 59.09375 8.703125 57 
C 11.796875 57 17 57.59375 21 59.984375 
L 21 7.203125 
C 21 3.6875 20.796875 2.5 12.203125 2.5 
L 9.203125 2.5 
L 9.203125 0 
C 14 0 19 0 23.796875 0 
C 28.59375 0 33.59375 0 38.40625 0 
L 38.40625 2.5 
L 35.40625 2.5 
C 26.796875 2.5 26.59375 3.59375 26.59375 7.15625 
z
" id="CMR17-49"/>
        <path d="M 10.59375 34 
C 10.59375 57.65625 21.796875 63 28.296875 63 
C 30.40625 63 35.5 62.640625 37.5 59 
C 35.90625 59 32.90625 59 32.90625 55.515625 
C 32.90625 52.828125 35.09375 51.921875 36.5 51.921875 
C 37.40625 51.921875 40.09375 52.3125 40.09375 55.625 
C 40.09375 61.78125 35.09375 65.296875 28.203125 65.296875 
C 16.296875 65.296875 3.796875 52.96875 3.796875 31 
C 3.796875 3.953125 15.09375 -2 23.09375 -2 
C 32.796875 -2 42 6.671875 42 20.046875 
C 42 32.515625 33.90625 41.59375 23.703125 41.59375 
C 17.59375 41.59375 13.09375 37.609375 10.59375 30.625 
z
M 23.09375 0.390625 
C 10.796875 0.390625 10.796875 18.75 10.796875 22.4375 
C 10.796875 29.625 14.203125 40 23.5 40 
C 25.203125 40 30.09375 40 33.40625 33.125 
C 35.203125 29.21875 35.203125 25.140625 35.203125 20.140625 
C 35.203125 14.75 35.203125 10.78125 33.09375 6.78125 
C 30.90625 2.671875 27.703125 0.390625 23.09375 0.390625 
z
" id="CMR17-54"/>
       </defs>
       <use transform="scale(0.996264)" xlink:href="#CMR17-49"/>
       <use transform="translate(45.690477 0)scale(0.996264)" xlink:href="#CMR17-54"/>
      </g>
     </g>
    </g>
    <g id="xtick_2">
     <g id="line2d_2">
      <path clip-path="url(#p8be0796206)" d="M 134.388992 340.130802 
L 134.388992 19.841765 
" style="fill:none;stroke:#cccccc;stroke-linecap:round;stroke-width:0.8;"/>
     </g>
     <g id="text_2">
      <!-- $\mathdefault{32}$ -->
      <g style="fill:#262626;" transform="translate(129.731394 354.519085)scale(0.088 -0.088)">
       <defs>
        <path d="M 22.09375 33.703125 
C 31 33.703125 34.90625 25.96875 34.90625 17.03125 
C 34.90625 5 28.5 0.390625 22.703125 0.390625 
C 17.40625 0.390625 8.796875 3.03125 6.09375 10.828125 
C 6.59375 10.625 7.09375 10.625 7.59375 10.625 
C 10 10.625 11.796875 12.21875 11.796875 14.8125 
C 11.796875 17.703125 9.59375 19 7.59375 19 
C 5.90625 19 3.296875 18.203125 3.296875 14.46875 
C 3.296875 5.234375 12.296875 -2 22.90625 -2 
C 34 -2 42.5 6.71875 42.5 16.953125 
C 42.5 26.671875 34.5 33.703125 25 34.796875 
C 32.59375 36.375 39.90625 43.0625 39.90625 52.015625 
C 39.90625 59.6875 32 65.296875 23 65.296875 
C 13.90625 65.296875 5.90625 59.828125 5.90625 52.015625 
C 5.90625 48.59375 8.5 48 9.796875 48 
C 11.90625 48 13.703125 49.296875 13.703125 51.890625 
C 13.703125 54.46875 11.90625 55.765625 9.796875 55.765625 
C 9.40625 55.765625 8.90625 55.765625 8.5 55.578125 
C 11.40625 61.859375 19.296875 63 22.796875 63 
C 26.296875 63 32.90625 61.328125 32.90625 51.875 
C 32.90625 49.109375 32.5 44.1875 29.09375 39.84375 
C 26.09375 36 22.703125 36 19.40625 35.6875 
C 18.90625 35.6875 16.59375 35.453125 16.203125 35.453125 
C 15.5 35.359375 15.09375 35.265625 15.09375 34.5 
C 15.09375 33.796875 15.203125 33.703125 17.203125 33.703125 
z
" id="CMR17-51"/>
        <path d="M 41.703125 15.453125 
L 39.90625 15.453125 
C 38.90625 8.375 38.09375 7.171875 37.703125 6.5625 
C 37.203125 5.765625 30 5.765625 28.59375 5.765625 
L 9.40625 5.765625 
C 13 9.671875 20 16.75 28.5 24.953125 
C 34.59375 30.734375 41.703125 37.53125 41.703125 47.421875 
C 41.703125 59.21875 32.296875 66 21.796875 66 
C 10.796875 66 4.09375 56.3125 4.09375 47.34375 
C 4.09375 43.4375 7 42.9375 8.203125 42.9375 
C 9.203125 42.9375 12.203125 43.546875 12.203125 47.03125 
C 12.203125 50.109375 9.59375 51 8.203125 51 
C 7.59375 51 7 50.90625 6.59375 50.703125 
C 8.5 59.21875 14.296875 63.40625 20.40625 63.40625 
C 29.09375 63.40625 34.796875 56.515625 34.796875 47.421875 
C 34.796875 38.734375 29.703125 31.25 24 24.75 
L 4.09375 2.28125 
L 4.09375 0 
L 39.296875 0 
z
" id="CMR17-50"/>
       </defs>
       <use transform="scale(0.996264)" xlink:href="#CMR17-51"/>
       <use transform="translate(45.690477 0)scale(0.996264)" xlink:href="#CMR17-50"/>
      </g>
     </g>
    </g>
    <g id="xtick_3">
     <g id="line2d_3">
      <path clip-path="url(#p8be0796206)" d="M 186.22424 340.130802 
L 186.22424 19.841765 
" style="fill:none;stroke:#cccccc;stroke-linecap:round;stroke-width:0.8;"/>
     </g>
     <g id="text_3">
      <!-- $\mathdefault{64}$ -->
      <g style="fill:#262626;" transform="translate(181.566642 354.519085)scale(0.088 -0.088)">
       <defs>
        <path d="M 33.59375 64.40625 
C 33.59375 66.5 33.5 66.5 31.703125 66.5 
L 2 19.59375 
L 2 17 
L 27.796875 17 
L 27.796875 7.140625 
C 27.796875 3.5 27.59375 2.5 20.59375 2.5 
L 18.703125 2.5 
L 18.703125 0 
C 21.90625 0 27.296875 0 30.703125 0 
C 34.09375 0 39.5 0 42.703125 0 
L 42.703125 2.5 
L 40.796875 2.5 
C 33.796875 2.5 33.59375 3.5 33.59375 7.140625 
L 33.59375 17 
L 43.796875 17 
L 43.796875 19.59375 
L 33.59375 19.59375 
z
M 28.09375 57.859375 
L 28.09375 19.59375 
L 4 19.59375 
z
" id="CMR17-52"/>
       </defs>
       <use transform="scale(0.996264)" xlink:href="#CMR17-54"/>
       <use transform="translate(45.690477 0)scale(0.996264)" xlink:href="#CMR17-52"/>
      </g>
     </g>
    </g>
    <g id="xtick_4">
     <g id="line2d_4">
      <path clip-path="url(#p8be0796206)" d="M 238.059489 340.130802 
L 238.059489 19.841765 
" style="fill:none;stroke:#cccccc;stroke-linecap:round;stroke-width:0.8;"/>
     </g>
     <g id="text_4">
      <!-- $\mathdefault{128}$ -->
      <g style="fill:#262626;" transform="translate(231.073091 354.519085)scale(0.088 -0.088)">
       <defs>
        <path d="M 27.203125 35.375 
C 33.5 38.546875 39.90625 43.328125 39.90625 50.984375 
C 39.90625 60.015625 31.09375 65.296875 23 65.296875 
C 13.90625 65.296875 5.90625 58.734375 5.90625 49.6875 
C 5.90625 47.203125 6.5 42.921875 10.40625 39.140625 
C 11.40625 38.15625 15.59375 35.171875 18.296875 33.28125 
C 13.796875 30.984375 3.296875 25.53125 3.296875 14.59375 
C 3.296875 4.359375 13.09375 -2 22.796875 -2 
C 33.5 -2 42.5 5.65625 42.5 15.78125 
C 42.5 24.84375 36.40625 29.015625 32.40625 31.703125 
z
M 14.09375 44.09375 
C 13.296875 44.59375 9.296875 47.671875 9.296875 52.359375 
C 9.296875 58.421875 15.59375 63 22.796875 63 
C 30.703125 63 36.5 57.4375 36.5 50.96875 
C 36.5 41.703125 26.09375 36.421875 25.59375 36.421875 
C 25.5 36.421875 25.40625 36.421875 24.59375 37.03125 
z
M 32.5 23.734375 
C 34 22.640625 38.796875 19.375 38.796875 13.296875 
C 38.796875 5.953125 31.40625 0.390625 23 0.390625 
C 13.90625 0.390625 7 6.84375 7 14.6875 
C 7 22.546875 13.09375 29.09375 20 32.1875 
z
" id="CMR17-56"/>
       </defs>
       <use transform="scale(0.996264)" xlink:href="#CMR17-49"/>
       <use transform="translate(45.690477 0)scale(0.996264)" xlink:href="#CMR17-50"/>
       <use transform="translate(91.380954 0)scale(0.996264)" xlink:href="#CMR17-56"/>
      </g>
     </g>
    </g>
    <g id="xtick_5">
     <g id="line2d_5">
      <path clip-path="url(#p8be0796206)" d="M 289.894737 340.130802 
L 289.894737 19.841765 
" style="fill:none;stroke:#cccccc;stroke-linecap:round;stroke-width:0.8;"/>
     </g>
     <g id="text_5">
      <!-- $\mathdefault{256}$ -->
      <g style="fill:#262626;" transform="translate(282.90834 354.519085)scale(0.088 -0.088)">
       <defs>
        <path d="M 11.40625 57.6875 
C 12.40625 57.28125 16.5 56 20.703125 56 
C 30 56 35.09375 61.109375 38 64.0625 
C 38 64.953125 38 65.5 37.40625 65.5 
C 37.296875 65.5 37.09375 65.5 36.296875 65.046875 
C 32.796875 63.40625 28.703125 62.078125 23.703125 62.078125 
C 20.703125 62.078125 16.203125 62.484375 11.296875 64.671875 
C 10.203125 65.171875 10 65.171875 9.90625 65.171875 
C 9.40625 65.171875 9.296875 65.0625 9.296875 63.078125 
L 9.296875 34.421875 
C 9.296875 32.640625 9.296875 32.140625 10.296875 32.140625 
C 10.796875 32.140625 11 32.34375 11.5 33.03125 
C 14.703125 37.515625 19.09375 39.40625 24.09375 39.40625 
C 27.59375 39.40625 35.09375 37.21875 35.09375 20.140625 
C 35.09375 16.953125 35.09375 11.171875 32.09375 6.578125 
C 29.59375 2.484375 25.703125 0.390625 21.40625 0.390625 
C 14.796875 0.390625 8.09375 5 6.296875 12.71875 
C 6.703125 12.609375 7.5 12.421875 7.90625 12.421875 
C 9.203125 12.421875 11.703125 13.125 11.703125 16.21875 
C 11.703125 18.90625 9.796875 20 7.90625 20 
C 5.59375 20 4.09375 18.59375 4.09375 15.796875 
C 4.09375 7.09375 11 -2 21.59375 -2 
C 31.90625 -2 41.703125 6.875 41.703125 19.75 
C 41.703125 31.71875 33.90625 41 24.203125 41 
C 19.09375 41 14.796875 39.109375 11.40625 35.53125 
z
" id="CMR17-53"/>
       </defs>
       <use transform="scale(0.996264)" xlink:href="#CMR17-50"/>
       <use transform="translate(45.690477 0)scale(0.996264)" xlink:href="#CMR17-53"/>
       <use transform="translate(91.380954 0)scale(0.996264)" xlink:href="#CMR17-54"/>
      </g>
     </g>
    </g>
    <g id="xtick_6">
     <g id="line2d_6">
      <path clip-path="url(#p8be0796206)" d="M 341.729985 340.130802 
L 341.729985 19.841765 
" style="fill:none;stroke:#cccccc;stroke-linecap:round;stroke-width:0.8;"/>
     </g>
     <g id="text_6">
      <!-- $\mathdefault{512}$ -->
      <g style="fill:#262626;" transform="translate(334.743588 354.519085)scale(0.088 -0.088)">
       <use transform="scale(0.996264)" xlink:href="#CMR17-53"/>
       <use transform="translate(45.690477 0)scale(0.996264)" xlink:href="#CMR17-49"/>
       <use transform="translate(91.380954 0)scale(0.996264)" xlink:href="#CMR17-50"/>
      </g>
     </g>
    </g>
    <g id="text_7">
     <!-- N -->
     <g style="fill:#262626;" transform="translate(197.990649 366.865563)scale(0.096 -0.096)">
      <defs>
       <path d="M 20.5 66.40625 
C 19.796875 67.5 19.703125 67.5 17.796875 67.5 
L 5.09375 67.5 
L 5.09375 65 
L 7 65 
C 11 65 12.796875 64.515625 13.09375 64.40625 
L 13.09375 9.53125 
C 13.09375 7.046875 13.09375 2.390625 5.09375 2.390625 
L 5.09375 -0.203125 
C 7.40625 0 11.59375 0 14.09375 0 
C 16.59375 0 20.796875 0 23.09375 -0.203125 
L 23.09375 2.390625 
C 15.09375 2.390625 15.09375 7.046875 15.09375 9.53125 
L 15.09375 63.015625 
C 15.796875 62.421875 15.796875 62.21875 16.5 61.234375 
L 53.59375 1.1875 
C 54.296875 0 54.59375 0 55.09375 0 
C 56.09375 0 56.09375 0.296875 56.09375 2.171875 
L 56.09375 57.890625 
C 56.09375 60.359375 56.09375 65 64.09375 65 
L 64.09375 67.59375 
C 61.796875 67.5 57.59375 67.5 55.09375 67.5 
C 52.59375 67.5 48.40625 67.5 46.09375 67.59375 
L 46.09375 65 
C 54.09375 65 54.09375 60.34375 54.09375 57.859375 
L 54.09375 11.921875 
z
" id="CMR17-78"/>
      </defs>
      <use transform="scale(0.996264)" xlink:href="#CMR17-78"/>
     </g>
    </g>
   </g>
   <g id="matplotlib.axis_2">
    <g id="ytick_1">
     <g id="line2d_7">
      <path clip-path="url(#p8be0796206)" d="M 46.976583 307.864745 
L 356.375542 307.864745 
" style="fill:none;stroke:#cccccc;stroke-linecap:round;stroke-width:0.8;"/>
     </g>
     <g id="text_8">
      <!-- $\mathdefault{10^{-8}}$ -->
      <g style="fill:#262626;" transform="translate(19.70146 310.908887)scale(0.088 -0.088)">
       <defs>
        <path d="M 42 31.640625 
C 42 37.75 41.90625 48.125 37.703125 56.109375 
C 34 63.109375 28.09375 65.59375 22.90625 65.59375 
C 18.09375 65.59375 12 63.40625 8.203125 56.203125 
C 4.203125 48.71875 3.796875 39.4375 3.796875 31.640625 
C 3.796875 25.953125 3.90625 17.28125 7 9.671875 
C 11.296875 -0.609375 19 -2 22.90625 -2 
C 27.5 -2 34.5 -0.109375 38.59375 9.375 
C 41.59375 16.28125 42 24.359375 42 31.640625 
z
M 22.90625 -0.40625 
C 16.5 -0.40625 12.703125 5.078125 11.296875 12.6875 
C 10.203125 18.5625 10.203125 27.15625 10.203125 32.75 
C 10.203125 40.4375 10.203125 46.828125 11.5 52.921875 
C 13.40625 61.390625 19 64 22.90625 64 
C 27 64 32.296875 61.296875 34.203125 53.125 
C 35.5 47.4375 35.59375 40.734375 35.59375 32.75 
C 35.59375 26.25 35.59375 18.265625 34.40625 12.375 
C 32.296875 1.484375 26.40625 -0.40625 22.90625 -0.40625 
z
" id="CMR17-48"/>
        <path d="M 65.90625 23 
C 67.59375 23 69.40625 23 69.40625 25 
C 69.40625 27 67.59375 27 65.90625 27 
L 11.796875 27 
C 10.09375 27 8.296875 27 8.296875 25 
C 8.296875 23 10.09375 23 11.796875 23 
z
" id="CMSY10-0"/>
       </defs>
       <use transform="scale(0.996264)" xlink:href="#CMR17-49"/>
       <use transform="translate(45.690477 0)scale(0.996264)" xlink:href="#CMR17-48"/>
       <use transform="translate(91.380954 36.153639)scale(0.697382)" xlink:href="#CMSY10-0"/>
       <use transform="translate(145.621947 36.153639)scale(0.697382)" xlink:href="#CMR17-56"/>
      </g>
     </g>
    </g>
    <g id="ytick_2">
     <g id="line2d_8">
      <path clip-path="url(#p8be0796206)" d="M 46.976583 271.188454 
L 356.375542 271.188454 
" style="fill:none;stroke:#cccccc;stroke-linecap:round;stroke-width:0.8;"/>
     </g>
     <g id="text_9">
      <!-- $\mathdefault{10^{-7}}$ -->
      <g style="fill:#262626;" transform="translate(19.70146 274.232596)scale(0.088 -0.088)">
       <defs>
        <path d="M 45.09375 61.578125 
L 45.09375 63.765625 
L 21.59375 63.765625 
C 9.90625 63.765625 9.703125 65.078125 9.296875 67 
L 7.5 67 
L 4.59375 48.34375 
L 6.40625 48.34375 
C 6.703125 50.234375 7.40625 55.3125 8.59375 57.203125 
C 9.203125 58 16.59375 58 18.296875 58 
L 40.296875 58 
L 29.203125 41.578125 
C 21.796875 30.53125 16.703125 15.609375 16.703125 2.578125 
C 16.703125 1.390625 16.703125 -2 20.296875 -2 
C 23.90625 -2 23.90625 1.390625 23.90625 2.671875 
L 23.90625 7.265625 
C 23.90625 23.5625 26.703125 34.3125 31.296875 41.1875 
z
" id="CMR17-55"/>
       </defs>
       <use transform="scale(0.996264)" xlink:href="#CMR17-49"/>
       <use transform="translate(45.690477 0)scale(0.996264)" xlink:href="#CMR17-48"/>
       <use transform="translate(91.380954 36.153639)scale(0.697382)" xlink:href="#CMSY10-0"/>
       <use transform="translate(145.621947 36.153639)scale(0.697382)" xlink:href="#CMR17-55"/>
      </g>
     </g>
    </g>
    <g id="ytick_3">
     <g id="line2d_9">
      <path clip-path="url(#p8be0796206)" d="M 46.976583 234.512163 
L 356.375542 234.512163 
" style="fill:none;stroke:#cccccc;stroke-linecap:round;stroke-width:0.8;"/>
     </g>
     <g id="text_10">
      <!-- $\mathdefault{10^{-6}}$ -->
      <g style="fill:#262626;" transform="translate(19.70146 237.556304)scale(0.088 -0.088)">
       <use transform="scale(0.996264)" xlink:href="#CMR17-49"/>
       <use transform="translate(45.690477 0)scale(0.996264)" xlink:href="#CMR17-48"/>
       <use transform="translate(91.380954 36.153639)scale(0.697382)" xlink:href="#CMSY10-0"/>
       <use transform="translate(145.621947 36.153639)scale(0.697382)" xlink:href="#CMR17-54"/>
      </g>
     </g>
    </g>
    <g id="ytick_4">
     <g id="line2d_10">
      <path clip-path="url(#p8be0796206)" d="M 46.976583 197.835872 
L 356.375542 197.835872 
" style="fill:none;stroke:#cccccc;stroke-linecap:round;stroke-width:0.8;"/>
     </g>
     <g id="text_11">
      <!-- $\mathdefault{10^{-5}}$ -->
      <g style="fill:#262626;" transform="translate(19.70146 200.880013)scale(0.088 -0.088)">
       <use transform="scale(0.996264)" xlink:href="#CMR17-49"/>
       <use transform="translate(45.690477 0)scale(0.996264)" xlink:href="#CMR17-48"/>
       <use transform="translate(91.380954 36.153639)scale(0.697382)" xlink:href="#CMSY10-0"/>
       <use transform="translate(145.621947 36.153639)scale(0.697382)" xlink:href="#CMR17-53"/>
      </g>
     </g>
    </g>
    <g id="ytick_5">
     <g id="line2d_11">
      <path clip-path="url(#p8be0796206)" d="M 46.976583 161.15958 
L 356.375542 161.15958 
" style="fill:none;stroke:#cccccc;stroke-linecap:round;stroke-width:0.8;"/>
     </g>
     <g id="text_12">
      <!-- $\mathdefault{10^{-4}}$ -->
      <g style="fill:#262626;" transform="translate(19.70146 164.203722)scale(0.088 -0.088)">
       <use transform="scale(0.996264)" xlink:href="#CMR17-49"/>
       <use transform="translate(45.690477 0)scale(0.996264)" xlink:href="#CMR17-48"/>
       <use transform="translate(91.380954 36.153639)scale(0.697382)" xlink:href="#CMSY10-0"/>
       <use transform="translate(145.621947 36.153639)scale(0.697382)" xlink:href="#CMR17-52"/>
      </g>
     </g>
    </g>
    <g id="ytick_6">
     <g id="line2d_12">
      <path clip-path="url(#p8be0796206)" d="M 46.976583 124.483289 
L 356.375542 124.483289 
" style="fill:none;stroke:#cccccc;stroke-linecap:round;stroke-width:0.8;"/>
     </g>
     <g id="text_13">
      <!-- $\mathdefault{10^{-3}}$ -->
      <g style="fill:#262626;" transform="translate(19.70146 127.527431)scale(0.088 -0.088)">
       <use transform="scale(0.996264)" xlink:href="#CMR17-49"/>
       <use transform="translate(45.690477 0)scale(0.996264)" xlink:href="#CMR17-48"/>
       <use transform="translate(91.380954 36.153639)scale(0.697382)" xlink:href="#CMSY10-0"/>
       <use transform="translate(145.621947 36.153639)scale(0.697382)" xlink:href="#CMR17-51"/>
      </g>
     </g>
    </g>
    <g id="ytick_7">
     <g id="line2d_13">
      <path clip-path="url(#p8be0796206)" d="M 46.976583 87.806998 
L 356.375542 87.806998 
" style="fill:none;stroke:#cccccc;stroke-linecap:round;stroke-width:0.8;"/>
     </g>
     <g id="text_14">
      <!-- $\mathdefault{10^{-2}}$ -->
      <g style="fill:#262626;" transform="translate(19.70146 90.85114)scale(0.088 -0.088)">
       <use transform="scale(0.996264)" xlink:href="#CMR17-49"/>
       <use transform="translate(45.690477 0)scale(0.996264)" xlink:href="#CMR17-48"/>
       <use transform="translate(91.380954 36.153639)scale(0.697382)" xlink:href="#CMSY10-0"/>
       <use transform="translate(145.621947 36.153639)scale(0.697382)" xlink:href="#CMR17-50"/>
      </g>
     </g>
    </g>
    <g id="ytick_8">
     <g id="line2d_14">
      <path clip-path="url(#p8be0796206)" d="M 46.976583 51.130707 
L 356.375542 51.130707 
" style="fill:none;stroke:#cccccc;stroke-linecap:round;stroke-width:0.8;"/>
     </g>
     <g id="text_15">
      <!-- $\mathdefault{10^{-1}}$ -->
      <g style="fill:#262626;" transform="translate(19.70146 54.174848)scale(0.088 -0.088)">
       <use transform="scale(0.996264)" xlink:href="#CMR17-49"/>
       <use transform="translate(45.690477 0)scale(0.996264)" xlink:href="#CMR17-48"/>
       <use transform="translate(91.380954 36.153639)scale(0.697382)" xlink:href="#CMSY10-0"/>
       <use transform="translate(145.621947 36.153639)scale(0.697382)" xlink:href="#CMR17-49"/>
      </g>
     </g>
    </g>
    <g id="ytick_9">
     <g id="line2d_15">
      <path clip-path="url(#p8be0796206)" d="M 46.976583 333.500373 
L 356.375542 333.500373 
" style="fill:none;stroke:#cccccc;stroke-linecap:round;stroke-width:0.25;"/>
     </g>
    </g>
    <g id="ytick_10">
     <g id="line2d_16">
      <path clip-path="url(#p8be0796206)" d="M 46.976583 327.041998 
L 356.375542 327.041998 
" style="fill:none;stroke:#cccccc;stroke-linecap:round;stroke-width:0.25;"/>
     </g>
    </g>
    <g id="ytick_11">
     <g id="line2d_17">
      <path clip-path="url(#p8be0796206)" d="M 46.976583 322.459709 
L 356.375542 322.459709 
" style="fill:none;stroke:#cccccc;stroke-linecap:round;stroke-width:0.25;"/>
     </g>
    </g>
    <g id="ytick_12">
     <g id="line2d_18">
      <path clip-path="url(#p8be0796206)" d="M 46.976583 318.905409 
L 356.375542 318.905409 
" style="fill:none;stroke:#cccccc;stroke-linecap:round;stroke-width:0.25;"/>
     </g>
    </g>
    <g id="ytick_13">
     <g id="line2d_19">
      <path clip-path="url(#p8be0796206)" d="M 46.976583 316.001335 
L 356.375542 316.001335 
" style="fill:none;stroke:#cccccc;stroke-linecap:round;stroke-width:0.25;"/>
     </g>
    </g>
    <g id="ytick_14">
     <g id="line2d_20">
      <path clip-path="url(#p8be0796206)" d="M 46.976583 313.545975 
L 356.375542 313.545975 
" style="fill:none;stroke:#cccccc;stroke-linecap:round;stroke-width:0.25;"/>
     </g>
    </g>
    <g id="ytick_15">
     <g id="line2d_21">
      <path clip-path="url(#p8be0796206)" d="M 46.976583 311.419045 
L 356.375542 311.419045 
" style="fill:none;stroke:#cccccc;stroke-linecap:round;stroke-width:0.25;"/>
     </g>
    </g>
    <g id="ytick_16">
     <g id="line2d_22">
      <path clip-path="url(#p8be0796206)" d="M 46.976583 309.54296 
L 356.375542 309.54296 
" style="fill:none;stroke:#cccccc;stroke-linecap:round;stroke-width:0.25;"/>
     </g>
    </g>
    <g id="ytick_17">
     <g id="line2d_23">
      <path clip-path="url(#p8be0796206)" d="M 46.976583 296.824081 
L 356.375542 296.824081 
" style="fill:none;stroke:#cccccc;stroke-linecap:round;stroke-width:0.25;"/>
     </g>
    </g>
    <g id="ytick_18">
     <g id="line2d_24">
      <path clip-path="url(#p8be0796206)" d="M 46.976583 290.365707 
L 356.375542 290.365707 
" style="fill:none;stroke:#cccccc;stroke-linecap:round;stroke-width:0.25;"/>
     </g>
    </g>
    <g id="ytick_19">
     <g id="line2d_25">
      <path clip-path="url(#p8be0796206)" d="M 46.976583 285.783418 
L 356.375542 285.783418 
" style="fill:none;stroke:#cccccc;stroke-linecap:round;stroke-width:0.25;"/>
     </g>
    </g>
    <g id="ytick_20">
     <g id="line2d_26">
      <path clip-path="url(#p8be0796206)" d="M 46.976583 282.229118 
L 356.375542 282.229118 
" style="fill:none;stroke:#cccccc;stroke-linecap:round;stroke-width:0.25;"/>
     </g>
    </g>
    <g id="ytick_21">
     <g id="line2d_27">
      <path clip-path="url(#p8be0796206)" d="M 46.976583 279.325043 
L 356.375542 279.325043 
" style="fill:none;stroke:#cccccc;stroke-linecap:round;stroke-width:0.25;"/>
     </g>
    </g>
    <g id="ytick_22">
     <g id="line2d_28">
      <path clip-path="url(#p8be0796206)" d="M 46.976583 276.869683 
L 356.375542 276.869683 
" style="fill:none;stroke:#cccccc;stroke-linecap:round;stroke-width:0.25;"/>
     </g>
    </g>
    <g id="ytick_23">
     <g id="line2d_29">
      <path clip-path="url(#p8be0796206)" d="M 46.976583 274.742754 
L 356.375542 274.742754 
" style="fill:none;stroke:#cccccc;stroke-linecap:round;stroke-width:0.25;"/>
     </g>
    </g>
    <g id="ytick_24">
     <g id="line2d_30">
      <path clip-path="url(#p8be0796206)" d="M 46.976583 272.866669 
L 356.375542 272.866669 
" style="fill:none;stroke:#cccccc;stroke-linecap:round;stroke-width:0.25;"/>
     </g>
    </g>
    <g id="ytick_25">
     <g id="line2d_31">
      <path clip-path="url(#p8be0796206)" d="M 46.976583 260.14779 
L 356.375542 260.14779 
" style="fill:none;stroke:#cccccc;stroke-linecap:round;stroke-width:0.25;"/>
     </g>
    </g>
    <g id="ytick_26">
     <g id="line2d_32">
      <path clip-path="url(#p8be0796206)" d="M 46.976583 253.689416 
L 356.375542 253.689416 
" style="fill:none;stroke:#cccccc;stroke-linecap:round;stroke-width:0.25;"/>
     </g>
    </g>
    <g id="ytick_27">
     <g id="line2d_33">
      <path clip-path="url(#p8be0796206)" d="M 46.976583 249.107126 
L 356.375542 249.107126 
" style="fill:none;stroke:#cccccc;stroke-linecap:round;stroke-width:0.25;"/>
     </g>
    </g>
    <g id="ytick_28">
     <g id="line2d_34">
      <path clip-path="url(#p8be0796206)" d="M 46.976583 245.552827 
L 356.375542 245.552827 
" style="fill:none;stroke:#cccccc;stroke-linecap:round;stroke-width:0.25;"/>
     </g>
    </g>
    <g id="ytick_29">
     <g id="line2d_35">
      <path clip-path="url(#p8be0796206)" d="M 46.976583 242.648752 
L 356.375542 242.648752 
" style="fill:none;stroke:#cccccc;stroke-linecap:round;stroke-width:0.25;"/>
     </g>
    </g>
    <g id="ytick_30">
     <g id="line2d_36">
      <path clip-path="url(#p8be0796206)" d="M 46.976583 240.193392 
L 356.375542 240.193392 
" style="fill:none;stroke:#cccccc;stroke-linecap:round;stroke-width:0.25;"/>
     </g>
    </g>
    <g id="ytick_31">
     <g id="line2d_37">
      <path clip-path="url(#p8be0796206)" d="M 46.976583 238.066463 
L 356.375542 238.066463 
" style="fill:none;stroke:#cccccc;stroke-linecap:round;stroke-width:0.25;"/>
     </g>
    </g>
    <g id="ytick_32">
     <g id="line2d_38">
      <path clip-path="url(#p8be0796206)" d="M 46.976583 236.190378 
L 356.375542 236.190378 
" style="fill:none;stroke:#cccccc;stroke-linecap:round;stroke-width:0.25;"/>
     </g>
    </g>
    <g id="ytick_33">
     <g id="line2d_39">
      <path clip-path="url(#p8be0796206)" d="M 46.976583 223.471499 
L 356.375542 223.471499 
" style="fill:none;stroke:#cccccc;stroke-linecap:round;stroke-width:0.25;"/>
     </g>
    </g>
    <g id="ytick_34">
     <g id="line2d_40">
      <path clip-path="url(#p8be0796206)" d="M 46.976583 217.013125 
L 356.375542 217.013125 
" style="fill:none;stroke:#cccccc;stroke-linecap:round;stroke-width:0.25;"/>
     </g>
    </g>
    <g id="ytick_35">
     <g id="line2d_41">
      <path clip-path="url(#p8be0796206)" d="M 46.976583 212.430835 
L 356.375542 212.430835 
" style="fill:none;stroke:#cccccc;stroke-linecap:round;stroke-width:0.25;"/>
     </g>
    </g>
    <g id="ytick_36">
     <g id="line2d_42">
      <path clip-path="url(#p8be0796206)" d="M 46.976583 208.876535 
L 356.375542 208.876535 
" style="fill:none;stroke:#cccccc;stroke-linecap:round;stroke-width:0.25;"/>
     </g>
    </g>
    <g id="ytick_37">
     <g id="line2d_43">
      <path clip-path="url(#p8be0796206)" d="M 46.976583 205.972461 
L 356.375542 205.972461 
" style="fill:none;stroke:#cccccc;stroke-linecap:round;stroke-width:0.25;"/>
     </g>
    </g>
    <g id="ytick_38">
     <g id="line2d_44">
      <path clip-path="url(#p8be0796206)" d="M 46.976583 203.517101 
L 356.375542 203.517101 
" style="fill:none;stroke:#cccccc;stroke-linecap:round;stroke-width:0.25;"/>
     </g>
    </g>
    <g id="ytick_39">
     <g id="line2d_45">
      <path clip-path="url(#p8be0796206)" d="M 46.976583 201.390171 
L 356.375542 201.390171 
" style="fill:none;stroke:#cccccc;stroke-linecap:round;stroke-width:0.25;"/>
     </g>
    </g>
    <g id="ytick_40">
     <g id="line2d_46">
      <path clip-path="url(#p8be0796206)" d="M 46.976583 199.514087 
L 356.375542 199.514087 
" style="fill:none;stroke:#cccccc;stroke-linecap:round;stroke-width:0.25;"/>
     </g>
    </g>
    <g id="ytick_41">
     <g id="line2d_47">
      <path clip-path="url(#p8be0796206)" d="M 46.976583 186.795208 
L 356.375542 186.795208 
" style="fill:none;stroke:#cccccc;stroke-linecap:round;stroke-width:0.25;"/>
     </g>
    </g>
    <g id="ytick_42">
     <g id="line2d_48">
      <path clip-path="url(#p8be0796206)" d="M 46.976583 180.336833 
L 356.375542 180.336833 
" style="fill:none;stroke:#cccccc;stroke-linecap:round;stroke-width:0.25;"/>
     </g>
    </g>
    <g id="ytick_43">
     <g id="line2d_49">
      <path clip-path="url(#p8be0796206)" d="M 46.976583 175.754544 
L 356.375542 175.754544 
" style="fill:none;stroke:#cccccc;stroke-linecap:round;stroke-width:0.25;"/>
     </g>
    </g>
    <g id="ytick_44">
     <g id="line2d_50">
      <path clip-path="url(#p8be0796206)" d="M 46.976583 172.200244 
L 356.375542 172.200244 
" style="fill:none;stroke:#cccccc;stroke-linecap:round;stroke-width:0.25;"/>
     </g>
    </g>
    <g id="ytick_45">
     <g id="line2d_51">
      <path clip-path="url(#p8be0796206)" d="M 46.976583 169.29617 
L 356.375542 169.29617 
" style="fill:none;stroke:#cccccc;stroke-linecap:round;stroke-width:0.25;"/>
     </g>
    </g>
    <g id="ytick_46">
     <g id="line2d_52">
      <path clip-path="url(#p8be0796206)" d="M 46.976583 166.84081 
L 356.375542 166.84081 
" style="fill:none;stroke:#cccccc;stroke-linecap:round;stroke-width:0.25;"/>
     </g>
    </g>
    <g id="ytick_47">
     <g id="line2d_53">
      <path clip-path="url(#p8be0796206)" d="M 46.976583 164.71388 
L 356.375542 164.71388 
" style="fill:none;stroke:#cccccc;stroke-linecap:round;stroke-width:0.25;"/>
     </g>
    </g>
    <g id="ytick_48">
     <g id="line2d_54">
      <path clip-path="url(#p8be0796206)" d="M 46.976583 162.837795 
L 356.375542 162.837795 
" style="fill:none;stroke:#cccccc;stroke-linecap:round;stroke-width:0.25;"/>
     </g>
    </g>
    <g id="ytick_49">
     <g id="line2d_55">
      <path clip-path="url(#p8be0796206)" d="M 46.976583 150.118917 
L 356.375542 150.118917 
" style="fill:none;stroke:#cccccc;stroke-linecap:round;stroke-width:0.25;"/>
     </g>
    </g>
    <g id="ytick_50">
     <g id="line2d_56">
      <path clip-path="url(#p8be0796206)" d="M 46.976583 143.660542 
L 356.375542 143.660542 
" style="fill:none;stroke:#cccccc;stroke-linecap:round;stroke-width:0.25;"/>
     </g>
    </g>
    <g id="ytick_51">
     <g id="line2d_57">
      <path clip-path="url(#p8be0796206)" d="M 46.976583 139.078253 
L 356.375542 139.078253 
" style="fill:none;stroke:#cccccc;stroke-linecap:round;stroke-width:0.25;"/>
     </g>
    </g>
    <g id="ytick_52">
     <g id="line2d_58">
      <path clip-path="url(#p8be0796206)" d="M 46.976583 135.523953 
L 356.375542 135.523953 
" style="fill:none;stroke:#cccccc;stroke-linecap:round;stroke-width:0.25;"/>
     </g>
    </g>
    <g id="ytick_53">
     <g id="line2d_59">
      <path clip-path="url(#p8be0796206)" d="M 46.976583 132.619878 
L 356.375542 132.619878 
" style="fill:none;stroke:#cccccc;stroke-linecap:round;stroke-width:0.25;"/>
     </g>
    </g>
    <g id="ytick_54">
     <g id="line2d_60">
      <path clip-path="url(#p8be0796206)" d="M 46.976583 130.164518 
L 356.375542 130.164518 
" style="fill:none;stroke:#cccccc;stroke-linecap:round;stroke-width:0.25;"/>
     </g>
    </g>
    <g id="ytick_55">
     <g id="line2d_61">
      <path clip-path="url(#p8be0796206)" d="M 46.976583 128.037589 
L 356.375542 128.037589 
" style="fill:none;stroke:#cccccc;stroke-linecap:round;stroke-width:0.25;"/>
     </g>
    </g>
    <g id="ytick_56">
     <g id="line2d_62">
      <path clip-path="url(#p8be0796206)" d="M 46.976583 126.161504 
L 356.375542 126.161504 
" style="fill:none;stroke:#cccccc;stroke-linecap:round;stroke-width:0.25;"/>
     </g>
    </g>
    <g id="ytick_57">
     <g id="line2d_63">
      <path clip-path="url(#p8be0796206)" d="M 46.976583 113.442625 
L 356.375542 113.442625 
" style="fill:none;stroke:#cccccc;stroke-linecap:round;stroke-width:0.25;"/>
     </g>
    </g>
    <g id="ytick_58">
     <g id="line2d_64">
      <path clip-path="url(#p8be0796206)" d="M 46.976583 106.984251 
L 356.375542 106.984251 
" style="fill:none;stroke:#cccccc;stroke-linecap:round;stroke-width:0.25;"/>
     </g>
    </g>
    <g id="ytick_59">
     <g id="line2d_65">
      <path clip-path="url(#p8be0796206)" d="M 46.976583 102.401961 
L 356.375542 102.401961 
" style="fill:none;stroke:#cccccc;stroke-linecap:round;stroke-width:0.25;"/>
     </g>
    </g>
    <g id="ytick_60">
     <g id="line2d_66">
      <path clip-path="url(#p8be0796206)" d="M 46.976583 98.847662 
L 356.375542 98.847662 
" style="fill:none;stroke:#cccccc;stroke-linecap:round;stroke-width:0.25;"/>
     </g>
    </g>
    <g id="ytick_61">
     <g id="line2d_67">
      <path clip-path="url(#p8be0796206)" d="M 46.976583 95.943587 
L 356.375542 95.943587 
" style="fill:none;stroke:#cccccc;stroke-linecap:round;stroke-width:0.25;"/>
     </g>
    </g>
    <g id="ytick_62">
     <g id="line2d_68">
      <path clip-path="url(#p8be0796206)" d="M 46.976583 93.488227 
L 356.375542 93.488227 
" style="fill:none;stroke:#cccccc;stroke-linecap:round;stroke-width:0.25;"/>
     </g>
    </g>
    <g id="ytick_63">
     <g id="line2d_69">
      <path clip-path="url(#p8be0796206)" d="M 46.976583 91.361298 
L 356.375542 91.361298 
" style="fill:none;stroke:#cccccc;stroke-linecap:round;stroke-width:0.25;"/>
     </g>
    </g>
    <g id="ytick_64">
     <g id="line2d_70">
      <path clip-path="url(#p8be0796206)" d="M 46.976583 89.485213 
L 356.375542 89.485213 
" style="fill:none;stroke:#cccccc;stroke-linecap:round;stroke-width:0.25;"/>
     </g>
    </g>
    <g id="ytick_65">
     <g id="line2d_71">
      <path clip-path="url(#p8be0796206)" d="M 46.976583 76.766334 
L 356.375542 76.766334 
" style="fill:none;stroke:#cccccc;stroke-linecap:round;stroke-width:0.25;"/>
     </g>
    </g>
    <g id="ytick_66">
     <g id="line2d_72">
      <path clip-path="url(#p8be0796206)" d="M 46.976583 70.30796 
L 356.375542 70.30796 
" style="fill:none;stroke:#cccccc;stroke-linecap:round;stroke-width:0.25;"/>
     </g>
    </g>
    <g id="ytick_67">
     <g id="line2d_73">
      <path clip-path="url(#p8be0796206)" d="M 46.976583 65.72567 
L 356.375542 65.72567 
" style="fill:none;stroke:#cccccc;stroke-linecap:round;stroke-width:0.25;"/>
     </g>
    </g>
    <g id="ytick_68">
     <g id="line2d_74">
      <path clip-path="url(#p8be0796206)" d="M 46.976583 62.17137 
L 356.375542 62.17137 
" style="fill:none;stroke:#cccccc;stroke-linecap:round;stroke-width:0.25;"/>
     </g>
    </g>
    <g id="ytick_69">
     <g id="line2d_75">
      <path clip-path="url(#p8be0796206)" d="M 46.976583 59.267296 
L 356.375542 59.267296 
" style="fill:none;stroke:#cccccc;stroke-linecap:round;stroke-width:0.25;"/>
     </g>
    </g>
    <g id="ytick_70">
     <g id="line2d_76">
      <path clip-path="url(#p8be0796206)" d="M 46.976583 56.811936 
L 356.375542 56.811936 
" style="fill:none;stroke:#cccccc;stroke-linecap:round;stroke-width:0.25;"/>
     </g>
    </g>
    <g id="ytick_71">
     <g id="line2d_77">
      <path clip-path="url(#p8be0796206)" d="M 46.976583 54.685006 
L 356.375542 54.685006 
" style="fill:none;stroke:#cccccc;stroke-linecap:round;stroke-width:0.25;"/>
     </g>
    </g>
    <g id="ytick_72">
     <g id="line2d_78">
      <path clip-path="url(#p8be0796206)" d="M 46.976583 52.808922 
L 356.375542 52.808922 
" style="fill:none;stroke:#cccccc;stroke-linecap:round;stroke-width:0.25;"/>
     </g>
    </g>
    <g id="ytick_73">
     <g id="line2d_79">
      <path clip-path="url(#p8be0796206)" d="M 46.976583 40.090043 
L 356.375542 40.090043 
" style="fill:none;stroke:#cccccc;stroke-linecap:round;stroke-width:0.25;"/>
     </g>
    </g>
    <g id="ytick_74">
     <g id="line2d_80">
      <path clip-path="url(#p8be0796206)" d="M 46.976583 33.631668 
L 356.375542 33.631668 
" style="fill:none;stroke:#cccccc;stroke-linecap:round;stroke-width:0.25;"/>
     </g>
    </g>
    <g id="ytick_75">
     <g id="line2d_81">
      <path clip-path="url(#p8be0796206)" d="M 46.976583 29.049379 
L 356.375542 29.049379 
" style="fill:none;stroke:#cccccc;stroke-linecap:round;stroke-width:0.25;"/>
     </g>
    </g>
    <g id="ytick_76">
     <g id="line2d_82">
      <path clip-path="url(#p8be0796206)" d="M 46.976583 25.495079 
L 356.375542 25.495079 
" style="fill:none;stroke:#cccccc;stroke-linecap:round;stroke-width:0.25;"/>
     </g>
    </g>
    <g id="ytick_77">
     <g id="line2d_83">
      <path clip-path="url(#p8be0796206)" d="M 46.976583 22.591005 
L 356.375542 22.591005 
" style="fill:none;stroke:#cccccc;stroke-linecap:round;stroke-width:0.25;"/>
     </g>
    </g>
    <g id="ytick_78">
     <g id="line2d_84">
      <path clip-path="url(#p8be0796206)" d="M 46.976583 20.135645 
L 356.375542 20.135645 
" style="fill:none;stroke:#cccccc;stroke-linecap:round;stroke-width:0.25;"/>
     </g>
    </g>
    <g id="text_16">
     <!-- Maximum Error -->
     <g style="fill:#262626;" transform="translate(13.841765 214.900301)rotate(-90)scale(0.096 -0.096)">
      <defs>
       <path d="M 20.90625 66 
C 20.296875 67.5 20.203125 67.5 18.09375 67.5 
L 5.296875 67.5 
L 5.296875 65 
C 12.203125 65 13.296875 65 13.296875 60.546875 
L 13.296875 9.53125 
C 13.296875 7.046875 13.296875 2.390625 5.296875 2.390625 
L 5.296875 -0.203125 
C 7.59375 0 11.796875 0 14.296875 0 
C 16.796875 0 21 0 23.296875 -0.203125 
L 23.296875 2.390625 
C 15.296875 2.390625 15.296875 7.046875 15.296875 9.53125 
L 15.296875 64.609375 
L 15.40625 64.609375 
L 38.90625 1.390625 
C 39.296875 0.390625 39.5 -0.203125 40.296875 -0.203125 
C 41.09375 -0.203125 41.296875 0.390625 41.703125 1.390625 
L 65.40625 65.09375 
L 65.5 65.09375 
L 65.5 6.84375 
C 65.5 2.390625 64.40625 2.390625 57.5 2.390625 
L 57.5 -0.203125 
C 60.203125 0 65.59375 0 68.5 0 
C 71.40625 0 76.90625 0 79.59375 -0.203125 
L 79.59375 2.390625 
C 72.703125 2.390625 71.59375 2.390625 71.59375 6.84375 
L 71.59375 60.546875 
C 71.59375 65 72.703125 65 79.59375 65 
L 79.59375 67.5 
L 66.90625 67.5 
C 64.796875 67.5 64.703125 67.40625 64.09375 65.90625 
L 42.5 7.84375 
z
" id="CMR17-77"/>
       <path d="M 36 25.828125 
C 36 32.375 36 35.84375 31.796875 39.734375 
C 28.09375 43 23.796875 44 20.40625 44 
C 12.5 44 6.796875 37.609375 6.796875 30.796875 
C 6.796875 27 9.796875 27 10.40625 27 
C 11.703125 27 14 27.78125 14 30.53125 
C 14 33 12.09375 34.078125 10.40625 34.078125 
C 10 34.078125 9.5 33.96875 9.203125 33.875 
C 11.296875 40.5 16.703125 42.40625 20.203125 42.40625 
C 25.203125 42.40625 30.703125 37.953125 30.703125 29.453125 
L 30.703125 25 
C 24.796875 25 17.703125 24.203125 12.09375 21.203125 
C 5.796875 17.703125 4 12.703125 4 8.90625 
C 4 1.203125 13 -1 18.296875 -1 
C 23.796875 -1 28.90625 2.171875 31.09375 7.984375 
C 31.296875 3.640625 34.09375 -0.28125 38.5 -0.28125 
C 40.59375 -0.28125 45.90625 1.09375 45.90625 8.859375 
L 45.90625 14.375 
L 44.09375 14.375 
L 44.09375 8.78125 
C 44.09375 2.78125 41.40625 2 40.09375 2 
C 36 2 36 7.15625 36 11.53125 
z
M 30.703125 13.59375 
C 30.703125 4.953125 24.5 0.59375 19 0.59375 
C 14 0.59375 10.09375 4.296875 10.09375 8.90625 
C 10.09375 11.890625 11.40625 17.1875 17.203125 20.390625 
C 22 23.09375 27.5 23.5 30.703125 23.5 
z
" id="CMR17-97"/>
       <path d="M 26 23.078125 
C 29 26.96875 32.40625 31.34375 35.203125 34.625 
C 38.5 38.40625 42.296875 40 46.703125 40 
L 46.703125 42.59375 
C 45 42.59375 41.5 42.59375 39.703125 42.59375 
C 37 42.59375 33.90625 42.59375 31.59375 42.6875 
L 31.59375 40.09375 
C 33 39.890625 33.796875 38.890625 33.796875 37.5 
C 33.796875 35.703125 32.796875 34.609375 32.296875 33.921875 
L 24.90625 24.578125 
L 16.09375 36.03125 
C 15.203125 37.125 15.203125 37.3125 15.203125 37.8125 
C 15.203125 39.015625 16.203125 40 17.90625 40 
L 17.90625 42.6875 
C 15.5 42.59375 11.203125 42.59375 8.703125 42.59375 
C 6 42.59375 2.796875 42.59375 0.59375 42.6875 
L 0.59375 40 
C 6 40 7.203125 39.59375 9.59375 36.609375 
L 21.09375 21.796875 
C 21.296875 21.59375 21.796875 21 21.796875 20.703125 
C 21.796875 20.296875 13.09375 9.671875 12 8.28125 
C 7.5 2.890625 2.796875 2.5 0.09375 2.5 
L 0.09375 0 
C 1.796875 0 5.296875 0 7.09375 0 
C 9.09375 0 13.5 0 15.296875 -0.09375 
L 15.296875 2.5 
C 14.703125 2.59375 13.09375 2.796875 13.09375 5.078125 
C 13.09375 6.875 13.90625 7.96875 14.796875 9.15625 
L 23.09375 19.3125 
L 31.796875 8 
C 32.59375 6.90625 33.796875 5.40625 33.796875 4.703125 
C 33.796875 3.296875 32.59375 2.5 31 2.5 
L 31 -0.09375 
C 33.40625 0 37.703125 0 40.203125 0 
C 42.90625 0 46.09375 0 48.296875 -0.09375 
L 48.296875 2.5 
C 43.296875 2.5 41.796875 2.6875 39.40625 5.78125 
z
" id="CMR17-120"/>
       <path d="M 15.5 61.078125 
C 15.5 63.265625 13.703125 65.15625 11.40625 65.15625 
C 9.203125 65.15625 7.296875 63.375 7.296875 61.078125 
C 7.296875 58.890625 9.09375 57 11.40625 57 
C 13.59375 57 15.5 58.796875 15.5 61.078125 
z
M 3.796875 42.28125 
L 3.796875 39.703125 
C 9.40625 39.703125 10.203125 39.09375 10.203125 34.328125 
L 10.203125 6.671875 
C 10.203125 2.875 9.796875 2.390625 3.40625 2.390625 
L 3.40625 -0.203125 
C 5.796875 0 10.09375 0 12.59375 0 
C 15 0 19.09375 0 21.40625 -0.203125 
L 21.40625 2.390625 
C 15.5 2.390625 15.296875 2.984375 15.296875 6.5625 
L 15.296875 43.375 
z
" id="CMR17-105"/>
       <path d="M 67.59375 30.203125 
C 67.59375 35.1875 66.703125 43.59375 54.796875 43.59375 
C 48 43.59375 43.296875 39 41.5 33.609375 
L 41.40625 33.609375 
C 40.203125 41.8125 34.296875 43.59375 28.703125 43.59375 
C 20.796875 43.59375 16.703125 37.5 15.203125 33.5 
L 15.09375 33.5 
L 15.09375 43.59375 
L 3.296875 42.5 
L 3.296875 39.90625 
C 9.203125 39.90625 10.09375 39.296875 10.09375 34.5 
L 10.09375 6.6875 
C 10.09375 2.875 9.703125 2.390625 3.296875 2.390625 
L 3.296875 -0.203125 
C 5.703125 0 10.09375 0 12.703125 0 
C 15.296875 0 19.796875 0 22.203125 -0.203125 
L 22.203125 2.390625 
C 15.796875 2.390625 15.40625 2.78125 15.40625 6.6875 
L 15.40625 25.90625 
C 15.40625 35.109375 21 42 28 42 
C 35.40625 42 36.203125 35.40625 36.203125 30.59375 
L 36.203125 6.6875 
C 36.203125 2.875 35.796875 2.390625 29.40625 2.390625 
L 29.40625 -0.203125 
C 31.796875 0 36.203125 0 38.796875 0 
C 41.40625 0 45.90625 0 48.296875 -0.203125 
L 48.296875 2.390625 
C 41.90625 2.390625 41.5 2.78125 41.5 6.6875 
L 41.5 25.90625 
C 41.5 35.109375 47.09375 42 54.09375 42 
C 61.5 42 62.296875 35.40625 62.296875 30.59375 
L 62.296875 6.6875 
C 62.296875 2.875 61.90625 2.390625 55.5 2.390625 
L 55.5 -0.203125 
C 57.90625 0 62.296875 0 64.90625 0 
C 67.5 0 72 0 74.40625 -0.203125 
L 74.40625 2.390625 
C 68 2.390625 67.59375 2.78125 67.59375 6.6875 
z
" id="CMR17-109"/>
       <path d="M 29.40625 42.078125 
L 29.40625 39.5 
C 35.296875 39.5 36.203125 38.890625 36.203125 34.15625 
L 36.203125 16.125 
C 36.203125 7.8125 31.703125 0.59375 24.296875 0.59375 
C 16.09375 0.59375 15.40625 5.4375 15.40625 10.59375 
L 15.40625 43.171875 
L 3.296875 42.078125 
L 3.296875 39.5 
C 7.296875 39.5 10 39.5 10.09375 35.53125 
L 10.09375 16.53125 
C 10.09375 9.890625 10.09375 5.640625 12.703125 2.859375 
C 14 1.578125 16.5 -1 23.703125 -1 
C 32.203125 -1 35.5 5.890625 36.296875 7.90625 
L 36.40625 7.90625 
L 36.40625 -0.984375 
L 48.296875 -0.984375 
L 48.296875 2 
C 42.40625 2 41.5 2.59375 41.5 7.390625 
L 41.5 43.171875 
z
" id="CMR17-117"/>
       <path d="M 60.703125 25.234375 
L 58.90625 25.234375 
C 56.703125 10.5625 55.40625 2.59375 37.796875 2.59375 
L 23.90625 2.59375 
C 19.90625 2.59375 19.703125 3.078125 19.703125 6.46875 
L 19.703125 34 
L 29.09375 34 
C 38.5 34 39.40625 30.625 39.40625 22.34375 
L 41.203125 22.34375 
L 41.203125 48.140625 
L 39.40625 48.140625 
C 39.40625 39.953125 38.5 36.59375 29.09375 36.59375 
L 19.703125 36.59375 
L 19.703125 61.140625 
C 19.703125 64.5 19.90625 65 23.90625 65 
L 37.59375 65 
C 53.09375 65 54.90625 58.890625 56.296875 45.765625 
L 58.09375 45.765625 
L 55.703125 67.578125 
L 5.09375 67.578125 
L 5.09375 65 
C 12 65 13.09375 65 13.09375 60.53125 
L 13.09375 7.046875 
C 13.09375 2.59375 12 2.59375 5.09375 2.59375 
L 5.09375 0 
L 57.09375 0 
z
" id="CMR17-69"/>
       <path d="M 15 23.390625 
C 15 33 19.09375 42 26.59375 42 
C 27.296875 42 28 41.90625 28.703125 41.59375 
C 28.703125 41.59375 26.5 40.890625 26.5 38.3125 
C 26.5 35.90625 28.40625 34.90625 29.90625 34.90625 
C 31.09375 34.90625 33.296875 35.609375 33.296875 38.40625 
C 33.296875 41.609375 30.09375 43.59375 26.703125 43.59375 
C 19.09375 43.59375 15.796875 36.203125 14.796875 32.703125 
L 14.703125 32.703125 
L 14.703125 43.59375 
L 3.09375 42.5 
L 3.09375 39.90625 
C 9 39.90625 9.90625 39.296875 9.90625 34.5 
L 9.90625 6.6875 
C 9.90625 2.875 9.5 2.390625 3.09375 2.390625 
L 3.09375 -0.203125 
C 5.5 0 10.09375 0 12.703125 0 
C 15.59375 0 20.703125 0 23.40625 -0.203125 
L 23.40625 2.390625 
C 16.203125 2.390625 15 2.390625 15 6.875 
z
" id="CMR17-114"/>
       <path d="M 43.09375 21.1875 
C 43.09375 34 33.796875 44 22.90625 44 
C 12 44 2.703125 34 2.703125 21.1875 
C 2.703125 8.609375 12 -1 22.90625 -1 
C 33.796875 -1 43.09375 8.609375 43.09375 21.1875 
z
M 22.90625 0.796875 
C 18.203125 0.796875 14.203125 3.59375 11.90625 7.5 
C 9.40625 11.984375 9.09375 17.59375 9.09375 22 
C 9.09375 26.203125 9.296875 31.40625 11.90625 35.90625 
C 13.90625 39.203125 17.796875 42.40625 22.90625 42.40625 
C 27.40625 42.40625 31.203125 39.90625 33.59375 36.40625 
C 36.703125 31.703125 36.703125 25.109375 36.703125 22 
C 36.703125 18.09375 36.5 12.109375 33.796875 7.296875 
C 31 2.703125 26.703125 0.796875 22.90625 0.796875 
z
" id="CMR17-111"/>
      </defs>
      <use transform="scale(0.996264)" xlink:href="#CMR17-77"/>
      <use transform="translate(84.686941 0)scale(0.996264)" xlink:href="#CMR17-97"/>
      <use transform="translate(130.377418 0)scale(0.996264)" xlink:href="#CMR17-120"/>
      <use transform="translate(178.670334 0)scale(0.996264)" xlink:href="#CMR17-105"/>
      <use transform="translate(203.541392 0)scale(0.996264)" xlink:href="#CMR17-109"/>
      <use transform="translate(277.858528 0)scale(0.996264)" xlink:href="#CMR17-117"/>
      <use transform="translate(328.753898 0)scale(0.996264)" xlink:href="#CMR17-109"/>
      <use transform="translate(435.749454 0)scale(0.996264)" xlink:href="#CMR17-69"/>
      <use transform="translate(498.335754 0)scale(0.996264)" xlink:href="#CMR17-114"/>
      <use transform="translate(533.616522 0)scale(0.996264)" xlink:href="#CMR17-114"/>
      <use transform="translate(568.89729 0)scale(0.996264)" xlink:href="#CMR17-111"/>
      <use transform="translate(614.587767 0)scale(0.996264)" xlink:href="#CMR17-114"/>
     </g>
    </g>
   </g>
   <g id="line2d_85">
    <path clip-path="url(#p8be0796206)" d="M 61.040172 65.876064 
L 82.553744 86.544751 
L 99.240967 92.167104 
L 112.87542 97.753548 
L 124.403187 106.013457 
L 134.388992 119.170228 
L 143.197097 132.990563 
L 151.076215 152.483809 
L 158.203744 155.24186 
L 164.710669 160.348188 
L 170.696459 167.514756 
L 176.238435 168.26818 
L 181.397891 166.503094 
L 186.22424 174.528685 
L 190.757898 169.86365 
L 195.032345 180.658628 
L 199.075625 172.619859 
L 202.911463 167.349449 
L 206.560111 174.977399 
L 210.038992 175.954903 
L 213.363204 166.704863 
L 216.545917 168.620479 
L 219.598686 169.376011 
L 222.531707 170.682114 
L 225.354021 161.710564 
L 228.073683 168.620479 
L 230.697898 175.995279 
L 233.23314 170.798379 
L 235.685243 167.947878 
" style="fill:none;stroke:#1f77b4;stroke-linecap:round;stroke-width:1.2;"/>
   </g>
   <g id="line2d_86">
    <path clip-path="url(#p8be0796206)" d="M 61.040172 65.876064 
L 82.553744 86.544751 
L 99.240967 92.167104 
L 112.87542 97.753548 
L 124.403187 106.013457 
L 134.388992 119.170228 
L 143.197097 132.990563 
L 151.076215 152.483809 
L 158.203744 155.24186 
L 164.710669 160.348188 
L 170.696459 167.514756 
L 176.238435 168.26818 
L 181.397891 169.645077 
L 186.22424 174.528685 
L 190.757898 184.024425 
L 195.032345 195.199506 
L 199.075625 197.36505 
L 202.911463 199.285657 
L 206.560111 202.761642 
L 210.038992 202.291242 
L 213.363204 202.958155 
L 216.545917 206.052302 
L 219.598686 212.75263 
L 222.531707 220.238994 
L 225.354021 223.874769 
L 228.073683 224.204901 
L 230.697898 224.713295 
L 233.23314 224.372569 
L 235.685243 224.713295 
L 238.059489 227.025799 
L 240.360669 232.148083 
L 242.593147 237.441743 
L 244.760906 240.655115 
L 246.867593 241.324872 
L 248.916556 240.914885 
L 250.910873 240.538423 
L 252.853383 240.986473 
L 254.746711 242.835675 
L 256.593286 246.811851 
L 258.39536 250.874079 
L 260.155028 253.270226 
L 261.874241 253.903222 
L 263.554816 253.689416 
L 265.198453 253.373994 
L 266.806739 253.79596 
L 268.381165 255.486058 
L 269.923126 258.702227 
L 271.433934 261.73776 
L 272.914823 263.801954 
L 274.366955 264.414657 
L 275.791426 264.310889 
L 277.18927 263.801954 
L 278.561463 264.519106 
L 279.908931 265.943202 
L 281.232549 268.28438 
L 282.533146 271.20439 
L 283.81151 272.690664 
L 285.068388 273.60934 
L 286.30449 272.760833 
L 287.520491 272.258976 
L 288.717036 273.627894 
L 289.894737 274.466419 
L 291.054178 275.898682 
L 292.195917 277.052769 
L 293.320486 278.421982 
L 294.428395 278.72587 
L 295.520129 279.458335 
L 296.596154 276.244964 
L 297.656916 274.702983 
L 298.702841 273.777106 
L 299.73434 272.241949 
L 300.751804 272.310165 
L 301.75561 276.711191 
L 302.746121 266.766249 
L 303.723683 272.884377 
L 304.688632 275.538825 
L 305.641287 268.962282 
L 306.58196 269.526175 
L 307.510946 273.480066 
L 308.428534 270.260329 
" style="fill:none;stroke:#ff7f0e;stroke-dasharray:4.8,1.8;stroke-dashoffset:0;stroke-width:1.2;"/>
   </g>
   <g id="line2d_87">
    <path clip-path="url(#p8be0796206)" d="M 61.040172 34.400358 
L 82.553744 39.654596 
L 99.240967 48.263442 
L 112.87542 56.587547 
L 124.403187 61.786763 
L 134.388992 65.108342 
L 143.197097 62.108102 
L 151.076215 61.105328 
L 158.203744 63.481849 
L 164.710669 67.916167 
L 170.696459 73.091373 
L 176.238435 78.059528 
L 181.397891 81.419823 
L 186.22424 89.208409 
L 190.757898 80.766436 
L 195.032345 77.146015 
L 199.075625 79.026617 
L 202.911463 82.968777 
L 206.560111 86.025916 
L 210.038992 92.91211 
L 213.363204 93.258028 
L 216.545917 94.089959 
L 219.598686 90.345788 
L 222.531707 87.955487 
L 225.354021 88.796009 
L 228.073683 92.155108 
L 230.697898 92.499894 
L 233.23314 97.184292 
L 235.685243 100.396745 
L 238.059489 100.747757 
L 240.360669 97.126971 
L 242.593147 95.267337 
L 244.760906 95.725777 
L 246.867593 98.929424 
L 248.916556 100.119172 
L 250.910873 106.867079 
L 252.853383 105.798311 
L 254.746711 105.127055 
L 256.593286 102.774507 
L 258.39536 101.247978 
L 260.155028 101.401946 
L 261.874241 104.721601 
L 263.554816 102.681675 
" style="fill:none;stroke:#2ca02c;stroke-dasharray:1.2,1.2;stroke-dashoffset:0;stroke-width:1.2;"/>
   </g>
   <g id="line2d_88">
    <path clip-path="url(#p8be0796206)" d="M 61.040172 69.097495 
L 82.553744 87.535987 
L 99.240967 96.278987 
L 112.87542 107.81642 
L 124.403187 104.317138 
L 134.388992 106.06344 
L 143.197097 112.689087 
L 151.076215 119.49693 
L 158.203744 115.104213 
L 164.710669 115.776782 
L 170.696459 121.481951 
L 176.238435 126.92906 
L 181.397891 122.416503 
L 186.22424 122.681853 
L 190.757898 127.871174 
L 195.032345 132.58914 
L 199.075625 128.004155 
L 202.911463 128.028871 
L 206.560111 132.902767 
L 210.038992 137.162573 
L 213.363204 132.528289 
L 216.545917 132.393691 
L 219.598686 137.05493 
L 222.531707 141.000841 
L 225.354021 136.330275 
L 228.073683 136.082127 
L 230.697898 140.590224 
L 233.23314 144.307726 
L 235.685243 139.609215 
L 238.059489 139.276112 
L 240.360669 143.668668 
L 242.593147 147.212188 
L 244.760906 142.491664 
L 246.867593 142.092774 
L 248.916556 146.395026 
L 250.910873 149.801698 
L 252.853383 145.06335 
L 254.746711 144.611977 
L 256.593286 148.841668 
L 258.39536 152.13781 
L 260.155028 147.384785 
L 261.874241 146.890573 
L 263.554816 151.060744 
L 265.198453 154.265785 
L 266.806739 149.500477 
L 268.381165 148.970601 
L 269.923126 153.091342 
L 271.433934 156.219761 
L 272.914823 151.443929 
L 274.366955 150.883873 
L 275.791426 154.962761 
L 277.18927 158.026073 
L 278.561463 153.241006 
L 279.908931 152.655185 
L 281.232549 156.698086 
L 282.533146 159.705291 
L 283.81151 154.912429 
L 285.068388 154.304165 
L 286.30449 158.315749 
L 287.520491 161.271471 
L 288.717036 156.474448 
L 289.894737 155.846747 
L 291.054178 159.830815 
L 292.195917 162.74955 
L 293.320486 157.940474 
L 294.428395 157.295731 
L 295.520129 161.255438 
L 296.596154 164.127496 
L 297.656916 159.321911 
L 298.702841 158.661907 
L 299.73434 162.591929 
L 300.751804 165.447282 
L 301.75561 160.627637 
L 302.746121 159.954087 
L 303.723683 163.87995 
L 304.688632 166.682318 
L 305.641287 161.85966 
L 306.58196 161.175517 
L 307.510946 165.076361 
L 308.428534 167.874868 
L 309.334999 163.051601 
L 310.230608 162.3498 
L 311.115618 166.237985 
L 311.990276 168.980747 
L 312.854823 164.165924 
L 313.709489 163.451192 
L 314.554497 167.325973 
L 315.390064 170.057394 
L 316.216398 165.240149 
L 317.033701 164.51601 
L 317.842168 168.368044 
L 318.641988 171.092811 
L 319.433344 166.259909 
L 320.216413 165.530896 
L 320.991368 169.376011 
L 321.758374 172.073325 
L 322.517593 167.255753 
L 323.269182 166.503094 
L 324.013292 170.338324 
L 324.750071 173.01726 
L 325.479662 168.193691 
L 326.202203 167.4437 
L 326.917831 171.272119 
L 327.626674 173.949409 
L 328.328862 169.085196 
L 329.024518 168.34302 
L 329.713762 172.168419 
L 330.396712 174.826419 
L 331.07348 169.974072 
L 331.74418 169.216727 
L 332.408917 173.01726 
L 333.067797 175.675101 
L 333.720923 170.827579 
L 334.368395 170.057394 
L 335.010308 173.843102 
L 335.646758 176.487946 
L 336.277838 171.636905 
L 336.903636 170.856832 
L 337.524241 174.676856 
L 338.139738 177.256754 
L 338.75021 172.424816 
L 339.355739 171.667685 
L 339.956405 175.439122 
L 340.552284 178.01859 
L 341.143453 173.185815 
L 341.729985 172.424816 
L 342.311953 176.198708 
" style="fill:none;stroke:#d62728;stroke-dasharray:3.6,1.5,1.8,1.5;stroke-dashoffset:0;stroke-width:1.2;"/>
   </g>
   <g id="line2d_89">
    <path clip-path="url(#p8be0796206)" d="M 61.040172 47.341893 
L 82.553744 57.747163 
L 99.240967 69.534203 
L 112.87542 97.096747 
L 124.403187 111.969375 
L 134.388992 121.252475 
L 143.197097 136.276347 
L 151.076215 157.728082 
L 158.203744 163.955709 
L 164.710669 173.632593 
L 170.696459 186.018063 
L 176.238435 205.373288 
L 181.397891 211.921399 
L 186.22424 223.471499 
L 190.757898 240.238967 
L 195.032345 265.270074 
L 199.075625 272.516582 
L 202.911463 283.453703 
L 206.560111 297.557484 
L 210.038992 316.081176 
L 213.363204 325.572209 
" style="fill:none;stroke:#9467bd;stroke-dasharray:6,1.2,1.2,1.2;stroke-dashoffset:0;stroke-width:1.2;"/>
   </g>
   <g id="line2d_90">
    <path clip-path="url(#p8be0796206)" d="M 61.040172 34.400358 
L 82.553744 39.654596 
L 99.240967 48.263442 
L 112.87542 56.590576 
L 124.403187 61.786732 
L 134.388992 65.108342 
L 143.197097 62.108102 
L 151.076215 61.105238 
L 158.203744 63.481987 
L 164.710669 67.916212 
L 170.696459 73.091121 
L 176.238435 78.059355 
L 181.397891 81.419396 
L 186.22424 89.209174 
L 190.757898 80.765719 
L 195.032345 77.145933 
L 199.075625 79.026617 
L 202.911463 82.969012 
L 206.560111 86.026628 
L 210.038992 92.912549 
L 213.363204 93.258163 
L 216.545917 94.089274 
L 219.598686 90.346853 
L 222.531707 87.95531 
L 225.354021 88.795839 
L 228.073683 92.154313 
L 230.697898 92.500237 
L 233.23314 97.183776 
L 235.685243 100.394568 
L 238.059489 100.74851 
L 240.360669 97.12803 
L 242.593147 95.267413 
L 244.760906 95.72541 
L 246.867593 98.929296 
L 248.916556 100.117688 
L 250.910873 106.867237 
L 252.853383 105.800924 
L 254.746711 105.127008 
L 256.593286 102.776056 
L 258.39536 101.287881 
L 260.155028 101.40217 
L 261.874241 104.721187 
L 263.554816 102.686945 
L 265.198453 107.450651 
L 266.806739 110.418941 
L 268.381165 108.245574 
L 269.923126 107.183373 
L 271.433934 106.048914 
L 272.914823 105.885686 
L 274.366955 109.220535 
L 275.791426 109.217969 
L 277.18927 115.799205 
L 278.561463 114.214769 
L 279.908931 111.308898 
L 281.232549 110.894039 
L 282.533146 109.907451 
L 283.81151 110.020054 
L 285.068388 113.293835 
L 286.30449 109.937077 
L 287.520491 114.79952 
L 288.717036 117.462601 
L 289.894737 114.064586 
L 291.054178 114.243888 
L 292.195917 113.601101 
L 293.320486 113.471083 
L 294.428395 116.501669 
L 295.520129 115.7427 
L 296.596154 122.164449 
L 297.656916 120.336649 
L 298.702841 116.461959 
L 299.73434 117.086174 
L 300.751804 116.528326 
L 301.75561 116.399318 
L 302.746121 119.526308 
L 303.723683 115.383781 
L 304.688632 120.198879 
L 305.641287 122.91095 
L 306.58196 118.730876 
L 307.510946 119.750632 
L 308.428534 119.435553 
L 309.334999 119.155971 
L 310.230608 122.340718 
L 311.115618 120.866672 
L 311.990276 127.214508 
L 312.854823 125.227186 
L 313.709489 120.578999 
L 314.554497 121.979218 
L 315.390064 121.898301 
L 316.216398 121.51629 
L 317.033701 124.766221 
L 317.842168 119.908448 
L 318.641988 124.636666 
L 319.433344 127.233237 
L 320.216413 122.497571 
L 320.991368 124.04792 
L 321.758374 124.164588 
L 322.517593 123.842496 
L 323.269182 127.079757 
L 324.013292 125.156395 
L 324.750071 131.509053 
L 325.479662 129.213998 
L 326.202203 124.235941 
L 326.917831 126.072854 
L 327.626674 126.373696 
L 328.328862 125.840877 
L 329.024518 129.006985 
L 329.713762 123.692952 
L 330.396712 128.42145 
L 331.07348 131.03374 
L 331.74418 125.787612 
L 332.408917 127.862724 
L 333.067797 128.180367 
L 333.720923 127.71479 
L 334.368395 131.036119 
L 335.010308 128.743183 
L 335.646758 135.040486 
L 336.277838 132.656848 
L 336.903636 127.311877 
L 337.524241 129.5732 
L 338.139738 130.02785 
L 338.75021 129.574669 
L 339.355739 132.814915 
L 339.956405 126.90768 
L 340.552284 131.611637 
L 341.143453 134.257234 
L 341.729985 128.629228 
L 342.311953 131.132452 
" style="fill:none;stroke:#8c564b;stroke-dasharray:3.6,1.5,1.5,1.5,1.5,1.5;stroke-dashoffset:0;stroke-width:1.2;"/>
   </g>
   <g id="line2d_91">
    <path clip-path="url(#p8be0796206)" d="M 61.040172 34.400358 
L 82.553744 39.654596 
L 99.240967 48.263442 
L 112.87542 56.590576 
L 124.403187 61.786732 
L 134.388992 65.108342 
L 143.197097 62.108102 
L 151.076215 61.105238 
L 158.203744 63.481987 
L 164.710669 67.916212 
L 170.696459 73.091121 
L 176.238435 78.059355 
L 181.397891 81.419396 
L 186.22424 89.209174 
L 190.757898 80.765719 
L 195.032345 77.145933 
L 199.075625 79.026617 
L 202.911463 82.969012 
L 206.560111 86.026628 
L 210.038992 92.912549 
L 213.363204 93.258163 
L 216.545917 94.089274 
L 219.598686 90.346853 
L 222.531707 87.95531 
L 225.354021 88.795839 
L 228.073683 92.154313 
L 230.697898 92.500237 
L 233.23314 97.183776 
L 235.685243 100.394568 
L 238.059489 100.74851 
L 240.360669 97.12803 
L 242.593147 95.267413 
L 244.760906 95.72541 
L 246.867593 98.929296 
L 248.916556 100.117688 
L 250.910873 106.867237 
L 252.853383 105.800924 
L 254.746711 105.127008 
L 256.593286 102.776056 
L 258.39536 101.287881 
L 260.155028 101.40217 
L 261.874241 104.721187 
L 263.554816 102.686945 
L 265.198453 107.450651 
L 266.806739 110.418941 
L 268.381165 108.245574 
L 269.923126 107.183373 
L 271.433934 106.048914 
L 272.914823 105.885686 
L 274.366955 109.220535 
L 275.791426 109.217969 
L 277.18927 115.799205 
L 278.561463 114.214769 
L 279.908931 111.308898 
L 281.232549 110.894039 
L 282.533146 109.907451 
L 283.81151 110.020054 
L 285.068388 113.293835 
L 286.30449 109.937077 
L 287.520491 114.79952 
L 288.717036 117.462601 
L 289.894737 114.064586 
L 291.054178 114.243888 
L 292.195917 113.601101 
L 293.320486 113.471083 
L 294.428395 116.501669 
L 295.520129 115.7427 
L 296.596154 122.164449 
L 297.656916 120.336649 
L 298.702841 116.461959 
L 299.73434 117.086174 
L 300.751804 116.528326 
L 301.75561 116.399318 
L 302.746121 119.526308 
L 303.723683 115.383781 
L 304.688632 120.198879 
L 305.641287 122.91095 
L 306.58196 118.730876 
L 307.510946 119.750632 
L 308.428534 119.435553 
L 309.334999 119.155971 
L 310.230608 122.340718 
L 311.115618 120.866672 
L 311.990276 127.214508 
L 312.854823 125.227186 
L 313.709489 120.578999 
L 314.554497 121.979218 
L 315.390064 121.898301 
L 316.216398 121.51629 
L 317.033701 124.766221 
L 317.842168 119.908448 
L 318.641988 124.636666 
L 319.433344 127.233237 
L 320.216413 122.497571 
L 320.991368 124.04792 
L 321.758374 124.164588 
L 322.517593 123.842496 
L 323.269182 127.079757 
L 324.013292 125.156395 
L 324.750071 131.509053 
L 325.479662 129.213998 
L 326.202203 124.235941 
L 326.917831 126.072854 
L 327.626674 126.373696 
L 328.328862 125.840877 
L 329.024518 129.006985 
L 329.713762 123.692952 
L 330.396712 128.42145 
L 331.07348 131.03374 
L 331.74418 125.787612 
" style="fill:none;stroke:#e377c2;stroke-dasharray:4.8,1.2,4.8,1.2,1.2,1.2;stroke-dashoffset:0;stroke-width:1.2;"/>
   </g>
   <g id="line2d_92">
    <path clip-path="url(#p8be0796206)" d="M 61.040172 65.876064 
L 82.553744 86.544751 
L 99.240967 92.167104 
L 112.87542 97.753548 
L 124.403187 106.013457 
L 134.388992 119.170228 
L 143.197097 132.990563 
L 151.076215 152.483809 
L 158.203744 155.24186 
L 164.710669 160.348188 
L 170.696459 167.514756 
L 176.238435 168.26818 
L 181.397891 169.645077 
L 186.22424 174.528685 
L 190.757898 184.024425 
L 195.032345 195.199506 
L 199.075625 197.36505 
L 202.911463 199.285657 
L 206.560111 202.761642 
L 210.038992 202.291242 
L 213.363204 202.958155 
L 216.545917 206.052302 
L 219.598686 212.75263 
L 222.531707 220.238994 
L 225.354021 223.874769 
L 228.073683 224.204901 
L 230.697898 224.713295 
L 233.23314 224.372569 
L 235.685243 224.713295 
L 238.059489 227.025799 
L 240.360669 232.148083 
L 242.593147 237.441743 
L 244.760906 240.655115 
L 246.867593 241.324872 
L 248.916556 240.914885 
L 250.910873 240.538423 
L 252.853383 240.986473 
L 254.746711 242.835675 
L 256.593286 246.811851 
L 258.39536 250.874079 
L 260.155028 253.270226 
L 261.874241 253.903222 
L 263.554816 253.689416 
L 265.198453 253.373994 
L 266.806739 253.79596 
L 268.381165 255.486058 
L 269.923126 258.702227 
L 271.433934 261.73776 
L 272.914823 263.801954 
L 274.366955 264.414657 
L 275.791426 264.310889 
L 277.18927 263.801954 
L 278.561463 264.519106 
L 279.908931 265.943202 
" style="fill:none;stroke:#7f7f7f;stroke-dasharray:3.6,1.5,3.6,1.5,1.5,1.5;stroke-dashoffset:0;stroke-width:1.2;"/>
   </g>
   <g id="line2d_93">
    <path clip-path="url(#p8be0796206)" d="M 61.040172 47.341893 
L 82.553744 57.747163 
L 99.240967 69.534203 
L 112.87542 97.096747 
L 124.403187 111.969375 
L 134.388992 121.252475 
L 143.197097 136.276347 
L 151.076215 157.728082 
L 158.203744 163.955709 
L 164.710669 173.632593 
L 170.696459 186.018063 
L 176.238435 205.373288 
L 181.397891 211.921399 
L 186.22424 223.471499 
L 190.757898 240.238967 
L 195.032345 265.270074 
L 199.075625 272.516582 
L 202.911463 283.453703 
L 206.560111 297.557484 
L 210.038992 316.081176 
" style="fill:none;stroke:#bcbd22;stroke-dasharray:4.8,1.2,1.2,1.2,1.2,1.2;stroke-dashoffset:0;stroke-width:1.2;"/>
   </g>
   <g id="line2d_94"/>
   <g id="line2d_95"/>
   <g id="line2d_96"/>
   <g id="line2d_97"/>
   <g id="line2d_98"/>
   <g id="line2d_99"/>
   <g id="line2d_100"/>
   <g id="line2d_101"/>
   <g id="line2d_102"/>
   <g id="patch_3">
    <path d="M 46.976583 340.130802 
L 46.976583 19.841765 
" style="fill:none;stroke:#cccccc;stroke-linecap:square;stroke-linejoin:miter;"/>
   </g>
   <g id="patch_4">
    <path d="M 46.976583 340.130802 
L 356.375542 340.130802 
" style="fill:none;stroke:#cccccc;stroke-linecap:square;stroke-linejoin:miter;"/>
   </g>
   <g id="text_17">
    <!-- SmoothRunge -->
    <g style="fill:#262626;" transform="translate(171.434488 13.841765)scale(0.096 -0.096)">
     <defs>
      <path d="M 43.796875 67.03125 
C 43.796875 68.8125 43.703125 68.921875 43.09375 68.921875 
C 42.5 68.921875 42.296875 68.515625 41.90625 67.625 
L 38.90625 61.046875 
C 35.09375 66.515625 29.296875 69 23 69 
C 12.796875 69 4.59375 60.953125 4.59375 50.828125 
C 4.59375 47.75 5.296875 43.375 8.703125 39.21875 
C 12.40625 34.65625 15.90625 33.859375 23.90625 31.765625 
C 26.90625 30.96875 31.90625 29.671875 32.90625 29.28125 
C 38.59375 26.90625 41.59375 20.953125 41.59375 15.390625 
C 41.59375 8.234375 36.5 0.59375 27.796875 0.59375 
C 17.09375 0.59375 7.09375 6.546875 6.40625 20.484375 
C 6.296875 22.078125 6.203125 22.171875 5.5 22.171875 
C 4.703125 22.171875 4.59375 22.078125 4.59375 20.078125 
L 4.59375 -0.015625 
C 4.59375 -1.796875 4.703125 -1.90625 5.296875 -1.90625 
C 6 -1.90625 6.203125 -1.40625 7.59375 1.6875 
C 7.703125 1.984375 7.703125 2.1875 9.59375 5.953125 
C 14.59375 -0.609375 23 -2 27.796875 -2 
C 38.703125 -2 46.40625 7.046875 46.40625 17.5625 
C 46.40625 22.71875 44.5 26.6875 43.40625 28.484375 
C 39.203125 34.84375 34.703125 36.03125 29.90625 37.21875 
C 29.203125 37.53125 29 37.53125 23.40625 38.90625 
C 18 40.296875 15.703125 41 13.203125 43.6875 
C 10.40625 46.75 9.40625 49.9375 9.40625 53.109375 
C 9.40625 59.5625 14.59375 66.609375 23.09375 66.609375 
C 33.703125 66.609375 40.296875 59.15625 41.796875 46.765625 
C 42.09375 44.96875 42.203125 44.875 42.90625 44.875 
C 43.796875 44.875 43.796875 45.171875 43.796875 46.859375 
z
" id="CMR17-83"/>
      <path d="M 15.09375 40 
L 29.09375 40 
L 29.09375 42.578125 
L 15.09375 42.578125 
L 15.09375 61 
L 13.296875 61 
C 13.09375 50.703125 9.59375 41.6875 1.09375 41.6875 
L 1.09375 40 
L 9.796875 40 
L 9.796875 12.046875 
C 9.796875 10.15625 9.796875 -1 21.40625 -1 
C 27.296875 -1 30.703125 4.78125 30.703125 12.140625 
L 30.703125 17.8125 
L 28.90625 17.8125 
L 28.90625 12.234375 
C 28.90625 5.375 26.203125 0.796875 22 0.796875 
C 19.09375 0.796875 15.09375 2.78125 15.09375 11.84375 
z
" id="CMR17-116"/>
      <path d="M 41.5 30.203125 
C 41.5 35.296875 40.5 43.59375 28.703125 43.59375 
C 20.5 43.59375 16.5 37 15.296875 33.703125 
L 15.203125 33.703125 
L 15.203125 68.6875 
L 3.296875 67.59375 
L 3.296875 65 
C 9.203125 65 10.09375 64.40625 10.09375 59.640625 
L 10.09375 6.65625 
C 10.09375 2.875 9.703125 2.390625 3.296875 2.390625 
L 3.296875 -0.203125 
C 5.703125 0 10.09375 0 12.703125 0 
C 15.296875 0 19.796875 0 22.203125 -0.203125 
L 22.203125 2.390625 
C 15.796875 2.390625 15.40625 2.78125 15.40625 6.6875 
L 15.40625 25.90625 
C 15.40625 35.109375 21 42 28 42 
C 35.40625 42 36.203125 35.40625 36.203125 30.59375 
L 36.203125 6.6875 
C 36.203125 2.875 35.796875 2.390625 29.40625 2.390625 
L 29.40625 -0.203125 
C 31.796875 0 36.203125 0 38.796875 0 
C 41.40625 0 45.90625 0 48.296875 -0.203125 
L 48.296875 2.390625 
C 41.90625 2.390625 41.5 2.78125 41.5 6.6875 
z
" id="CMR17-104"/>
      <path d="M 39.203125 33.53125 
C 48.703125 35.4375 56.703125 41.8125 56.703125 49.78125 
C 56.703125 59.140625 46.09375 67.59375 32.09375 67.59375 
L 5.203125 67.59375 
L 5.203125 65 
C 12.09375 65 13.203125 65 13.203125 60.515625 
L 13.203125 6.484375 
C 13.203125 2 12.09375 2 5.203125 2 
L 5.203125 -0.40625 
C 8.09375 -0.40625 13.296875 -0.40625 16.40625 -0.40625 
C 19.5 -0.40625 24.703125 -0.40625 27.59375 -0.40625 
L 27.59375 2 
C 20.703125 2 19.59375 2 19.59375 6.515625 
L 19.59375 33 
L 31.296875 33 
C 37 33 40.203125 30.6875 41.59375 29.390625 
C 45.59375 25.5 45.59375 22.796875 45.59375 16 
C 45.59375 9.296875 45.59375 5.890625 48.59375 2.5 
C 52.40625 -1.59375 57.5 -2 59.703125 -2 
C 67.09375 -2 68.203125 6.1875 68.203125 7.859375 
C 68.203125 8.4375 68.203125 9.140625 67.296875 9.140625 
C 66.5 9.140625 66.40625 8.546875 66.40625 8.15625 
C 65.90625 1.75 63 -0.40625 59.90625 -0.40625 
C 54.40625 -0.40625 53.796875 5.859375 53.203125 11.9375 
C 52.90625 14.03125 52.703125 15.515625 52.5 17.703125 
C 51.90625 22.6875 51.09375 29.953125 39.203125 33.53125 
z
M 31 34.59375 
L 19.59375 34.59375 
L 19.59375 61.140625 
C 19.59375 64.515625 19.796875 65 23.796875 65 
L 31.09375 65 
C 39.40625 65 49.09375 62.140625 49.09375 49.84375 
C 49.09375 37.0625 38.5 34.59375 31 34.59375 
z
" id="CMR17-82"/>
      <path d="M 41.5 30.203125 
C 41.5 35.296875 40.5 43.59375 28.703125 43.59375 
C 20.796875 43.59375 16.703125 37.5 15.203125 33.5 
L 15.09375 33.5 
L 15.09375 43.59375 
L 3.296875 42.5 
L 3.296875 39.90625 
C 9.203125 39.90625 10.09375 39.296875 10.09375 34.5 
L 10.09375 6.6875 
C 10.09375 2.875 9.703125 2.390625 3.296875 2.390625 
L 3.296875 -0.203125 
C 5.703125 0 10.09375 0 12.703125 0 
C 15.296875 0 19.796875 0 22.203125 -0.203125 
L 22.203125 2.390625 
C 15.796875 2.390625 15.40625 2.78125 15.40625 6.6875 
L 15.40625 25.90625 
C 15.40625 35.109375 21 42 28 42 
C 35.40625 42 36.203125 35.40625 36.203125 30.59375 
L 36.203125 6.6875 
C 36.203125 2.875 35.796875 2.390625 29.40625 2.390625 
L 29.40625 -0.203125 
C 31.796875 0 36.203125 0 38.796875 0 
C 41.40625 0 45.90625 0 48.296875 -0.203125 
L 48.296875 2.390625 
C 41.90625 2.390625 41.5 2.78125 41.5 6.6875 
z
" id="CMR17-110"/>
      <path d="M 11.09375 18.1875 
C 13 16.6875 16.296875 15 20.296875 15 
C 28.203125 15 35 21.203125 35 29.5 
C 35 32.09375 34.203125 36.09375 31.203125 39.203125 
C 34 42.0625 38.09375 43 40.40625 43 
C 40.796875 43 41.40625 43 41.90625 42.71875 
C 41.5 42.625 40.59375 42.234375 40.59375 40.703125 
C 40.59375 39.484375 41.5 38.609375 42.796875 38.609375 
C 44.296875 38.609375 45.09375 39.578125 45.09375 40.84375 
C 45.09375 42.671875 43.59375 44.59375 40.40625 44.59375 
C 36.40625 44.59375 32.90625 42.78125 30.09375 40.3125 
C 27.09375 43.015625 23.5 44 20.296875 44 
C 12.40625 44 5.59375 37.796875 5.59375 29.5 
C 5.59375 23.78125 8.90625 20.1875 9.90625 19.1875 
C 6.90625 15.6875 6.90625 11.609375 6.90625 11.109375 
C 6.90625 8.515625 7.90625 4.71875 11.296875 2.625 
C 6.09375 1.328125 2 -2.640625 2 -7.59375 
C 2 -14.734375 11.5 -20 22.90625 -20 
C 33.90625 -20 43.796875 -14.9375 43.796875 -7.484375 
C 43.796875 6 29 6 21.296875 6 
C 19 6 14.90625 6 14.40625 6.109375 
C 11.296875 6.609375 9.203125 9.40625 9.203125 12.90625 
C 9.203125 13.796875 9.203125 16 11.09375 18.1875 
z
M 20.296875 16.6875 
C 11.5 16.6875 11.5 27.5 11.5 29.515625 
C 11.5 31.5 11.5 42.3125 20.296875 42.3125 
C 29.09375 42.3125 29.09375 31.5 29.09375 29.515625 
C 29.09375 27.5 29.09375 16.6875 20.296875 16.6875 
z
M 22.90625 -18.296875 
C 12.90625 -18.296875 6 -13.046875 6 -7.59375 
C 6 -4.515625 7.703125 -1.640625 9.90625 -0.0625 
C 12.40625 1.625 13.40625 1.625 20.203125 1.625 
C 28.40625 1.625 39.796875 1.625 39.796875 -7.59375 
C 39.796875 -13.046875 32.90625 -18.296875 22.90625 -18.296875 
z
" id="CMR17-103"/>
      <path d="M 38.09375 23 
C 38.5 23.40625 38.5 23.609375 38.5 24.625 
C 38.5 34.96875 33.09375 44 21.703125 44 
C 11.09375 44 2.703125 33.890625 2.703125 21.609375 
C 2.703125 8.609375 12.203125 -1 22.796875 -1 
C 34 -1 38.40625 9.484375 38.40625 11.5625 
C 38.40625 12.25 37.796875 12.25 37.59375 12.25 
C 36.90625 12.25 36.796875 12.046875 36.40625 10.875 
C 34.203125 4.140625 28.703125 0.796875 23.5 0.796875 
C 19.203125 0.796875 14.90625 3.171875 12.203125 7.5 
C 9.09375 12.546875 9.09375 18.375 9.09375 23 
z
M 9.203125 24.5 
C 9.90625 39.140625 17.59375 42.40625 21.59375 42.40625 
C 28.40625 42.40625 33 35.890625 33.09375 24.5 
z
" id="CMR17-101"/>
     </defs>
     <use transform="scale(0.996264)" xlink:href="#CMR17-83"/>
     <use transform="translate(50.89537 0)scale(0.996264)" xlink:href="#CMR17-109"/>
     <use transform="translate(127.81496 0)scale(0.996264)" xlink:href="#CMR17-111"/>
     <use transform="translate(176.107875 0)scale(0.996264)" xlink:href="#CMR17-111"/>
     <use transform="translate(221.798353 0)scale(0.996264)" xlink:href="#CMR17-116"/>
     <use transform="translate(257.07912 0)scale(0.996264)" xlink:href="#CMR17-104"/>
     <use transform="translate(307.97449 0)scale(0.996264)" xlink:href="#CMR17-82"/>
     <use transform="translate(375.765592 0)scale(0.996264)" xlink:href="#CMR17-117"/>
     <use transform="translate(426.660962 0)scale(0.996264)" xlink:href="#CMR17-110"/>
     <use transform="translate(477.556332 0)scale(0.996264)" xlink:href="#CMR17-103"/>
     <use transform="translate(523.246809 0)scale(0.996264)" xlink:href="#CMR17-101"/>
    </g>
   </g>
  </g>
  <g id="legend_1">
   <g id="text_18">
    <!-- calculator -->
    <g style="fill:#262626;" transform="translate(393.00697 132.54896)scale(0.096 -0.096)">
     <defs>
      <path d="M 34.90625 35 
C 33 35 30.203125 35 30.203125 31.515625 
C 30.203125 28.71875 32.5 27.921875 33.796875 27.921875 
C 34.5 27.921875 37.40625 28.234375 37.40625 31.625 
C 37.40625 38.546875 30.59375 43.796875 22.90625 43.796875 
C 12.296875 43.796875 3.296875 34.03125 3.296875 21.296875 
C 3.296875 8.0625 12.703125 -1 22.90625 -1 
C 35.296875 -1 38.40625 10.578125 38.40625 11.6875 
C 38.40625 12.09375 38.296875 12.390625 37.59375 12.390625 
C 36.90625 12.390625 36.796875 12.296875 36.40625 10.984375 
C 33.796875 2.8125 28.09375 0.796875 23.796875 0.796875 
C 17.40625 0.796875 9.703125 6.671875 9.703125 21.390625 
C 9.703125 36.53125 17.09375 42 23 42 
C 26.90625 42 32.703125 40.203125 34.90625 35 
z
" id="CMR17-99"/>
      <path d="M 15.296875 68.6875 
L 3.40625 67.59375 
L 3.40625 65 
C 9.296875 65 10.203125 64.40625 10.203125 59.640625 
L 10.203125 6.65625 
C 10.203125 2.875 9.796875 2.390625 3.40625 2.390625 
L 3.40625 -0.203125 
C 5.796875 0 10.203125 0 12.703125 0 
C 15.296875 0 19.703125 0 22.09375 -0.203125 
L 22.09375 2.390625 
C 15.703125 2.390625 15.296875 2.78125 15.296875 6.65625 
z
" id="CMR17-108"/>
     </defs>
     <use transform="scale(0.996264)" xlink:href="#CMR17-99"/>
     <use transform="translate(40.48566 0)scale(0.996264)" xlink:href="#CMR17-97"/>
     <use transform="translate(86.176138 0)scale(0.996264)" xlink:href="#CMR17-108"/>
     <use transform="translate(111.047196 0)scale(0.996264)" xlink:href="#CMR17-99"/>
     <use transform="translate(151.532857 0)scale(0.996264)" xlink:href="#CMR17-117"/>
     <use transform="translate(202.428226 0)scale(0.996264)" xlink:href="#CMR17-108"/>
     <use transform="translate(227.299285 0)scale(0.996264)" xlink:href="#CMR17-97"/>
     <use transform="translate(272.989762 0)scale(0.996264)" xlink:href="#CMR17-116"/>
     <use transform="translate(308.27053 0)scale(0.996264)" xlink:href="#CMR17-111"/>
     <use transform="translate(353.961007 0)scale(0.996264)" xlink:href="#CMR17-114"/>
    </g>
   </g>
   <g id="line2d_103">
    <path d="M 362.987056 142.552085 
L 380.587056 142.552085 
" style="fill:none;stroke:#1f77b4;stroke-linecap:round;stroke-width:1.2;"/>
   </g>
   <g id="line2d_104"/>
   <g id="text_19">
    <!-- CPUBicubicQuad -->
    <g style="fill:#262626;" transform="translate(387.627056 145.632085)scale(0.088 -0.088)">
     <defs>
      <path d="M 62.09375 67.015625 
C 62.09375 68.796875 62 68.90625 61.40625 68.90625 
C 61 68.90625 60.90625 68.796875 60.203125 67.609375 
L 55.796875 59.25 
C 50.90625 65.421875 44.90625 69 37.203125 69 
C 20.09375 69 4.59375 54 4.59375 33.5625 
C 4.59375 12.90625 20.09375 -2 37.296875 -2 
C 52.59375 -2 62.09375 11.40625 62.09375 22.828125 
C 62.09375 23.8125 62.09375 24.21875 61.203125 24.21875 
C 60.40625 24.21875 60.40625 23.921875 60.296875 23.03125 
C 59.5 9.140625 49.5 0.59375 38.703125 0.59375 
C 28.5 0.59375 12.203125 7.734375 12.203125 33.546875 
C 12.203125 59.453125 28.796875 66.40625 38.5 66.40625 
C 49.796875 66.40625 58 56.6875 59.90625 42.890625 
C 60.09375 41.6875 60.09375 41.484375 61 41.484375 
C 62.09375 41.484375 62.09375 41.6875 62.09375 43.484375 
z
" id="CMR17-67"/>
      <path d="M 19.796875 31.90625 
L 35.796875 31.90625 
C 48.703125 31.90625 58.09375 40.28125 58.09375 49.75 
C 58.09375 59.234375 48.90625 68 35.796875 68 
L 5.203125 68 
L 5.203125 65.40625 
C 12.09375 65.40625 13.203125 65.40625 13.203125 60.921875 
L 13.203125 6.96875 
C 13.203125 2.5 12.09375 2.5 5.203125 2.5 
L 5.203125 0 
C 8.09375 0 13.40625 0 16.5 0 
C 19.59375 0 24.90625 0 27.796875 0 
L 27.796875 2.5 
C 20.90625 2.5 19.796875 2.5 19.796875 6.96875 
z
M 19.59375 34 
L 19.59375 61.53125 
C 19.59375 64.921875 19.796875 65.40625 23.796875 65.40625 
L 33.90625 65.40625 
C 46.796875 65.40625 50.5 58.03125 50.5 49.75 
C 50.5 40.6875 46.09375 34 33.90625 34 
z
" id="CMR17-80"/>
      <path d="M 54 22.390625 
C 54 9.046875 45.296875 0.59375 35.796875 0.59375 
C 30.703125 0.59375 26.09375 3.28125 23.296875 7.453125 
C 20.09375 12.234375 19.703125 18.40625 19.703125 21.890625 
L 19.703125 60.53125 
C 19.703125 65 20.796875 65 27.703125 65 
L 27.703125 67.5 
C 24.796875 67.5 19.5 67.5 16.40625 67.5 
C 13.296875 67.5 8 67.5 5.09375 67.5 
L 5.09375 65 
C 12 65 13.09375 65 13.09375 60.53125 
L 13.09375 22.390625 
C 13.09375 8.0625 24 -2 35.59375 -2 
C 48.59375 -2 56.09375 11.234375 56.09375 21 
L 56.09375 58.84375 
C 56.09375 64.40625 61.203125 65 64.09375 65 
L 64.09375 67.59375 
C 61.796875 67.5 57.59375 67.5 55.09375 67.5 
C 52.59375 67.5 48.296875 67.5 46 67.59375 
L 46 65 
C 54 65 54 60.328125 54 57.84375 
z
" id="CMR17-85"/>
      <path d="M 5.203125 68 
L 5.203125 65.40625 
C 12.09375 65.40625 13.203125 65.40625 13.203125 60.9375 
L 13.203125 7.0625 
C 13.203125 2.59375 12.09375 2.59375 5.203125 2.59375 
L 5.203125 0 
L 39.59375 0 
C 52.40625 0 60.703125 9.109375 60.703125 18.1875 
C 60.703125 27.203125 52.5 34.890625 41.796875 34.890625 
C 51.40625 36.8125 58.09375 43.296875 58.09375 51 
C 58.09375 59.40625 49.90625 68 37 68 
z
M 19.5 36 
L 19.5 61.515625 
C 19.5 64.921875 19.703125 65.40625 23.703125 65.40625 
L 36.5 65.40625 
C 46.40625 65.40625 50.796875 57.40625 50.796875 51.203125 
C 50.796875 43.609375 44.703125 36 33.90625 36 
z
M 23.703125 2.59375 
C 19.703125 2.59375 19.5 3.078125 19.5 6.453125 
L 19.5 34.40625 
L 38 34.40625 
C 48.296875 34.40625 53.296875 25.390625 53.296875 18.15625 
C 53.296875 10.921875 47.59375 2.59375 36.703125 2.59375 
z
" id="CMR17-66"/>
      <path d="M 15 68.6875 
L 3.09375 67.59375 
L 3.09375 65 
C 9 65 9.90625 64.40625 9.90625 59.640625 
L 9.90625 -0.203125 
L 11.703125 -0.203125 
L 14.59375 6.890625 
C 17.5 2.203125 21.796875 -1 27.59375 -1 
C 37.59375 -1 47.703125 7.8125 47.703125 21.40625 
C 47.703125 34.1875 38.703125 43.59375 28.59375 43.59375 
C 22.40625 43.59375 18 40.296875 15 36.40625 
z
M 15.203125 31.3125 
C 15.203125 33.09375 15.203125 33.40625 16.59375 35.5 
C 20.5 41.515625 26.09375 42 28 42 
C 31 42 41.296875 40.390625 41.296875 21.5 
C 41.296875 1.6875 29.5 0.59375 27.09375 0.59375 
C 24 0.59375 19.5 1.78125 16.296875 7.59375 
C 15.203125 9.5 15.203125 9.703125 15.203125 11.484375 
z
" id="CMR17-98"/>
      <path d="M 47.296875 1.296875 
C 59.203125 6.375 67.296875 19.3125 67.296875 34.265625 
C 67.296875 54.671875 52.59375 70 36 70 
C 19 70 4.59375 54.5 4.59375 34.359375 
C 4.59375 14.5 19 -1 36 -1 
C 38.296875 -1 41.5 -0.703125 45.296875 0.59375 
C 47 -11.671875 48.09375 -19 56.703125 -19 
C 67.296875 -19 67.796875 -3.328125 67.796875 -0.515625 
C 67.796875 0.5 67.796875 1.1875 67.09375 1.1875 
C 66.59375 1.1875 66.5 0.484375 66.5 0.28125 
C 65.796875 -9.421875 60.40625 -11.4375 57.203125 -11.4375 
C 51.296875 -11.4375 49.203125 -6.15625 47.296875 1.296875 
z
M 30.59375 1.5625 
C 20.203125 4.84375 12 15.890625 12 34.359375 
C 12 57.984375 25.09375 68.203125 35.90625 68.203125 
C 47.09375 68.203125 59.90625 57.59375 59.90625 34.34375 
C 59.90625 17.5625 53.203125 8.234375 46.5 3.96875 
C 45 9.046875 42.59375 15 36.09375 15 
C 31.296875 15 28.59375 10.8125 28.59375 7.03125 
C 28.59375 4.75 29.5 2.859375 30.59375 1.5625 
z
M 44.90625 3 
C 40.90625 0.890625 37.703125 0.890625 36 0.890625 
C 31.5 0.890625 30.203125 4.921875 30.203125 7.09375 
C 30.203125 10.15625 32.296875 13.40625 36.09375 13.40625 
C 42.5 13.40625 44.09375 7.703125 44.90625 3 
z
" id="CMR17-81"/>
      <path d="M 29.203125 67.59375 
L 29.203125 65 
C 35.09375 65 36 64.40625 36 59.6875 
L 36 36.640625 
C 35.59375 37.140625 31.5 43.59375 23.40625 43.59375 
C 13.203125 43.59375 3.296875 34.5 3.296875 21.3125 
C 3.296875 8.203125 12.59375 -1 22.40625 -1 
C 30.90625 -1 35.296875 5.265625 35.796875 5.9375 
L 35.796875 -0.984375 
L 47.90625 -0.984375 
L 47.90625 2 
C 42 2 41.09375 2.59375 41.09375 7.390625 
L 41.09375 68.6875 
z
M 35.796875 11.796875 
C 35.796875 8.796875 34 6.09375 31.703125 4.09375 
C 28.296875 1.09375 24.90625 0.59375 23 0.59375 
C 20.09375 0.59375 9.703125 2.09375 9.703125 21.1875 
C 9.703125 40.8125 21.296875 42 23.90625 42 
C 28.5 42 32.203125 39.40625 34.5 35.796875 
C 35.796875 33.703125 35.796875 33.40625 35.796875 31.609375 
z
" id="CMR17-100"/>
     </defs>
     <use transform="scale(0.996264)" xlink:href="#CMR17-67"/>
     <use transform="translate(66.509881 0)scale(0.996264)" xlink:href="#CMR17-80"/>
     <use transform="translate(129.096181 0)scale(0.996264)" xlink:href="#CMR17-85"/>
     <use transform="translate(198.168611 0)scale(0.996264)" xlink:href="#CMR17-66"/>
     <use transform="translate(263.357365 0)scale(0.996264)" xlink:href="#CMR17-105"/>
     <use transform="translate(288.228424 0)scale(0.996264)" xlink:href="#CMR17-99"/>
     <use transform="translate(328.714084 0)scale(0.996264)" xlink:href="#CMR17-117"/>
     <use transform="translate(379.609454 0)scale(0.996264)" xlink:href="#CMR17-98"/>
     <use transform="translate(430.504824 0)scale(0.996264)" xlink:href="#CMR17-105"/>
     <use transform="translate(455.375882 0)scale(0.996264)" xlink:href="#CMR17-99"/>
     <use transform="translate(495.861543 0)scale(0.996264)" xlink:href="#CMR17-81"/>
     <use transform="translate(567.576331 0)scale(0.996264)" xlink:href="#CMR17-117"/>
     <use transform="translate(618.471701 0)scale(0.996264)" xlink:href="#CMR17-97"/>
     <use transform="translate(664.162178 0)scale(0.996264)" xlink:href="#CMR17-100"/>
    </g>
   </g>
   <g id="line2d_105">
    <path d="M 362.987056 155.468835 
L 380.587056 155.468835 
" style="fill:none;stroke:#ff7f0e;stroke-dasharray:4.8,1.8;stroke-dashoffset:0;stroke-width:1.2;"/>
   </g>
   <g id="line2d_106"/>
   <g id="text_20">
    <!-- CPUBicubicSparse -->
    <g style="fill:#262626;" transform="translate(387.627056 158.548835)scale(0.088 -0.088)">
     <defs>
      <path d="M 22 -16.609375 
C 15.59375 -16.609375 15.203125 -16.203125 15.203125 -12.328125 
L 15.203125 6.28125 
C 18.09375 2.09375 22.296875 -0.59375 27.59375 -0.59375 
C 37.59375 -0.59375 47.703125 8.171875 47.703125 21.6875 
C 47.703125 34.234375 39 43.78125 28.703125 43.78125 
C 22.703125 43.78125 17.796875 40.5 15 36.53125 
L 15 43.78125 
L 3.09375 42.6875 
L 3.09375 40.109375 
C 9 40.109375 9.90625 39.5 9.90625 34.734375 
L 9.90625 -12.328125 
C 9.90625 -16.109375 9.5 -16.609375 3.09375 -16.609375 
L 3.09375 -19.1875 
C 5.5 -19 9.90625 -19 12.5 -19 
C 15.09375 -19 19.59375 -19 22 -19.1875 
z
M 15.203125 31.4375 
C 15.203125 32.84375 15.203125 34.921875 19.09375 38.609375 
C 19.59375 39.015625 23 42 28 42 
C 35.296875 42 41.296875 32.9375 41.296875 21.59375 
C 41.296875 10.25 34.90625 1 27 1 
C 23.40625 1 19.5 2.6875 16.5 7.375 
C 15.203125 9.5625 15.203125 10.15625 15.203125 11.75 
z
" id="CMR17-112"/>
      <path d="M 30.90625 42.140625 
C 30.90625 43.953125 30.796875 44.046875 30.203125 44.046875 
C 29.796875 44.046875 29.703125 43.953125 28.5 42.453125 
C 28.203125 42.046875 27.296875 41.03125 27 40.640625 
C 23.796875 44.046875 19.296875 44.046875 17.59375 44.046875 
C 6.5 44.046875 2.5 38.234375 2.5 32.4375 
C 2.5 23.40625 12.703125 21.328125 15.59375 20.703125 
C 21.90625 19.421875 24.09375 19.015625 26.203125 17.203125 
C 27.5 16.015625 29.703125 13.8125 29.703125 10.21875 
C 29.703125 6 27.296875 0.59375 18.09375 0.59375 
C 9.40625 0.59375 6.296875 7.1875 4.5 15.953125 
C 4.203125 17.34375 4.203125 17.453125 3.40625 17.453125 
C 2.59375 17.453125 2.5 17.34375 2.5 15.359375 
L 2.5 0.984375 
C 2.5 -0.796875 2.59375 -0.90625 3.203125 -0.90625 
C 3.703125 -0.90625 3.796875 -0.796875 4.296875 0 
C 4.90625 0.890625 6.40625 3.296875 7 4.3125 
C 9 1.609375 12.5 -1 18.09375 -1 
C 28 -1 33.296875 4.421875 33.296875 12.25 
C 33.296875 17.375 30.59375 20.078125 29.296875 21.28125 
C 26.296875 24.390625 22.796875 25.09375 18.59375 25.890625 
C 13.09375 27.109375 6.09375 28.515625 6.09375 34.640625 
C 6.09375 37.234375 7.5 42.765625 17.59375 42.765625 
C 28.296875 42.765625 28.90625 32.71875 29.09375 29.5 
C 29.203125 29 29.703125 28.890625 30 28.890625 
C 30.90625 28.890625 30.90625 29.203125 30.90625 30.90625 
z
" id="CMR17-115"/>
     </defs>
     <use transform="scale(0.996264)" xlink:href="#CMR17-67"/>
     <use transform="translate(66.509881 0)scale(0.996264)" xlink:href="#CMR17-80"/>
     <use transform="translate(129.096181 0)scale(0.996264)" xlink:href="#CMR17-85"/>
     <use transform="translate(198.168611 0)scale(0.996264)" xlink:href="#CMR17-66"/>
     <use transform="translate(263.357365 0)scale(0.996264)" xlink:href="#CMR17-105"/>
     <use transform="translate(288.228424 0)scale(0.996264)" xlink:href="#CMR17-99"/>
     <use transform="translate(328.714084 0)scale(0.996264)" xlink:href="#CMR17-117"/>
     <use transform="translate(379.609454 0)scale(0.996264)" xlink:href="#CMR17-98"/>
     <use transform="translate(430.504824 0)scale(0.996264)" xlink:href="#CMR17-105"/>
     <use transform="translate(455.375882 0)scale(0.996264)" xlink:href="#CMR17-99"/>
     <use transform="translate(495.861543 0)scale(0.996264)" xlink:href="#CMR17-83"/>
     <use transform="translate(546.756913 0)scale(0.996264)" xlink:href="#CMR17-112"/>
     <use transform="translate(597.652282 0)scale(0.996264)" xlink:href="#CMR17-97"/>
     <use transform="translate(643.342759 0)scale(0.996264)" xlink:href="#CMR17-114"/>
     <use transform="translate(678.623527 0)scale(0.996264)" xlink:href="#CMR17-115"/>
     <use transform="translate(714.424865 0)scale(0.996264)" xlink:href="#CMR17-101"/>
    </g>
   </g>
   <g id="line2d_107">
    <path d="M 362.987056 168.385585 
L 380.587056 168.385585 
" style="fill:none;stroke:#2ca02c;stroke-dasharray:1.2,1.2;stroke-dashoffset:0;stroke-width:1.2;"/>
   </g>
   <g id="line2d_108"/>
   <g id="text_21">
    <!-- CPULinearQuad -->
    <g style="fill:#262626;" transform="translate(387.627056 171.465585)scale(0.088 -0.088)">
     <defs>
      <path d="M 54.203125 25.234375 
L 52.40625 25.234375 
C 51.59375 15.359375 50.296875 2.59375 33.203125 2.59375 
L 23.90625 2.59375 
C 19.90625 2.59375 19.703125 3.078125 19.703125 6.46875 
L 19.703125 60.90625 
C 19.703125 64.515625 19.90625 65.5 27.5 65.5 
L 29.703125 65.5 
L 29.703125 68 
C 25.59375 68 20.796875 68 16.703125 68 
C 13.59375 68 8 68 5.09375 68 
L 5.09375 65.5 
C 12 65.5 13.09375 65.5 13.09375 61.015625 
L 13.09375 7.0625 
C 13.09375 2.59375 12 2.59375 5.09375 2.59375 
L 5.09375 0 
L 51.796875 0 
z
" id="CMR17-76"/>
     </defs>
     <use transform="scale(0.996264)" xlink:href="#CMR17-67"/>
     <use transform="translate(66.509881 0)scale(0.996264)" xlink:href="#CMR17-80"/>
     <use transform="translate(129.096181 0)scale(0.996264)" xlink:href="#CMR17-85"/>
     <use transform="translate(198.168611 0)scale(0.996264)" xlink:href="#CMR17-76"/>
     <use transform="translate(255.550019 0)scale(0.996264)" xlink:href="#CMR17-105"/>
     <use transform="translate(280.421077 0)scale(0.996264)" xlink:href="#CMR17-110"/>
     <use transform="translate(331.316447 0)scale(0.996264)" xlink:href="#CMR17-101"/>
     <use transform="translate(371.802107 0)scale(0.996264)" xlink:href="#CMR17-97"/>
     <use transform="translate(417.492585 0)scale(0.996264)" xlink:href="#CMR17-114"/>
     <use transform="translate(452.773352 0)scale(0.996264)" xlink:href="#CMR17-81"/>
     <use transform="translate(524.488141 0)scale(0.996264)" xlink:href="#CMR17-117"/>
     <use transform="translate(575.383511 0)scale(0.996264)" xlink:href="#CMR17-97"/>
     <use transform="translate(621.073988 0)scale(0.996264)" xlink:href="#CMR17-100"/>
    </g>
   </g>
   <g id="line2d_109">
    <path d="M 362.987056 181.302335 
L 380.587056 181.302335 
" style="fill:none;stroke:#d62728;stroke-dasharray:3.6,1.5,1.8,1.5;stroke-dashoffset:0;stroke-width:1.2;"/>
   </g>
   <g id="line2d_110"/>
   <g id="text_22">
    <!-- CPUDCTPadded -->
    <g style="fill:#262626;" transform="translate(387.627056 184.382335)scale(0.088 -0.088)">
     <defs>
      <path d="M 5.203125 68 
L 5.203125 65.40625 
C 12.09375 65.40625 13.203125 65.40625 13.203125 60.9375 
L 13.203125 7.0625 
C 13.203125 2.59375 12.09375 2.59375 5.203125 2.59375 
L 5.203125 0 
L 37 0 
C 53.09375 0 66 14.734375 66 33.453125 
C 66 52.28125 53.296875 68 37 68 
z
M 23.796875 2.59375 
C 19.796875 2.59375 19.59375 3.078125 19.59375 6.46875 
L 19.59375 61.53125 
C 19.59375 64.921875 19.796875 65.40625 23.796875 65.40625 
L 35 65.40625 
C 43.296875 65.40625 58.59375 60.53125 58.59375 33.453125 
C 58.59375 19.40625 54.5 13.734375 52.59375 11.046875 
C 50.203125 7.96875 44.5 2.59375 35 2.59375 
z
" id="CMR17-68"/>
      <path d="M 62.203125 67.59375 
L 4.5 67.59375 
L 2.796875 45.59375 
L 4.59375 45.59375 
C 5.90625 62.125 7.296875 65 22.703125 65 
C 24.5 65 27.40625 65 28.203125 64.90625 
C 30.09375 64.609375 30.09375 63.40625 30.09375 61.125 
L 30.09375 7.171875 
C 30.09375 3.59375 29.796875 2.5 21.5 2.5 
L 18.703125 2.5 
L 18.703125 0 
C 23.5 0 28.5 0 33.40625 0 
C 38.296875 0 43.296875 0 48.09375 0 
L 48.09375 2.5 
L 45.296875 2.5 
C 37 2.5 36.703125 3.59375 36.703125 7.171875 
L 36.703125 61.125 
C 36.703125 63.3125 36.703125 64.515625 38.5 64.90625 
C 39.296875 65 42.203125 65 44 65 
C 59.296875 65 60.796875 62.125 62.09375 45.59375 
L 63.90625 45.59375 
z
" id="CMR17-84"/>
     </defs>
     <use transform="scale(0.996264)" xlink:href="#CMR17-67"/>
     <use transform="translate(66.509881 0)scale(0.996264)" xlink:href="#CMR17-80"/>
     <use transform="translate(129.096181 0)scale(0.996264)" xlink:href="#CMR17-85"/>
     <use transform="translate(198.168611 0)scale(0.996264)" xlink:href="#CMR17-68"/>
     <use transform="translate(268.562167 0)scale(0.996264)" xlink:href="#CMR17-67"/>
     <use transform="translate(335.072047 0)scale(0.996264)" xlink:href="#CMR17-84"/>
     <use transform="translate(401.581928 0)scale(0.996264)" xlink:href="#CMR17-80"/>
     <use transform="translate(461.565774 0)scale(0.996264)" xlink:href="#CMR17-97"/>
     <use transform="translate(507.256252 0)scale(0.996264)" xlink:href="#CMR17-100"/>
     <use transform="translate(558.151621 0)scale(0.996264)" xlink:href="#CMR17-100"/>
     <use transform="translate(609.046991 0)scale(0.996264)" xlink:href="#CMR17-101"/>
     <use transform="translate(649.532652 0)scale(0.996264)" xlink:href="#CMR17-100"/>
    </g>
   </g>
   <g id="line2d_111">
    <path d="M 362.987056 194.219085 
L 380.587056 194.219085 
" style="fill:none;stroke:#9467bd;stroke-dasharray:6,1.2,1.2,1.2;stroke-dashoffset:0;stroke-width:1.2;"/>
   </g>
   <g id="line2d_112"/>
   <g id="text_23">
    <!-- CPUChebDense -->
    <g style="fill:#262626;" transform="translate(387.627056 197.299085)scale(0.088 -0.088)">
     <use transform="scale(0.996264)" xlink:href="#CMR17-67"/>
     <use transform="translate(66.509881 0)scale(0.996264)" xlink:href="#CMR17-80"/>
     <use transform="translate(129.096181 0)scale(0.996264)" xlink:href="#CMR17-85"/>
     <use transform="translate(198.168611 0)scale(0.996264)" xlink:href="#CMR17-67"/>
     <use transform="translate(264.678491 0)scale(0.996264)" xlink:href="#CMR17-104"/>
     <use transform="translate(315.573861 0)scale(0.996264)" xlink:href="#CMR17-101"/>
     <use transform="translate(356.059522 0)scale(0.996264)" xlink:href="#CMR17-98"/>
     <use transform="translate(406.954891 0)scale(0.996264)" xlink:href="#CMR17-68"/>
     <use transform="translate(477.348447 0)scale(0.996264)" xlink:href="#CMR17-101"/>
     <use transform="translate(517.834108 0)scale(0.996264)" xlink:href="#CMR17-110"/>
     <use transform="translate(568.729478 0)scale(0.996264)" xlink:href="#CMR17-115"/>
     <use transform="translate(604.530815 0)scale(0.996264)" xlink:href="#CMR17-101"/>
    </g>
   </g>
   <g id="line2d_113">
    <path d="M 362.987056 207.135835 
L 380.587056 207.135835 
" style="fill:none;stroke:#8c564b;stroke-dasharray:3.6,1.5,1.5,1.5,1.5,1.5;stroke-dashoffset:0;stroke-width:1.2;"/>
   </g>
   <g id="line2d_114"/>
   <g id="text_24">
    <!-- CPULinearSparse -->
    <g style="fill:#262626;" transform="translate(387.627056 210.215835)scale(0.088 -0.088)">
     <use transform="scale(0.996264)" xlink:href="#CMR17-67"/>
     <use transform="translate(66.509881 0)scale(0.996264)" xlink:href="#CMR17-80"/>
     <use transform="translate(129.096181 0)scale(0.996264)" xlink:href="#CMR17-85"/>
     <use transform="translate(198.168611 0)scale(0.996264)" xlink:href="#CMR17-76"/>
     <use transform="translate(255.550019 0)scale(0.996264)" xlink:href="#CMR17-105"/>
     <use transform="translate(280.421077 0)scale(0.996264)" xlink:href="#CMR17-110"/>
     <use transform="translate(331.316447 0)scale(0.996264)" xlink:href="#CMR17-101"/>
     <use transform="translate(371.802107 0)scale(0.996264)" xlink:href="#CMR17-97"/>
     <use transform="translate(417.492585 0)scale(0.996264)" xlink:href="#CMR17-114"/>
     <use transform="translate(452.773352 0)scale(0.996264)" xlink:href="#CMR17-83"/>
     <use transform="translate(503.668722 0)scale(0.996264)" xlink:href="#CMR17-112"/>
     <use transform="translate(554.564092 0)scale(0.996264)" xlink:href="#CMR17-97"/>
     <use transform="translate(600.254569 0)scale(0.996264)" xlink:href="#CMR17-114"/>
     <use transform="translate(635.535337 0)scale(0.996264)" xlink:href="#CMR17-115"/>
     <use transform="translate(671.336674 0)scale(0.996264)" xlink:href="#CMR17-101"/>
    </g>
   </g>
   <g id="line2d_115">
    <path d="M 362.987056 220.052585 
L 380.587056 220.052585 
" style="fill:none;stroke:#e377c2;stroke-dasharray:4.8,1.2,4.8,1.2,1.2,1.2;stroke-dashoffset:0;stroke-width:1.2;"/>
   </g>
   <g id="line2d_116"/>
   <g id="text_25">
    <!-- GPULinearSparse -->
    <g style="fill:#262626;" transform="translate(387.627056 223.132585)scale(0.088 -0.088)">
     <defs>
      <path d="M 62.09375 19.265625 
C 62.09375 23.015625 62.40625 23.515625 68.59375 23.515625 
L 68.59375 26.09375 
C 66.203125 26 60.796875 26 58.09375 26 
C 55.296875 26 47.5 26 43.703125 26 
L 43.703125 23.515625 
L 46.703125 23.515625 
C 55.296875 23.515625 55.5 22.40625 55.5 18.765625 
L 55.5 12.09375 
C 55.5 0.984375 42.5 0.984375 39.40625 0.984375 
C 29.09375 0.984375 12.203125 7.984375 12.203125 33.75 
C 12.203125 59.5 28.796875 66.40625 38.5 66.40625 
C 49.796875 66.40625 58 56.65625 59.90625 42.828125 
C 60.09375 41.625 60.09375 41.421875 61 41.421875 
C 62.09375 41.421875 62.09375 41.625 62.09375 43.421875 
L 62.09375 67 
C 62.09375 68.78125 62 68.890625 61.40625 68.890625 
C 61 68.890625 60.90625 68.78125 60.203125 67.59375 
L 55.796875 59.234375 
C 50.90625 65.421875 44.90625 69 37.203125 69 
C 20.09375 69 4.59375 54 4.59375 33.5625 
C 4.59375 13.203125 19.796875 -2 37.40625 -2 
C 45.5 -2 53.40625 0.875 56.5 6.515625 
C 58.203125 2.46875 61 -0.3125 61.5 -0.3125 
C 62 -0.3125 62.09375 -0.203125 62.09375 1.5625 
z
" id="CMR17-71"/>
     </defs>
     <use transform="scale(0.996264)" xlink:href="#CMR17-71"/>
     <use transform="translate(72.355346 0)scale(0.996264)" xlink:href="#CMR17-80"/>
     <use transform="translate(134.941646 0)scale(0.996264)" xlink:href="#CMR17-85"/>
     <use transform="translate(204.014076 0)scale(0.996264)" xlink:href="#CMR17-76"/>
     <use transform="translate(261.395484 0)scale(0.996264)" xlink:href="#CMR17-105"/>
     <use transform="translate(286.266543 0)scale(0.996264)" xlink:href="#CMR17-110"/>
     <use transform="translate(337.161912 0)scale(0.996264)" xlink:href="#CMR17-101"/>
     <use transform="translate(377.647573 0)scale(0.996264)" xlink:href="#CMR17-97"/>
     <use transform="translate(423.33805 0)scale(0.996264)" xlink:href="#CMR17-114"/>
     <use transform="translate(458.618818 0)scale(0.996264)" xlink:href="#CMR17-83"/>
     <use transform="translate(509.514188 0)scale(0.996264)" xlink:href="#CMR17-112"/>
     <use transform="translate(560.409557 0)scale(0.996264)" xlink:href="#CMR17-97"/>
     <use transform="translate(606.100034 0)scale(0.996264)" xlink:href="#CMR17-114"/>
     <use transform="translate(641.380802 0)scale(0.996264)" xlink:href="#CMR17-115"/>
     <use transform="translate(677.18214 0)scale(0.996264)" xlink:href="#CMR17-101"/>
    </g>
   </g>
   <g id="line2d_117">
    <path d="M 362.987056 232.969335 
L 380.587056 232.969335 
" style="fill:none;stroke:#7f7f7f;stroke-dasharray:3.6,1.5,3.6,1.5,1.5,1.5;stroke-dashoffset:0;stroke-width:1.2;"/>
   </g>
   <g id="line2d_118"/>
   <g id="text_26">
    <!-- GPUBicubicSparse -->
    <g style="fill:#262626;" transform="translate(387.627056 236.049335)scale(0.088 -0.088)">
     <use transform="scale(0.996264)" xlink:href="#CMR17-71"/>
     <use transform="translate(72.355346 0)scale(0.996264)" xlink:href="#CMR17-80"/>
     <use transform="translate(134.941646 0)scale(0.996264)" xlink:href="#CMR17-85"/>
     <use transform="translate(204.014076 0)scale(0.996264)" xlink:href="#CMR17-66"/>
     <use transform="translate(269.202831 0)scale(0.996264)" xlink:href="#CMR17-105"/>
     <use transform="translate(294.073889 0)scale(0.996264)" xlink:href="#CMR17-99"/>
     <use transform="translate(334.55955 0)scale(0.996264)" xlink:href="#CMR17-117"/>
     <use transform="translate(385.454919 0)scale(0.996264)" xlink:href="#CMR17-98"/>
     <use transform="translate(436.350289 0)scale(0.996264)" xlink:href="#CMR17-105"/>
     <use transform="translate(461.221348 0)scale(0.996264)" xlink:href="#CMR17-99"/>
     <use transform="translate(501.707008 0)scale(0.996264)" xlink:href="#CMR17-83"/>
     <use transform="translate(552.602378 0)scale(0.996264)" xlink:href="#CMR17-112"/>
     <use transform="translate(603.497748 0)scale(0.996264)" xlink:href="#CMR17-97"/>
     <use transform="translate(649.188225 0)scale(0.996264)" xlink:href="#CMR17-114"/>
     <use transform="translate(684.468993 0)scale(0.996264)" xlink:href="#CMR17-115"/>
     <use transform="translate(720.27033 0)scale(0.996264)" xlink:href="#CMR17-101"/>
    </g>
   </g>
   <g id="line2d_119">
    <path d="M 362.987056 245.886085 
L 380.587056 245.886085 
" style="fill:none;stroke:#bcbd22;stroke-dasharray:4.8,1.2,1.2,1.2,1.2,1.2;stroke-dashoffset:0;stroke-width:1.2;"/>
   </g>
   <g id="line2d_120"/>
   <g id="text_27">
    <!-- GPUChebDense -->
    <g style="fill:#262626;" transform="translate(387.627056 248.966085)scale(0.088 -0.088)">
     <use transform="scale(0.996264)" xlink:href="#CMR17-71"/>
     <use transform="translate(72.355346 0)scale(0.996264)" xlink:href="#CMR17-80"/>
     <use transform="translate(134.941646 0)scale(0.996264)" xlink:href="#CMR17-85"/>
     <use transform="translate(204.014076 0)scale(0.996264)" xlink:href="#CMR17-67"/>
     <use transform="translate(270.523957 0)scale(0.996264)" xlink:href="#CMR17-104"/>
     <use transform="translate(321.419327 0)scale(0.996264)" xlink:href="#CMR17-101"/>
     <use transform="translate(361.904987 0)scale(0.996264)" xlink:href="#CMR17-98"/>
     <use transform="translate(412.800357 0)scale(0.996264)" xlink:href="#CMR17-68"/>
     <use transform="translate(483.193913 0)scale(0.996264)" xlink:href="#CMR17-101"/>
     <use transform="translate(523.679573 0)scale(0.996264)" xlink:href="#CMR17-110"/>
     <use transform="translate(574.574943 0)scale(0.996264)" xlink:href="#CMR17-115"/>
     <use transform="translate(610.376281 0)scale(0.996264)" xlink:href="#CMR17-101"/>
    </g>
   </g>
  </g>
 </g>
 <defs>
  <clipPath id="p8be0796206">
   <rect height="320.289037" width="309.398958" x="46.976583" y="19.841765"/>
  </clipPath>
 </defs>
</svg>
