<?xml version="1.0" encoding="utf-8" standalone="no"?>
<!DOCTYPE svg PUBLIC "-//W3C//DTD SVG 1.1//EN"
  "http://www.w3.org/Graphics/SVG/1.1/DTD/svg11.dtd">
<!-- Created with matplotlib (https://matplotlib.org/) -->
<svg height="378.807225pt" version="1.1" viewBox="0 0 479.088229 378.807225" width="479.088229pt" xmlns="http://www.w3.org/2000/svg" xmlns:xlink="http://www.w3.org/1999/xlink">
 <metadata>
  <rdf:RDF xmlns:cc="http://creativecommons.org/ns#" xmlns:dc="http://purl.org/dc/elements/1.1/" xmlns:rdf="http://www.w3.org/1999/02/22-rdf-syntax-ns#">
   <cc:Work>
    <dc:type rdf:resource="http://purl.org/dc/dcmitype/StillImage"/>
    <dc:date>2021-01-26T03:13:39.036351</dc:date>
    <dc:format>image/svg+xml</dc:format>
    <dc:creator>
     <cc:Agent>
      <dc:title>Matplotlib v3.3.3, https://matplotlib.org/</dc:title>
     </cc:Agent>
    </dc:creator>
   </cc:Work>
  </rdf:RDF>
 </metadata>
 <defs>
  <style type="text/css">*{stroke-linecap:butt;stroke-linejoin:round;}</style>
 </defs>
 <g id="figure_1">
  <g id="patch_1">
   <path d="M 0 378.807225 
L 479.088229 378.807225 
L 479.088229 0 
L 0 0 
z
" style="fill:#ffffff;"/>
  </g>
  <g id="axes_1">
   <g id="patch_2">
    <path d="M 46.976583 343.012769 
L 362.445316 343.012769 
L 362.445316 19.841765 
L 46.976583 19.841765 
z
" style="fill:#ffffff;"/>
   </g>
   <g id="matplotlib.axis_1">
    <g id="xtick_1">
     <g id="line2d_1">
      <path clip-path="url(#pbf69f419e0)" d="M 83.251695 343.012769 
L 83.251695 19.841765 
" style="fill:none;stroke:#cccccc;stroke-linecap:round;stroke-width:0.8;"/>
     </g>
     <g id="text_1">
      <!-- $\mathdefault{16}$ -->
      <g style="fill:#262626;" transform="translate(78.594097 357.401052)scale(0.088 -0.088)">
       <defs>
        <path d="M 26.59375 63.40625 
C 26.59375 65.5 26.5 65.5 25.09375 65.5 
C 21.203125 61.1875 15.296875 59.796875 9.703125 59.796875 
C 9.40625 59.796875 8.90625 59.796875 8.796875 59.5 
C 8.703125 59.296875 8.703125 59.09375 8.703125 57 
C 11.796875 57 17 57.59375 21 59.984375 
L 21 7.203125 
C 21 3.6875 20.796875 2.5 12.203125 2.5 
L 9.203125 2.5 
L 9.203125 0 
C 14 0 19 0 23.796875 0 
C 28.59375 0 33.59375 0 38.40625 0 
L 38.40625 2.5 
L 35.40625 2.5 
C 26.796875 2.5 26.59375 3.59375 26.59375 7.15625 
z
" id="CMR17-49"/>
        <path d="M 10.59375 34 
C 10.59375 57.65625 21.796875 63 28.296875 63 
C 30.40625 63 35.5 62.640625 37.5 59 
C 35.90625 59 32.90625 59 32.90625 55.515625 
C 32.90625 52.828125 35.09375 51.921875 36.5 51.921875 
C 37.40625 51.921875 40.09375 52.3125 40.09375 55.625 
C 40.09375 61.78125 35.09375 65.296875 28.203125 65.296875 
C 16.296875 65.296875 3.796875 52.96875 3.796875 31 
C 3.796875 3.953125 15.09375 -2 23.09375 -2 
C 32.796875 -2 42 6.671875 42 20.046875 
C 42 32.515625 33.90625 41.59375 23.703125 41.59375 
C 17.59375 41.59375 13.09375 37.609375 10.59375 30.625 
z
M 23.09375 0.390625 
C 10.796875 0.390625 10.796875 18.75 10.796875 22.4375 
C 10.796875 29.625 14.203125 40 23.5 40 
C 25.203125 40 30.09375 40 33.40625 33.125 
C 35.203125 29.21875 35.203125 25.140625 35.203125 20.140625 
C 35.203125 14.75 35.203125 10.78125 33.09375 6.78125 
C 30.90625 2.671875 27.703125 0.390625 23.09375 0.390625 
z
" id="CMR17-54"/>
       </defs>
       <use transform="scale(0.996264)" xlink:href="#CMR17-49"/>
       <use transform="translate(45.690477 0)scale(0.996264)" xlink:href="#CMR17-54"/>
      </g>
     </g>
    </g>
    <g id="xtick_2">
     <g id="line2d_2">
      <path clip-path="url(#pbf69f419e0)" d="M 136.103845 343.012769 
L 136.103845 19.841765 
" style="fill:none;stroke:#cccccc;stroke-linecap:round;stroke-width:0.8;"/>
     </g>
     <g id="text_2">
      <!-- $\mathdefault{32}$ -->
      <g style="fill:#262626;" transform="translate(131.446247 357.401052)scale(0.088 -0.088)">
       <defs>
        <path d="M 22.09375 33.703125 
C 31 33.703125 34.90625 25.96875 34.90625 17.03125 
C 34.90625 5 28.5 0.390625 22.703125 0.390625 
C 17.40625 0.390625 8.796875 3.03125 6.09375 10.828125 
C 6.59375 10.625 7.09375 10.625 7.59375 10.625 
C 10 10.625 11.796875 12.21875 11.796875 14.8125 
C 11.796875 17.703125 9.59375 19 7.59375 19 
C 5.90625 19 3.296875 18.203125 3.296875 14.46875 
C 3.296875 5.234375 12.296875 -2 22.90625 -2 
C 34 -2 42.5 6.71875 42.5 16.953125 
C 42.5 26.671875 34.5 33.703125 25 34.796875 
C 32.59375 36.375 39.90625 43.0625 39.90625 52.015625 
C 39.90625 59.6875 32 65.296875 23 65.296875 
C 13.90625 65.296875 5.90625 59.828125 5.90625 52.015625 
C 5.90625 48.59375 8.5 48 9.796875 48 
C 11.90625 48 13.703125 49.296875 13.703125 51.890625 
C 13.703125 54.46875 11.90625 55.765625 9.796875 55.765625 
C 9.40625 55.765625 8.90625 55.765625 8.5 55.578125 
C 11.40625 61.859375 19.296875 63 22.796875 63 
C 26.296875 63 32.90625 61.328125 32.90625 51.875 
C 32.90625 49.109375 32.5 44.1875 29.09375 39.84375 
C 26.09375 36 22.703125 36 19.40625 35.6875 
C 18.90625 35.6875 16.59375 35.453125 16.203125 35.453125 
C 15.5 35.359375 15.09375 35.265625 15.09375 34.5 
C 15.09375 33.796875 15.203125 33.703125 17.203125 33.703125 
z
" id="CMR17-51"/>
        <path d="M 41.703125 15.453125 
L 39.90625 15.453125 
C 38.90625 8.375 38.09375 7.171875 37.703125 6.5625 
C 37.203125 5.765625 30 5.765625 28.59375 5.765625 
L 9.40625 5.765625 
C 13 9.671875 20 16.75 28.5 24.953125 
C 34.59375 30.734375 41.703125 37.53125 41.703125 47.421875 
C 41.703125 59.21875 32.296875 66 21.796875 66 
C 10.796875 66 4.09375 56.3125 4.09375 47.34375 
C 4.09375 43.4375 7 42.9375 8.203125 42.9375 
C 9.203125 42.9375 12.203125 43.546875 12.203125 47.03125 
C 12.203125 50.109375 9.59375 51 8.203125 51 
C 7.59375 51 7 50.90625 6.59375 50.703125 
C 8.5 59.21875 14.296875 63.40625 20.40625 63.40625 
C 29.09375 63.40625 34.796875 56.515625 34.796875 47.421875 
C 34.796875 38.734375 29.703125 31.25 24 24.75 
L 4.09375 2.28125 
L 4.09375 0 
L 39.296875 0 
z
" id="CMR17-50"/>
       </defs>
       <use transform="scale(0.996264)" xlink:href="#CMR17-51"/>
       <use transform="translate(45.690477 0)scale(0.996264)" xlink:href="#CMR17-50"/>
      </g>
     </g>
    </g>
    <g id="xtick_3">
     <g id="line2d_3">
      <path clip-path="url(#pbf69f419e0)" d="M 188.955994 343.012769 
L 188.955994 19.841765 
" style="fill:none;stroke:#cccccc;stroke-linecap:round;stroke-width:0.8;"/>
     </g>
     <g id="text_3">
      <!-- $\mathdefault{64}$ -->
      <g style="fill:#262626;" transform="translate(184.298396 357.401052)scale(0.088 -0.088)">
       <defs>
        <path d="M 33.59375 64.40625 
C 33.59375 66.5 33.5 66.5 31.703125 66.5 
L 2 19.59375 
L 2 17 
L 27.796875 17 
L 27.796875 7.140625 
C 27.796875 3.5 27.59375 2.5 20.59375 2.5 
L 18.703125 2.5 
L 18.703125 0 
C 21.90625 0 27.296875 0 30.703125 0 
C 34.09375 0 39.5 0 42.703125 0 
L 42.703125 2.5 
L 40.796875 2.5 
C 33.796875 2.5 33.59375 3.5 33.59375 7.140625 
L 33.59375 17 
L 43.796875 17 
L 43.796875 19.59375 
L 33.59375 19.59375 
z
M 28.09375 57.859375 
L 28.09375 19.59375 
L 4 19.59375 
z
" id="CMR17-52"/>
       </defs>
       <use transform="scale(0.996264)" xlink:href="#CMR17-54"/>
       <use transform="translate(45.690477 0)scale(0.996264)" xlink:href="#CMR17-52"/>
      </g>
     </g>
    </g>
    <g id="xtick_4">
     <g id="line2d_4">
      <path clip-path="url(#pbf69f419e0)" d="M 241.808144 343.012769 
L 241.808144 19.841765 
" style="fill:none;stroke:#cccccc;stroke-linecap:round;stroke-width:0.8;"/>
     </g>
     <g id="text_4">
      <!-- $\mathdefault{128}$ -->
      <g style="fill:#262626;" transform="translate(234.821747 357.401052)scale(0.088 -0.088)">
       <defs>
        <path d="M 27.203125 35.375 
C 33.5 38.546875 39.90625 43.328125 39.90625 50.984375 
C 39.90625 60.015625 31.09375 65.296875 23 65.296875 
C 13.90625 65.296875 5.90625 58.734375 5.90625 49.6875 
C 5.90625 47.203125 6.5 42.921875 10.40625 39.140625 
C 11.40625 38.15625 15.59375 35.171875 18.296875 33.28125 
C 13.796875 30.984375 3.296875 25.53125 3.296875 14.59375 
C 3.296875 4.359375 13.09375 -2 22.796875 -2 
C 33.5 -2 42.5 5.65625 42.5 15.78125 
C 42.5 24.84375 36.40625 29.015625 32.40625 31.703125 
z
M 14.09375 44.09375 
C 13.296875 44.59375 9.296875 47.671875 9.296875 52.359375 
C 9.296875 58.421875 15.59375 63 22.796875 63 
C 30.703125 63 36.5 57.4375 36.5 50.96875 
C 36.5 41.703125 26.09375 36.421875 25.59375 36.421875 
C 25.5 36.421875 25.40625 36.421875 24.59375 37.03125 
z
M 32.5 23.734375 
C 34 22.640625 38.796875 19.375 38.796875 13.296875 
C 38.796875 5.953125 31.40625 0.390625 23 0.390625 
C 13.90625 0.390625 7 6.84375 7 14.6875 
C 7 22.546875 13.09375 29.09375 20 32.1875 
z
" id="CMR17-56"/>
       </defs>
       <use transform="scale(0.996264)" xlink:href="#CMR17-49"/>
       <use transform="translate(45.690477 0)scale(0.996264)" xlink:href="#CMR17-50"/>
       <use transform="translate(91.380954 0)scale(0.996264)" xlink:href="#CMR17-56"/>
      </g>
     </g>
    </g>
    <g id="xtick_5">
     <g id="line2d_5">
      <path clip-path="url(#pbf69f419e0)" d="M 294.660294 343.012769 
L 294.660294 19.841765 
" style="fill:none;stroke:#cccccc;stroke-linecap:round;stroke-width:0.8;"/>
     </g>
     <g id="text_5">
      <!-- $\mathdefault{256}$ -->
      <g style="fill:#262626;" transform="translate(287.673896 357.401052)scale(0.088 -0.088)">
       <defs>
        <path d="M 11.40625 57.6875 
C 12.40625 57.28125 16.5 56 20.703125 56 
C 30 56 35.09375 61.109375 38 64.0625 
C 38 64.953125 38 65.5 37.40625 65.5 
C 37.296875 65.5 37.09375 65.5 36.296875 65.046875 
C 32.796875 63.40625 28.703125 62.078125 23.703125 62.078125 
C 20.703125 62.078125 16.203125 62.484375 11.296875 64.671875 
C 10.203125 65.171875 10 65.171875 9.90625 65.171875 
C 9.40625 65.171875 9.296875 65.0625 9.296875 63.078125 
L 9.296875 34.421875 
C 9.296875 32.640625 9.296875 32.140625 10.296875 32.140625 
C 10.796875 32.140625 11 32.34375 11.5 33.03125 
C 14.703125 37.515625 19.09375 39.40625 24.09375 39.40625 
C 27.59375 39.40625 35.09375 37.21875 35.09375 20.140625 
C 35.09375 16.953125 35.09375 11.171875 32.09375 6.578125 
C 29.59375 2.484375 25.703125 0.390625 21.40625 0.390625 
C 14.796875 0.390625 8.09375 5 6.296875 12.71875 
C 6.703125 12.609375 7.5 12.421875 7.90625 12.421875 
C 9.203125 12.421875 11.703125 13.125 11.703125 16.21875 
C 11.703125 18.90625 9.796875 20 7.90625 20 
C 5.59375 20 4.09375 18.59375 4.09375 15.796875 
C 4.09375 7.09375 11 -2 21.59375 -2 
C 31.90625 -2 41.703125 6.875 41.703125 19.75 
C 41.703125 31.71875 33.90625 41 24.203125 41 
C 19.09375 41 14.796875 39.109375 11.40625 35.53125 
z
" id="CMR17-53"/>
       </defs>
       <use transform="scale(0.996264)" xlink:href="#CMR17-50"/>
       <use transform="translate(45.690477 0)scale(0.996264)" xlink:href="#CMR17-53"/>
       <use transform="translate(91.380954 0)scale(0.996264)" xlink:href="#CMR17-54"/>
      </g>
     </g>
    </g>
    <g id="xtick_6">
     <g id="line2d_6">
      <path clip-path="url(#pbf69f419e0)" d="M 347.512443 343.012769 
L 347.512443 19.841765 
" style="fill:none;stroke:#cccccc;stroke-linecap:round;stroke-width:0.8;"/>
     </g>
     <g id="text_6">
      <!-- $\mathdefault{512}$ -->
      <g style="fill:#262626;" transform="translate(340.526046 357.401052)scale(0.088 -0.088)">
       <use transform="scale(0.996264)" xlink:href="#CMR17-53"/>
       <use transform="translate(45.690477 0)scale(0.996264)" xlink:href="#CMR17-49"/>
       <use transform="translate(91.380954 0)scale(0.996264)" xlink:href="#CMR17-50"/>
      </g>
     </g>
    </g>
    <g id="text_7">
     <!-- N -->
     <g style="fill:#262626;" transform="translate(201.025536 369.74753)scale(0.096 -0.096)">
      <defs>
       <path d="M 20.5 66.40625 
C 19.796875 67.5 19.703125 67.5 17.796875 67.5 
L 5.09375 67.5 
L 5.09375 65 
L 7 65 
C 11 65 12.796875 64.515625 13.09375 64.40625 
L 13.09375 9.53125 
C 13.09375 7.046875 13.09375 2.390625 5.09375 2.390625 
L 5.09375 -0.203125 
C 7.40625 0 11.59375 0 14.09375 0 
C 16.59375 0 20.796875 0 23.09375 -0.203125 
L 23.09375 2.390625 
C 15.09375 2.390625 15.09375 7.046875 15.09375 9.53125 
L 15.09375 63.015625 
C 15.796875 62.421875 15.796875 62.21875 16.5 61.234375 
L 53.59375 1.1875 
C 54.296875 0 54.59375 0 55.09375 0 
C 56.09375 0 56.09375 0.296875 56.09375 2.171875 
L 56.09375 57.890625 
C 56.09375 60.359375 56.09375 65 64.09375 65 
L 64.09375 67.59375 
C 61.796875 67.5 57.59375 67.5 55.09375 67.5 
C 52.59375 67.5 48.40625 67.5 46.09375 67.59375 
L 46.09375 65 
C 54.09375 65 54.09375 60.34375 54.09375 57.859375 
L 54.09375 11.921875 
z
" id="CMR17-78"/>
      </defs>
      <use transform="scale(0.996264)" xlink:href="#CMR17-78"/>
     </g>
    </g>
   </g>
   <g id="matplotlib.axis_2">
    <g id="ytick_1">
     <g id="line2d_7">
      <path clip-path="url(#pbf69f419e0)" d="M 46.976583 276.032258 
L 362.445316 276.032258 
" style="fill:none;stroke:#cccccc;stroke-linecap:round;stroke-width:0.8;"/>
     </g>
     <g id="text_8">
      <!-- $\mathdefault{10^{-3}}$ -->
      <g style="fill:#262626;" transform="translate(19.70146 279.0764)scale(0.088 -0.088)">
       <defs>
        <path d="M 42 31.640625 
C 42 37.75 41.90625 48.125 37.703125 56.109375 
C 34 63.109375 28.09375 65.59375 22.90625 65.59375 
C 18.09375 65.59375 12 63.40625 8.203125 56.203125 
C 4.203125 48.71875 3.796875 39.4375 3.796875 31.640625 
C 3.796875 25.953125 3.90625 17.28125 7 9.671875 
C 11.296875 -0.609375 19 -2 22.90625 -2 
C 27.5 -2 34.5 -0.109375 38.59375 9.375 
C 41.59375 16.28125 42 24.359375 42 31.640625 
z
M 22.90625 -0.40625 
C 16.5 -0.40625 12.703125 5.078125 11.296875 12.6875 
C 10.203125 18.5625 10.203125 27.15625 10.203125 32.75 
C 10.203125 40.4375 10.203125 46.828125 11.5 52.921875 
C 13.40625 61.390625 19 64 22.90625 64 
C 27 64 32.296875 61.296875 34.203125 53.125 
C 35.5 47.4375 35.59375 40.734375 35.59375 32.75 
C 35.59375 26.25 35.59375 18.265625 34.40625 12.375 
C 32.296875 1.484375 26.40625 -0.40625 22.90625 -0.40625 
z
" id="CMR17-48"/>
        <path d="M 65.90625 23 
C 67.59375 23 69.40625 23 69.40625 25 
C 69.40625 27 67.59375 27 65.90625 27 
L 11.796875 27 
C 10.09375 27 8.296875 27 8.296875 25 
C 8.296875 23 10.09375 23 11.796875 23 
z
" id="CMSY10-0"/>
       </defs>
       <use transform="scale(0.996264)" xlink:href="#CMR17-49"/>
       <use transform="translate(45.690477 0)scale(0.996264)" xlink:href="#CMR17-48"/>
       <use transform="translate(91.380954 36.153639)scale(0.697382)" xlink:href="#CMSY10-0"/>
       <use transform="translate(145.621947 36.153639)scale(0.697382)" xlink:href="#CMR17-51"/>
      </g>
     </g>
    </g>
    <g id="ytick_2">
     <g id="line2d_8">
      <path clip-path="url(#pbf69f419e0)" d="M 46.976583 191.303982 
L 362.445316 191.303982 
" style="fill:none;stroke:#cccccc;stroke-linecap:round;stroke-width:0.8;"/>
     </g>
     <g id="text_9">
      <!-- $\mathdefault{10^{-2}}$ -->
      <g style="fill:#262626;" transform="translate(19.70146 194.348124)scale(0.088 -0.088)">
       <use transform="scale(0.996264)" xlink:href="#CMR17-49"/>
       <use transform="translate(45.690477 0)scale(0.996264)" xlink:href="#CMR17-48"/>
       <use transform="translate(91.380954 36.153639)scale(0.697382)" xlink:href="#CMSY10-0"/>
       <use transform="translate(145.621947 36.153639)scale(0.697382)" xlink:href="#CMR17-50"/>
      </g>
     </g>
    </g>
    <g id="ytick_3">
     <g id="line2d_9">
      <path clip-path="url(#pbf69f419e0)" d="M 46.976583 106.575706 
L 362.445316 106.575706 
" style="fill:none;stroke:#cccccc;stroke-linecap:round;stroke-width:0.8;"/>
     </g>
     <g id="text_10">
      <!-- $\mathdefault{10^{-1}}$ -->
      <g style="fill:#262626;" transform="translate(19.70146 109.619848)scale(0.088 -0.088)">
       <use transform="scale(0.996264)" xlink:href="#CMR17-49"/>
       <use transform="translate(45.690477 0)scale(0.996264)" xlink:href="#CMR17-48"/>
       <use transform="translate(91.380954 36.153639)scale(0.697382)" xlink:href="#CMSY10-0"/>
       <use transform="translate(145.621947 36.153639)scale(0.697382)" xlink:href="#CMR17-49"/>
      </g>
     </g>
    </g>
    <g id="ytick_4">
     <g id="line2d_10">
      <path clip-path="url(#pbf69f419e0)" d="M 46.976583 21.84743 
L 362.445316 21.84743 
" style="fill:none;stroke:#cccccc;stroke-linecap:round;stroke-width:0.8;"/>
     </g>
     <g id="text_11">
      <!-- $\mathdefault{10^{0}}$ -->
      <g style="fill:#262626;" transform="translate(25.611077 24.891572)scale(0.088 -0.088)">
       <use transform="scale(0.996264)" xlink:href="#CMR17-49"/>
       <use transform="translate(45.690477 0)scale(0.996264)" xlink:href="#CMR17-48"/>
       <use transform="translate(91.380954 36.153639)scale(0.697382)" xlink:href="#CMR17-48"/>
      </g>
     </g>
    </g>
    <g id="ytick_5">
     <g id="line2d_11">
      <path clip-path="url(#pbf69f419e0)" d="M 46.976583 335.254782 
L 362.445316 335.254782 
" style="fill:none;stroke:#cccccc;stroke-linecap:round;stroke-width:0.25;"/>
     </g>
    </g>
    <g id="ytick_6">
     <g id="line2d_12">
      <path clip-path="url(#pbf69f419e0)" d="M 46.976583 320.334873 
L 362.445316 320.334873 
" style="fill:none;stroke:#cccccc;stroke-linecap:round;stroke-width:0.25;"/>
     </g>
    </g>
    <g id="ytick_7">
     <g id="line2d_13">
      <path clip-path="url(#pbf69f419e0)" d="M 46.976583 309.749029 
L 362.445316 309.749029 
" style="fill:none;stroke:#cccccc;stroke-linecap:round;stroke-width:0.25;"/>
     </g>
    </g>
    <g id="ytick_8">
     <g id="line2d_14">
      <path clip-path="url(#pbf69f419e0)" d="M 46.976583 301.538011 
L 362.445316 301.538011 
" style="fill:none;stroke:#cccccc;stroke-linecap:round;stroke-width:0.25;"/>
     </g>
    </g>
    <g id="ytick_9">
     <g id="line2d_15">
      <path clip-path="url(#pbf69f419e0)" d="M 46.976583 294.82912 
L 362.445316 294.82912 
" style="fill:none;stroke:#cccccc;stroke-linecap:round;stroke-width:0.25;"/>
     </g>
    </g>
    <g id="ytick_10">
     <g id="line2d_16">
      <path clip-path="url(#pbf69f419e0)" d="M 46.976583 289.156834 
L 362.445316 289.156834 
" style="fill:none;stroke:#cccccc;stroke-linecap:round;stroke-width:0.25;"/>
     </g>
    </g>
    <g id="ytick_11">
     <g id="line2d_17">
      <path clip-path="url(#pbf69f419e0)" d="M 46.976583 284.243277 
L 362.445316 284.243277 
" style="fill:none;stroke:#cccccc;stroke-linecap:round;stroke-width:0.25;"/>
     </g>
    </g>
    <g id="ytick_12">
     <g id="line2d_18">
      <path clip-path="url(#pbf69f419e0)" d="M 46.976583 279.909211 
L 362.445316 279.909211 
" style="fill:none;stroke:#cccccc;stroke-linecap:round;stroke-width:0.25;"/>
     </g>
    </g>
    <g id="ytick_13">
     <g id="line2d_19">
      <path clip-path="url(#pbf69f419e0)" d="M 46.976583 250.526506 
L 362.445316 250.526506 
" style="fill:none;stroke:#cccccc;stroke-linecap:round;stroke-width:0.25;"/>
     </g>
    </g>
    <g id="ytick_14">
     <g id="line2d_20">
      <path clip-path="url(#pbf69f419e0)" d="M 46.976583 235.606597 
L 362.445316 235.606597 
" style="fill:none;stroke:#cccccc;stroke-linecap:round;stroke-width:0.25;"/>
     </g>
    </g>
    <g id="ytick_15">
     <g id="line2d_21">
      <path clip-path="url(#pbf69f419e0)" d="M 46.976583 225.020753 
L 362.445316 225.020753 
" style="fill:none;stroke:#cccccc;stroke-linecap:round;stroke-width:0.25;"/>
     </g>
    </g>
    <g id="ytick_16">
     <g id="line2d_22">
      <path clip-path="url(#pbf69f419e0)" d="M 46.976583 216.809735 
L 362.445316 216.809735 
" style="fill:none;stroke:#cccccc;stroke-linecap:round;stroke-width:0.25;"/>
     </g>
    </g>
    <g id="ytick_17">
     <g id="line2d_23">
      <path clip-path="url(#pbf69f419e0)" d="M 46.976583 210.100844 
L 362.445316 210.100844 
" style="fill:none;stroke:#cccccc;stroke-linecap:round;stroke-width:0.25;"/>
     </g>
    </g>
    <g id="ytick_18">
     <g id="line2d_24">
      <path clip-path="url(#pbf69f419e0)" d="M 46.976583 204.428558 
L 362.445316 204.428558 
" style="fill:none;stroke:#cccccc;stroke-linecap:round;stroke-width:0.25;"/>
     </g>
    </g>
    <g id="ytick_19">
     <g id="line2d_25">
      <path clip-path="url(#pbf69f419e0)" d="M 46.976583 199.515001 
L 362.445316 199.515001 
" style="fill:none;stroke:#cccccc;stroke-linecap:round;stroke-width:0.25;"/>
     </g>
    </g>
    <g id="ytick_20">
     <g id="line2d_26">
      <path clip-path="url(#pbf69f419e0)" d="M 46.976583 195.180935 
L 362.445316 195.180935 
" style="fill:none;stroke:#cccccc;stroke-linecap:round;stroke-width:0.25;"/>
     </g>
    </g>
    <g id="ytick_21">
     <g id="line2d_27">
      <path clip-path="url(#pbf69f419e0)" d="M 46.976583 165.79823 
L 362.445316 165.79823 
" style="fill:none;stroke:#cccccc;stroke-linecap:round;stroke-width:0.25;"/>
     </g>
    </g>
    <g id="ytick_22">
     <g id="line2d_28">
      <path clip-path="url(#pbf69f419e0)" d="M 46.976583 150.878321 
L 362.445316 150.878321 
" style="fill:none;stroke:#cccccc;stroke-linecap:round;stroke-width:0.25;"/>
     </g>
    </g>
    <g id="ytick_23">
     <g id="line2d_29">
      <path clip-path="url(#pbf69f419e0)" d="M 46.976583 140.292477 
L 362.445316 140.292477 
" style="fill:none;stroke:#cccccc;stroke-linecap:round;stroke-width:0.25;"/>
     </g>
    </g>
    <g id="ytick_24">
     <g id="line2d_30">
      <path clip-path="url(#pbf69f419e0)" d="M 46.976583 132.081459 
L 362.445316 132.081459 
" style="fill:none;stroke:#cccccc;stroke-linecap:round;stroke-width:0.25;"/>
     </g>
    </g>
    <g id="ytick_25">
     <g id="line2d_31">
      <path clip-path="url(#pbf69f419e0)" d="M 46.976583 125.372568 
L 362.445316 125.372568 
" style="fill:none;stroke:#cccccc;stroke-linecap:round;stroke-width:0.25;"/>
     </g>
    </g>
    <g id="ytick_26">
     <g id="line2d_32">
      <path clip-path="url(#pbf69f419e0)" d="M 46.976583 119.700282 
L 362.445316 119.700282 
" style="fill:none;stroke:#cccccc;stroke-linecap:round;stroke-width:0.25;"/>
     </g>
    </g>
    <g id="ytick_27">
     <g id="line2d_33">
      <path clip-path="url(#pbf69f419e0)" d="M 46.976583 114.786725 
L 362.445316 114.786725 
" style="fill:none;stroke:#cccccc;stroke-linecap:round;stroke-width:0.25;"/>
     </g>
    </g>
    <g id="ytick_28">
     <g id="line2d_34">
      <path clip-path="url(#pbf69f419e0)" d="M 46.976583 110.452659 
L 362.445316 110.452659 
" style="fill:none;stroke:#cccccc;stroke-linecap:round;stroke-width:0.25;"/>
     </g>
    </g>
    <g id="ytick_29">
     <g id="line2d_35">
      <path clip-path="url(#pbf69f419e0)" d="M 46.976583 81.069954 
L 362.445316 81.069954 
" style="fill:none;stroke:#cccccc;stroke-linecap:round;stroke-width:0.25;"/>
     </g>
    </g>
    <g id="ytick_30">
     <g id="line2d_36">
      <path clip-path="url(#pbf69f419e0)" d="M 46.976583 66.150045 
L 362.445316 66.150045 
" style="fill:none;stroke:#cccccc;stroke-linecap:round;stroke-width:0.25;"/>
     </g>
    </g>
    <g id="ytick_31">
     <g id="line2d_37">
      <path clip-path="url(#pbf69f419e0)" d="M 46.976583 55.564201 
L 362.445316 55.564201 
" style="fill:none;stroke:#cccccc;stroke-linecap:round;stroke-width:0.25;"/>
     </g>
    </g>
    <g id="ytick_32">
     <g id="line2d_38">
      <path clip-path="url(#pbf69f419e0)" d="M 46.976583 47.353183 
L 362.445316 47.353183 
" style="fill:none;stroke:#cccccc;stroke-linecap:round;stroke-width:0.25;"/>
     </g>
    </g>
    <g id="ytick_33">
     <g id="line2d_39">
      <path clip-path="url(#pbf69f419e0)" d="M 46.976583 40.644292 
L 362.445316 40.644292 
" style="fill:none;stroke:#cccccc;stroke-linecap:round;stroke-width:0.25;"/>
     </g>
    </g>
    <g id="ytick_34">
     <g id="line2d_40">
      <path clip-path="url(#pbf69f419e0)" d="M 46.976583 34.972006 
L 362.445316 34.972006 
" style="fill:none;stroke:#cccccc;stroke-linecap:round;stroke-width:0.25;"/>
     </g>
    </g>
    <g id="ytick_35">
     <g id="line2d_41">
      <path clip-path="url(#pbf69f419e0)" d="M 46.976583 30.058449 
L 362.445316 30.058449 
" style="fill:none;stroke:#cccccc;stroke-linecap:round;stroke-width:0.25;"/>
     </g>
    </g>
    <g id="ytick_36">
     <g id="line2d_42">
      <path clip-path="url(#pbf69f419e0)" d="M 46.976583 25.724383 
L 362.445316 25.724383 
" style="fill:none;stroke:#cccccc;stroke-linecap:round;stroke-width:0.25;"/>
     </g>
    </g>
    <g id="text_12">
     <!-- Maximum Error -->
     <g style="fill:#262626;" transform="translate(13.841765 216.341284)rotate(-90)scale(0.096 -0.096)">
      <defs>
       <path d="M 20.90625 66 
C 20.296875 67.5 20.203125 67.5 18.09375 67.5 
L 5.296875 67.5 
L 5.296875 65 
C 12.203125 65 13.296875 65 13.296875 60.546875 
L 13.296875 9.53125 
C 13.296875 7.046875 13.296875 2.390625 5.296875 2.390625 
L 5.296875 -0.203125 
C 7.59375 0 11.796875 0 14.296875 0 
C 16.796875 0 21 0 23.296875 -0.203125 
L 23.296875 2.390625 
C 15.296875 2.390625 15.296875 7.046875 15.296875 9.53125 
L 15.296875 64.609375 
L 15.40625 64.609375 
L 38.90625 1.390625 
C 39.296875 0.390625 39.5 -0.203125 40.296875 -0.203125 
C 41.09375 -0.203125 41.296875 0.390625 41.703125 1.390625 
L 65.40625 65.09375 
L 65.5 65.09375 
L 65.5 6.84375 
C 65.5 2.390625 64.40625 2.390625 57.5 2.390625 
L 57.5 -0.203125 
C 60.203125 0 65.59375 0 68.5 0 
C 71.40625 0 76.90625 0 79.59375 -0.203125 
L 79.59375 2.390625 
C 72.703125 2.390625 71.59375 2.390625 71.59375 6.84375 
L 71.59375 60.546875 
C 71.59375 65 72.703125 65 79.59375 65 
L 79.59375 67.5 
L 66.90625 67.5 
C 64.796875 67.5 64.703125 67.40625 64.09375 65.90625 
L 42.5 7.84375 
z
" id="CMR17-77"/>
       <path d="M 36 25.828125 
C 36 32.375 36 35.84375 31.796875 39.734375 
C 28.09375 43 23.796875 44 20.40625 44 
C 12.5 44 6.796875 37.609375 6.796875 30.796875 
C 6.796875 27 9.796875 27 10.40625 27 
C 11.703125 27 14 27.78125 14 30.53125 
C 14 33 12.09375 34.078125 10.40625 34.078125 
C 10 34.078125 9.5 33.96875 9.203125 33.875 
C 11.296875 40.5 16.703125 42.40625 20.203125 42.40625 
C 25.203125 42.40625 30.703125 37.953125 30.703125 29.453125 
L 30.703125 25 
C 24.796875 25 17.703125 24.203125 12.09375 21.203125 
C 5.796875 17.703125 4 12.703125 4 8.90625 
C 4 1.203125 13 -1 18.296875 -1 
C 23.796875 -1 28.90625 2.171875 31.09375 7.984375 
C 31.296875 3.640625 34.09375 -0.28125 38.5 -0.28125 
C 40.59375 -0.28125 45.90625 1.09375 45.90625 8.859375 
L 45.90625 14.375 
L 44.09375 14.375 
L 44.09375 8.78125 
C 44.09375 2.78125 41.40625 2 40.09375 2 
C 36 2 36 7.15625 36 11.53125 
z
M 30.703125 13.59375 
C 30.703125 4.953125 24.5 0.59375 19 0.59375 
C 14 0.59375 10.09375 4.296875 10.09375 8.90625 
C 10.09375 11.890625 11.40625 17.1875 17.203125 20.390625 
C 22 23.09375 27.5 23.5 30.703125 23.5 
z
" id="CMR17-97"/>
       <path d="M 26 23.078125 
C 29 26.96875 32.40625 31.34375 35.203125 34.625 
C 38.5 38.40625 42.296875 40 46.703125 40 
L 46.703125 42.59375 
C 45 42.59375 41.5 42.59375 39.703125 42.59375 
C 37 42.59375 33.90625 42.59375 31.59375 42.6875 
L 31.59375 40.09375 
C 33 39.890625 33.796875 38.890625 33.796875 37.5 
C 33.796875 35.703125 32.796875 34.609375 32.296875 33.921875 
L 24.90625 24.578125 
L 16.09375 36.03125 
C 15.203125 37.125 15.203125 37.3125 15.203125 37.8125 
C 15.203125 39.015625 16.203125 40 17.90625 40 
L 17.90625 42.6875 
C 15.5 42.59375 11.203125 42.59375 8.703125 42.59375 
C 6 42.59375 2.796875 42.59375 0.59375 42.6875 
L 0.59375 40 
C 6 40 7.203125 39.59375 9.59375 36.609375 
L 21.09375 21.796875 
C 21.296875 21.59375 21.796875 21 21.796875 20.703125 
C 21.796875 20.296875 13.09375 9.671875 12 8.28125 
C 7.5 2.890625 2.796875 2.5 0.09375 2.5 
L 0.09375 0 
C 1.796875 0 5.296875 0 7.09375 0 
C 9.09375 0 13.5 0 15.296875 -0.09375 
L 15.296875 2.5 
C 14.703125 2.59375 13.09375 2.796875 13.09375 5.078125 
C 13.09375 6.875 13.90625 7.96875 14.796875 9.15625 
L 23.09375 19.3125 
L 31.796875 8 
C 32.59375 6.90625 33.796875 5.40625 33.796875 4.703125 
C 33.796875 3.296875 32.59375 2.5 31 2.5 
L 31 -0.09375 
C 33.40625 0 37.703125 0 40.203125 0 
C 42.90625 0 46.09375 0 48.296875 -0.09375 
L 48.296875 2.5 
C 43.296875 2.5 41.796875 2.6875 39.40625 5.78125 
z
" id="CMR17-120"/>
       <path d="M 15.5 61.078125 
C 15.5 63.265625 13.703125 65.15625 11.40625 65.15625 
C 9.203125 65.15625 7.296875 63.375 7.296875 61.078125 
C 7.296875 58.890625 9.09375 57 11.40625 57 
C 13.59375 57 15.5 58.796875 15.5 61.078125 
z
M 3.796875 42.28125 
L 3.796875 39.703125 
C 9.40625 39.703125 10.203125 39.09375 10.203125 34.328125 
L 10.203125 6.671875 
C 10.203125 2.875 9.796875 2.390625 3.40625 2.390625 
L 3.40625 -0.203125 
C 5.796875 0 10.09375 0 12.59375 0 
C 15 0 19.09375 0 21.40625 -0.203125 
L 21.40625 2.390625 
C 15.5 2.390625 15.296875 2.984375 15.296875 6.5625 
L 15.296875 43.375 
z
" id="CMR17-105"/>
       <path d="M 67.59375 30.203125 
C 67.59375 35.1875 66.703125 43.59375 54.796875 43.59375 
C 48 43.59375 43.296875 39 41.5 33.609375 
L 41.40625 33.609375 
C 40.203125 41.8125 34.296875 43.59375 28.703125 43.59375 
C 20.796875 43.59375 16.703125 37.5 15.203125 33.5 
L 15.09375 33.5 
L 15.09375 43.59375 
L 3.296875 42.5 
L 3.296875 39.90625 
C 9.203125 39.90625 10.09375 39.296875 10.09375 34.5 
L 10.09375 6.6875 
C 10.09375 2.875 9.703125 2.390625 3.296875 2.390625 
L 3.296875 -0.203125 
C 5.703125 0 10.09375 0 12.703125 0 
C 15.296875 0 19.796875 0 22.203125 -0.203125 
L 22.203125 2.390625 
C 15.796875 2.390625 15.40625 2.78125 15.40625 6.6875 
L 15.40625 25.90625 
C 15.40625 35.109375 21 42 28 42 
C 35.40625 42 36.203125 35.40625 36.203125 30.59375 
L 36.203125 6.6875 
C 36.203125 2.875 35.796875 2.390625 29.40625 2.390625 
L 29.40625 -0.203125 
C 31.796875 0 36.203125 0 38.796875 0 
C 41.40625 0 45.90625 0 48.296875 -0.203125 
L 48.296875 2.390625 
C 41.90625 2.390625 41.5 2.78125 41.5 6.6875 
L 41.5 25.90625 
C 41.5 35.109375 47.09375 42 54.09375 42 
C 61.5 42 62.296875 35.40625 62.296875 30.59375 
L 62.296875 6.6875 
C 62.296875 2.875 61.90625 2.390625 55.5 2.390625 
L 55.5 -0.203125 
C 57.90625 0 62.296875 0 64.90625 0 
C 67.5 0 72 0 74.40625 -0.203125 
L 74.40625 2.390625 
C 68 2.390625 67.59375 2.78125 67.59375 6.6875 
z
" id="CMR17-109"/>
       <path d="M 29.40625 42.078125 
L 29.40625 39.5 
C 35.296875 39.5 36.203125 38.890625 36.203125 34.15625 
L 36.203125 16.125 
C 36.203125 7.8125 31.703125 0.59375 24.296875 0.59375 
C 16.09375 0.59375 15.40625 5.4375 15.40625 10.59375 
L 15.40625 43.171875 
L 3.296875 42.078125 
L 3.296875 39.5 
C 7.296875 39.5 10 39.5 10.09375 35.53125 
L 10.09375 16.53125 
C 10.09375 9.890625 10.09375 5.640625 12.703125 2.859375 
C 14 1.578125 16.5 -1 23.703125 -1 
C 32.203125 -1 35.5 5.890625 36.296875 7.90625 
L 36.40625 7.90625 
L 36.40625 -0.984375 
L 48.296875 -0.984375 
L 48.296875 2 
C 42.40625 2 41.5 2.59375 41.5 7.390625 
L 41.5 43.171875 
z
" id="CMR17-117"/>
       <path d="M 60.703125 25.234375 
L 58.90625 25.234375 
C 56.703125 10.5625 55.40625 2.59375 37.796875 2.59375 
L 23.90625 2.59375 
C 19.90625 2.59375 19.703125 3.078125 19.703125 6.46875 
L 19.703125 34 
L 29.09375 34 
C 38.5 34 39.40625 30.625 39.40625 22.34375 
L 41.203125 22.34375 
L 41.203125 48.140625 
L 39.40625 48.140625 
C 39.40625 39.953125 38.5 36.59375 29.09375 36.59375 
L 19.703125 36.59375 
L 19.703125 61.140625 
C 19.703125 64.5 19.90625 65 23.90625 65 
L 37.59375 65 
C 53.09375 65 54.90625 58.890625 56.296875 45.765625 
L 58.09375 45.765625 
L 55.703125 67.578125 
L 5.09375 67.578125 
L 5.09375 65 
C 12 65 13.09375 65 13.09375 60.53125 
L 13.09375 7.046875 
C 13.09375 2.59375 12 2.59375 5.09375 2.59375 
L 5.09375 0 
L 57.09375 0 
z
" id="CMR17-69"/>
       <path d="M 15 23.390625 
C 15 33 19.09375 42 26.59375 42 
C 27.296875 42 28 41.90625 28.703125 41.59375 
C 28.703125 41.59375 26.5 40.890625 26.5 38.3125 
C 26.5 35.90625 28.40625 34.90625 29.90625 34.90625 
C 31.09375 34.90625 33.296875 35.609375 33.296875 38.40625 
C 33.296875 41.609375 30.09375 43.59375 26.703125 43.59375 
C 19.09375 43.59375 15.796875 36.203125 14.796875 32.703125 
L 14.703125 32.703125 
L 14.703125 43.59375 
L 3.09375 42.5 
L 3.09375 39.90625 
C 9 39.90625 9.90625 39.296875 9.90625 34.5 
L 9.90625 6.6875 
C 9.90625 2.875 9.5 2.390625 3.09375 2.390625 
L 3.09375 -0.203125 
C 5.5 0 10.09375 0 12.703125 0 
C 15.59375 0 20.703125 0 23.40625 -0.203125 
L 23.40625 2.390625 
C 16.203125 2.390625 15 2.390625 15 6.875 
z
" id="CMR17-114"/>
       <path d="M 43.09375 21.1875 
C 43.09375 34 33.796875 44 22.90625 44 
C 12 44 2.703125 34 2.703125 21.1875 
C 2.703125 8.609375 12 -1 22.90625 -1 
C 33.796875 -1 43.09375 8.609375 43.09375 21.1875 
z
M 22.90625 0.796875 
C 18.203125 0.796875 14.203125 3.59375 11.90625 7.5 
C 9.40625 11.984375 9.09375 17.59375 9.09375 22 
C 9.09375 26.203125 9.296875 31.40625 11.90625 35.90625 
C 13.90625 39.203125 17.796875 42.40625 22.90625 42.40625 
C 27.40625 42.40625 31.203125 39.90625 33.59375 36.40625 
C 36.703125 31.703125 36.703125 25.109375 36.703125 22 
C 36.703125 18.09375 36.5 12.109375 33.796875 7.296875 
C 31 2.703125 26.703125 0.796875 22.90625 0.796875 
z
" id="CMR17-111"/>
      </defs>
      <use transform="scale(0.996264)" xlink:href="#CMR17-77"/>
      <use transform="translate(84.686941 0)scale(0.996264)" xlink:href="#CMR17-97"/>
      <use transform="translate(130.377418 0)scale(0.996264)" xlink:href="#CMR17-120"/>
      <use transform="translate(178.670334 0)scale(0.996264)" xlink:href="#CMR17-105"/>
      <use transform="translate(203.541392 0)scale(0.996264)" xlink:href="#CMR17-109"/>
      <use transform="translate(277.858528 0)scale(0.996264)" xlink:href="#CMR17-117"/>
      <use transform="translate(328.753898 0)scale(0.996264)" xlink:href="#CMR17-109"/>
      <use transform="translate(435.749454 0)scale(0.996264)" xlink:href="#CMR17-69"/>
      <use transform="translate(498.335754 0)scale(0.996264)" xlink:href="#CMR17-114"/>
      <use transform="translate(533.616522 0)scale(0.996264)" xlink:href="#CMR17-114"/>
      <use transform="translate(568.89729 0)scale(0.996264)" xlink:href="#CMR17-111"/>
      <use transform="translate(614.587767 0)scale(0.996264)" xlink:href="#CMR17-114"/>
     </g>
    </g>
   </g>
   <g id="line2d_43">
    <path clip-path="url(#pbf69f419e0)" d="M 61.316071 188.592856 
L 83.251695 186.51644 
L 100.266287 188.198788 
L 114.168221 155.432537 
L 125.922138 177.926854 
L 136.103845 161.313687 
L 145.084746 193.748267 
L 153.118437 171.72264 
L 160.385793 156.635829 
L 167.02037 174.765557 
L 173.123589 154.907136 
L 178.774288 153.760203 
L 184.034962 147.242625 
L 188.955994 156.897227 
L 193.578594 149.736264 
L 197.936896 159.140277 
L 202.059496 151.988762 
L 205.970586 149.182064 
L 209.690813 153.72361 
L 213.237943 151.402344 
L 216.627369 148.804272 
L 219.87252 148.790363 
L 222.985178 150.716891 
L 225.975739 150.327806 
L 228.853422 144.995424 
L 231.626437 150.222708 
L 234.302134 155.804637 
L 236.887112 151.769455 
L 239.387321 148.274458 
L 241.808144 146.705972 
L 244.154469 149.505711 
L 246.430743 155.223381 
L 248.641029 146.671931 
L 250.789046 150.782161 
" style="fill:none;stroke:#1f77b4;stroke-linecap:round;stroke-width:1.2;"/>
   </g>
   <g id="line2d_44">
    <path clip-path="url(#pbf69f419e0)" d="M 61.316071 188.592856 
L 83.251695 195.435509 
L 100.266287 188.198788 
L 114.168221 209.41157 
L 125.922138 217.760079 
L 136.103845 208.4791 
L 145.084746 243.761389 
L 153.118437 241.421235 
L 160.385793 249.084008 
L 167.02037 254.431272 
L 173.123589 232.440128 
L 178.774288 249.391703 
L 184.034962 243.535059 
L 188.955994 264.345969 
L 193.578594 269.159679 
L 197.936896 257.885719 
L 202.059496 271.655043 
L 205.970586 257.221195 
L 209.690813 277.400207 
L 213.237943 276.891977 
L 216.627369 266.947967 
L 219.87252 285.05061 
L 222.985178 273.056481 
L 225.975739 290.44804 
L 228.853422 292.439809 
L 231.626437 275.196232 
L 234.302134 293.90274 
L 236.887112 279.093934 
L 239.387321 295.893259 
L 241.808144 302.132795 
L 244.154469 286.449956 
L 246.430743 305.256995 
L 248.641029 291.359977 
L 250.789046 306.232115 
L 252.878205 311.736636 
L 254.911646 292.893409 
L 256.892265 310.027345 
L 258.822736 296.596103 
L 260.705536 314.055013 
L 262.542963 319.084531 
L 264.337153 301.805835 
L 266.090093 318.211122 
L 267.803637 298.492793 
L 269.479519 316.522924 
L 271.119357 319.926371 
L 272.72467 309.209965 
L 274.296881 324.174775 
L 275.837328 308.950431 
L 277.347269 325.934658 
L 278.827889 328.322568 
L 280.280305 307.464669 
L 281.705571 325.026915 
L 283.104684 311.593597 
L 284.478587 309.696723 
L 285.828172 315.64341 
L 287.154284 317.938665 
L 288.457727 303.103592 
L 289.739261 315.891506 
L 290.999613 296.072156 
L 292.23947 297.60993 
L 293.459489 320.889515 
L 294.660294 282.081975 
L 295.842481 308.772 
L 297.006618 295.022814 
L 298.153249 288.504974 
L 299.282893 305.479702 
L 300.396044 265.395486 
L 301.493179 312.189068 
L 302.574751 273.384768 
L 303.641195 267.620143 
L 304.69293 296.403252 
L 305.730354 255.991291 
L 306.753853 280.506007 
L 307.763796 249.154132 
L 308.760536 261.305426 
L 309.744414 268.706996 
L 310.715759 250.64223 
L 311.674885 277.160692 
L 312.622097 238.069972 
L 313.557686 237.892171 
" style="fill:none;stroke:#ff7f0e;stroke-dasharray:4.8,1.8;stroke-dashoffset:0;stroke-width:1.2;"/>
   </g>
   <g id="line2d_45">
    <path clip-path="url(#pbf69f419e0)" d="M 61.316071 34.531356 
L 83.251695 39.513652 
L 100.266287 45.569066 
L 114.168221 52.954225 
L 125.922138 61.834737 
L 136.103845 72.33719 
L 145.084746 66.52755 
L 153.118437 56.724103 
L 160.385793 53.737342 
L 167.02037 54.794961 
L 173.123589 59.066917 
L 178.774288 65.030468 
L 184.034962 72.810689 
L 188.955994 82.636533 
L 193.578594 77.273766 
L 197.936896 68.119951 
L 202.059496 64.63273 
L 205.970586 64.149572 
L 209.690813 65.672587 
L 213.237943 68.803157 
L 216.627369 73.600833 
L 219.87252 81.855243 
L 222.985178 85.066282 
L 225.975739 75.29976 
L 228.853422 71.651133 
L 231.626437 70.972739 
L 234.302134 72.262821 
L 236.887112 75.11792 
L 239.387321 79.338809 
L 241.808144 84.796144 
L 244.154469 90.674021 
L 246.430743 80.377008 
L 248.641029 76.712836 
L 250.789046 76.012983 
L 252.878205 77.271609 
L 254.911646 80.071162 
L 256.892265 84.18958 
L 258.822736 89.469579 
L 260.705536 94.621743 
L 262.542963 84.290652 
L 264.337153 80.583598 
L 266.090093 79.851755 
L 267.803637 81.096273 
L 269.479519 83.90153 
L 271.119357 88.042888 
L 272.72467 93.352132 
L 274.296881 97.963878 
L 275.837328 87.591803 
L 277.347269 83.832248 
L 278.827889 83.042513 
L 280.280305 84.228051 
L 281.705571 86.979022 
L 283.104684 91.079674 
L 284.478587 96.37251 
L 285.828172 100.756945 
L 287.154284 90.394431 
L 288.457727 86.628345 
L 289.739261 85.822378 
L 290.999613 86.979886 
L 292.23947 89.689145 
L 293.459489 93.731967 
L 294.660294 98.952218 
L 295.842481 103.13554 
L 297.006618 92.776606 
L 298.153249 89.008307 
L 299.282893 88.203122 
L 300.396044 89.36432 
L 301.493179 92.076452 
L 302.574751 96.116847 
L 303.641195 101.320743 
L 304.69293 105.285313 
L 305.730354 94.904419 
L 306.753853 91.113017 
L 307.763796 90.286969 
L 308.760536 91.431774 
L 309.744414 94.134914 
L 310.715759 98.175011 
L 311.674885 103.388085 
L 312.622097 107.222359 
L 313.557686 96.837511 
L 314.481934 93.034708 
L 315.395113 92.191767 
L 316.297485 93.315159 
L 317.189302 95.99299 
L 318.07081 100.00568 
L 318.942242 105.193408 
L 319.803828 108.93766 
L 320.655787 98.561563 
L 321.498332 94.761875 
L 322.331668 93.920364 
L 323.155996 95.042407 
L 323.971507 97.714305 
L 324.778388 101.714253 
L 325.576819 106.879354 
L 326.366977 110.514612 
L 327.14903 100.130242 
L 327.923144 96.322628 
L 328.689477 95.475828 
L 329.448185 96.595999 
L 330.199418 99.269446 
L 330.943322 103.273199 
L 331.680038 108.442353 
L 332.409705 111.991049 
L 333.132454 101.59804 
L 333.848418 97.779147 
L 334.557721 96.919218 
L 335.260487 98.026245 
L 335.956834 100.687583 
L 336.64688 104.68168 
L 337.330737 109.845637 
L 338.008515 113.340468 
L 338.680321 102.95268 
L 339.34626 99.133929 
L 340.006434 98.271782 
L 340.66094 99.373379 
L 341.309876 102.025095 
L 341.953336 106.005742 
L 342.591411 111.152487 
L 343.224191 114.587091 
L 343.851763 104.199386 
L 344.474211 100.380017 
L 345.09162 99.518287 
L 345.704069 100.621168 
L 346.311638 103.274545 
L 346.914405 107.255517 
L 347.512443 112.398893 
L 348.105828 115.773156 
" style="fill:none;stroke:#2ca02c;stroke-dasharray:1.2,1.2;stroke-dashoffset:0;stroke-width:1.2;"/>
   </g>
   <g id="line2d_46">
    <path clip-path="url(#pbf69f419e0)" d="M 61.316071 147.139099 
L 83.251695 146.363279 
L 100.266287 157.502528 
L 114.168221 185.688091 
L 125.922138 178.906513 
L 136.103845 192.405297 
L 145.084746 201.206294 
L 153.118437 155.093448 
L 160.385793 214.393766 
L 167.02037 209.414881 
L 173.123589 212.989891 
L 178.774288 240.419643 
L 184.034962 225.17655 
L 188.955994 225.985789 
L 193.578594 246.551857 
L 197.936896 245.896315 
L 202.059496 248.957909 
L 205.970586 236.453775 
L 209.690813 259.151278 
L 213.237943 221.72632 
L 216.627369 251.079281 
L 219.87252 245.828079 
L 222.985178 246.498553 
L 225.975739 272.462959 
L 228.853422 256.310702 
L 231.626437 258.892859 
L 234.302134 278.879973 
L 236.887112 279.390046 
L 239.387321 266.11545 
" style="fill:none;stroke:#d62728;stroke-dasharray:3.6,1.5,1.8,1.5;stroke-dashoffset:0;stroke-width:1.2;"/>
   </g>
   <g id="line2d_47">
    <path clip-path="url(#pbf69f419e0)" d="M 61.316071 111.692819 
L 83.251695 124.665181 
L 100.266287 138.068425 
L 114.168221 155.965831 
L 125.922138 177.597813 
L 136.103845 160.829242 
L 145.084746 169.978575 
L 153.118437 166.75911 
L 160.385793 157.361383 
L 167.02037 174.41463 
L 173.123589 154.338431 
L 178.774288 153.851446 
L 184.034962 147.530318 
L 188.955994 156.784725 
L 193.578594 149.470042 
L 197.936896 159.218662 
L 202.059496 152.226301 
L 205.970586 149.132434 
L 209.690813 153.505472 
L 213.237943 151.420389 
L 216.627369 148.975674 
L 219.87252 148.74554 
L 222.985178 150.591201 
L 225.975739 150.357785 
L 228.853422 145.113842 
L 231.626437 150.192116 
L 234.302134 155.682701 
L 236.887112 151.802393 
L 239.387321 148.373326 
L 241.808144 146.68955 
L 244.154469 149.423441 
L 246.430743 155.239396 
L 248.641029 146.752872 
L 250.789046 150.763693 
L 252.878205 147.939555 
L 254.911646 152.031641 
L 256.892265 149.372307 
L 258.822736 147.856077 
L 260.705536 149.414482 
" style="fill:none;stroke:#9467bd;stroke-dasharray:6,1.2,1.2,1.2;stroke-dashoffset:0;stroke-width:1.2;"/>
   </g>
   <g id="line2d_48">
    <path clip-path="url(#pbf69f419e0)" d="M 61.316071 111.692819 
L 83.251695 124.665181 
L 100.266287 138.068425 
L 114.168221 161.997894 
L 125.922138 182.55584 
L 136.103845 206.28508 
L 145.084746 169.978575 
L 153.118437 166.758921 
L 160.385793 166.905953 
L 167.02037 174.838874 
L 173.123589 191.112401 
L 178.774288 202.26971 
L 184.034962 204.173599 
L 188.955994 190.494584 
L 193.578594 201.919914 
L 197.936896 190.716269 
L 202.059496 197.902133 
L 205.970586 207.232809 
L 209.690813 216.527775 
L 213.237943 224.087914 
L 216.627369 230.773959 
L 219.87252 211.188285 
L 222.985178 220.483558 
L 225.975739 216.324504 
L 228.853422 218.214785 
L 231.626437 221.823854 
L 234.302134 234.289211 
L 236.887112 239.065359 
L 239.387321 243.696691 
L 241.808144 225.863319 
L 244.154469 235.559159 
L 246.430743 228.753764 
L 248.641029 229.135507 
L 250.789046 236.076663 
L 252.878205 241.422385 
L 254.911646 246.010379 
L 256.892265 255.473722 
L 258.822736 238.865001 
L 260.705536 242.944169 
L 262.542963 240.777581 
L 264.337153 240.080249 
L 266.090093 246.35142 
L 267.803637 254.359125 
L 269.479519 262.005745 
L 271.119357 268.074982 
L 272.72467 247.237793 
L 274.296881 248.810459 
L 275.837328 248.616755 
L 277.347269 248.369541 
L 278.827889 257.354295 
L 280.280305 263.245925 
L 281.705571 269.764499 
L 283.104684 265.856959 
L 284.478587 254.262877 
L 285.828172 260.330078 
L 287.154284 255.986168 
L 288.457727 255.406436 
L 289.739261 263.16361 
L 290.999613 274.076769 
L 292.23947 274.243935 
L 293.459489 275.760232 
L 294.660294 260.327917 
L 295.842481 268.796363 
L 297.006618 259.557742 
L 298.153249 263.387614 
L 299.282893 270.986194 
L 300.396044 280.066671 
L 301.493179 278.564302 
L 302.574751 284.256342 
L 303.641195 267.656171 
L 304.69293 275.816525 
L 305.730354 261.673219 
L 306.753853 270.619092 
L 307.763796 273.480429 
L 308.760536 278.125095 
L 309.744414 283.735638 
L 310.715759 290.935483 
L 311.674885 272.157329 
L 312.622097 279.795888 
L 313.557686 269.783745 
L 314.481934 275.071626 
L 315.395113 276.859899 
L 316.297485 288.886165 
L 317.189302 293.195876 
L 318.07081 294.406914 
L 318.942242 276.709033 
L 319.803828 281.370604 
L 320.655787 276.497244 
L 321.498332 278.160089 
L 322.331668 283.868528 
L 323.155996 293.103008 
L 323.971507 295.718684 
L 324.778388 294.09425 
L 325.576819 280.949433 
L 326.366977 288.729536 
L 327.14903 282.201704 
L 327.923144 278.583859 
L 328.689477 289.622411 
L 329.448185 300.347732 
L 330.199418 299.506395 
L 330.943322 300.310985 
L 331.680038 284.117325 
L 332.409705 292.111784 
L 333.132454 285.745452 
L 333.848418 282.531445 
L 334.557721 294.805087 
L 335.260487 298.103475 
L 335.956834 299.891569 
L 336.64688 305.260577 
L 337.330737 288.433362 
L 338.008515 294.938078 
L 338.680321 287.524218 
L 339.34626 288.886948 
L 340.006434 297.004638 
L 340.66094 300.587991 
L 341.309876 305.92489 
L 341.953336 310.95491 
L 342.591411 291.534183 
L 343.224191 297.084427 
L 343.851763 292.720366 
L 344.474211 293.94283 
L 345.09162 296.795145 
L 345.704069 309.410586 
L 346.311638 312.713977 
L 346.914405 312.137693 
L 347.512443 294.716449 
L 348.105828 297.11489 
" style="fill:none;stroke:#8c564b;stroke-dasharray:3.6,1.5,1.5,1.5,1.5,1.5;stroke-dashoffset:0;stroke-width:1.2;"/>
   </g>
   <g id="line2d_49">
    <path clip-path="url(#pbf69f419e0)" d="M 61.316071 188.592856 
L 83.251695 195.435509 
L 100.266287 188.198788 
L 114.168221 209.41157 
L 125.922138 217.760079 
L 136.103845 208.4791 
L 145.084746 243.761389 
L 153.118437 241.421235 
L 160.385793 249.084008 
L 167.02037 254.431272 
L 173.123589 232.440128 
L 178.774288 249.391703 
L 184.034962 243.535059 
L 188.955994 264.345969 
L 193.578594 269.159679 
L 197.936896 257.885719 
L 202.059496 271.655043 
L 205.970586 257.221195 
L 209.690813 277.400207 
L 213.237943 276.891977 
L 216.627369 266.947967 
L 219.87252 285.05061 
L 222.985178 273.056481 
L 225.975739 290.44804 
L 228.853422 292.439809 
L 231.626437 275.196232 
L 234.302134 293.902799 
L 236.887112 279.093934 
L 239.387321 295.893196 
L 241.808144 302.132795 
L 244.154469 286.449956 
L 246.430743 305.256995 
L 248.641029 291.359977 
L 250.789046 306.232115 
L 252.878205 311.736636 
L 254.911646 292.893409 
L 256.892265 310.027345 
L 258.822736 296.596103 
L 260.705536 314.055013 
L 262.542963 319.084531 
L 264.337153 301.805835 
L 266.090093 318.211238 
L 267.803637 298.492861 
L 269.479519 316.522924 
L 271.119357 319.926129 
L 272.72467 309.209965 
L 274.296881 324.174094 
L 275.837328 308.950341 
L 277.347269 325.934944 
L 278.827889 328.323178 
L 280.280305 307.464669 
L 281.705571 325.027333 
L 283.104684 311.59379 
L 284.478587 309.696723 
" style="fill:none;stroke:#e377c2;stroke-dasharray:4.8,1.2,4.8,1.2,1.2,1.2;stroke-dashoffset:0;stroke-width:1.2;"/>
   </g>
   <g id="line2d_50">
    <path clip-path="url(#pbf69f419e0)" d="M 61.316071 147.139099 
L 83.251695 146.363279 
L 100.266287 157.502528 
L 114.168221 185.688091 
L 125.922138 178.906513 
L 136.103845 192.405297 
L 145.084746 201.206294 
L 153.118437 155.093448 
L 160.385793 214.393766 
L 167.02037 209.414881 
L 173.123589 212.989891 
L 178.774288 240.419643 
L 184.034962 225.17655 
L 188.955994 225.985789 
L 193.578594 246.551857 
L 197.936896 245.896315 
L 202.059496 248.957909 
L 205.970586 236.453775 
L 209.690813 259.151278 
L 213.237943 221.72632 
L 216.627369 251.079281 
L 219.87252 245.828079 
L 222.985178 246.498553 
L 225.975739 272.462959 
L 228.853422 256.310702 
L 231.626437 258.892859 
L 234.302134 278.879973 
L 236.887112 279.390046 
L 239.387321 266.11545 
" style="fill:none;stroke:#7f7f7f;stroke-dasharray:3.6,1.5,3.6,1.5,1.5,1.5;stroke-dashoffset:0;stroke-width:1.2;"/>
   </g>
   <g id="line2d_51">
    <path clip-path="url(#pbf69f419e0)" d="M 61.316071 111.692819 
L 83.251695 124.665181 
L 100.266287 138.068425 
L 114.168221 161.997894 
L 125.922138 182.55584 
L 136.103845 206.28508 
L 145.084746 169.978575 
L 153.118437 166.758921 
L 160.385793 166.905953 
L 167.02037 174.838874 
L 173.123589 191.112401 
L 178.774288 202.26971 
L 184.034962 204.173599 
L 188.955994 190.494584 
L 193.578594 201.919914 
L 197.936896 190.716269 
L 202.059496 197.902133 
L 205.970586 207.232809 
L 209.690813 216.527775 
L 213.237943 224.087914 
L 216.627369 230.773959 
L 219.87252 211.188285 
L 222.985178 220.483558 
L 225.975739 216.324504 
L 228.853422 218.214785 
L 231.626437 221.823854 
L 234.302134 234.289211 
L 236.887112 239.065359 
L 239.387321 243.696691 
L 241.808144 225.863319 
L 244.154469 235.559159 
L 246.430743 228.753764 
L 248.641029 229.135507 
L 250.789046 236.076663 
L 252.878205 241.422385 
L 254.911646 246.010379 
L 256.892265 255.473722 
L 258.822736 238.865001 
L 260.705536 242.944169 
L 262.542963 240.777581 
L 264.337153 240.080249 
L 266.090093 246.35142 
L 267.803637 254.359125 
L 269.479519 262.005745 
L 271.119357 268.074982 
L 272.72467 247.237793 
L 274.296881 248.810459 
L 275.837328 248.616755 
L 277.347269 248.369541 
L 278.827889 257.354295 
L 280.280305 263.245925 
L 281.705571 269.764499 
L 283.104684 265.856959 
L 284.478587 254.262877 
L 285.828172 260.330078 
L 287.154284 255.986168 
L 288.457727 255.406436 
L 289.739261 263.16361 
L 290.999613 274.076769 
L 292.23947 274.243935 
L 293.459489 275.760232 
L 294.660294 260.327917 
L 295.842481 268.796363 
L 297.006618 259.557742 
L 298.153249 263.387614 
L 299.282893 270.986194 
L 300.396044 280.066671 
L 301.493179 278.564302 
L 302.574751 284.256342 
L 303.641195 267.656171 
L 304.69293 275.816525 
L 305.730354 261.673219 
L 306.753853 270.619092 
L 307.763796 273.480429 
L 308.760536 278.125095 
L 309.744414 283.735638 
L 310.715759 290.935483 
L 311.674885 272.157329 
L 312.622097 279.795888 
L 313.557686 269.783745 
L 314.481934 275.071626 
L 315.395113 276.859899 
L 316.297485 288.886165 
L 317.189302 293.195876 
L 318.07081 294.406914 
L 318.942242 276.709033 
L 319.803828 281.370604 
L 320.655787 276.497244 
L 321.498332 278.160089 
L 322.331668 283.868528 
L 323.155996 293.103008 
L 323.971507 295.718684 
L 324.778388 294.09425 
L 325.576819 280.949433 
L 326.366977 288.729536 
L 327.14903 282.201704 
L 327.923144 278.583859 
L 328.689477 289.622411 
L 329.448185 300.347732 
L 330.199418 299.506395 
L 330.943322 300.310985 
L 331.680038 284.117325 
L 332.409705 292.111784 
L 333.132454 285.745452 
L 333.848418 282.531445 
L 334.557721 294.805087 
L 335.260487 298.103475 
L 335.956834 299.891569 
L 336.64688 305.260577 
L 337.330737 288.433362 
" style="fill:none;stroke:#bcbd22;stroke-dasharray:4.8,1.2,1.2,1.2,1.2,1.2;stroke-dashoffset:0;stroke-width:1.2;"/>
   </g>
   <g id="line2d_52"/>
   <g id="line2d_53"/>
   <g id="line2d_54"/>
   <g id="line2d_55"/>
   <g id="line2d_56"/>
   <g id="line2d_57"/>
   <g id="line2d_58"/>
   <g id="line2d_59"/>
   <g id="line2d_60"/>
   <g id="patch_3">
    <path d="M 46.976583 343.012769 
L 46.976583 19.841765 
" style="fill:none;stroke:#cccccc;stroke-linecap:square;stroke-linejoin:miter;"/>
   </g>
   <g id="patch_4">
    <path d="M 46.976583 343.012769 
L 362.445316 343.012769 
" style="fill:none;stroke:#cccccc;stroke-linecap:square;stroke-linejoin:miter;"/>
   </g>
   <g id="text_13">
    <!-- NonsmoothSqrt -->
    <g style="fill:#262626;" transform="translate(170.95185 13.841765)scale(0.096 -0.096)">
     <defs>
      <path d="M 41.5 30.203125 
C 41.5 35.296875 40.5 43.59375 28.703125 43.59375 
C 20.796875 43.59375 16.703125 37.5 15.203125 33.5 
L 15.09375 33.5 
L 15.09375 43.59375 
L 3.296875 42.5 
L 3.296875 39.90625 
C 9.203125 39.90625 10.09375 39.296875 10.09375 34.5 
L 10.09375 6.6875 
C 10.09375 2.875 9.703125 2.390625 3.296875 2.390625 
L 3.296875 -0.203125 
C 5.703125 0 10.09375 0 12.703125 0 
C 15.296875 0 19.796875 0 22.203125 -0.203125 
L 22.203125 2.390625 
C 15.796875 2.390625 15.40625 2.78125 15.40625 6.6875 
L 15.40625 25.90625 
C 15.40625 35.109375 21 42 28 42 
C 35.40625 42 36.203125 35.40625 36.203125 30.59375 
L 36.203125 6.6875 
C 36.203125 2.875 35.796875 2.390625 29.40625 2.390625 
L 29.40625 -0.203125 
C 31.796875 0 36.203125 0 38.796875 0 
C 41.40625 0 45.90625 0 48.296875 -0.203125 
L 48.296875 2.390625 
C 41.90625 2.390625 41.5 2.78125 41.5 6.6875 
z
" id="CMR17-110"/>
      <path d="M 30.90625 42.140625 
C 30.90625 43.953125 30.796875 44.046875 30.203125 44.046875 
C 29.796875 44.046875 29.703125 43.953125 28.5 42.453125 
C 28.203125 42.046875 27.296875 41.03125 27 40.640625 
C 23.796875 44.046875 19.296875 44.046875 17.59375 44.046875 
C 6.5 44.046875 2.5 38.234375 2.5 32.4375 
C 2.5 23.40625 12.703125 21.328125 15.59375 20.703125 
C 21.90625 19.421875 24.09375 19.015625 26.203125 17.203125 
C 27.5 16.015625 29.703125 13.8125 29.703125 10.21875 
C 29.703125 6 27.296875 0.59375 18.09375 0.59375 
C 9.40625 0.59375 6.296875 7.1875 4.5 15.953125 
C 4.203125 17.34375 4.203125 17.453125 3.40625 17.453125 
C 2.59375 17.453125 2.5 17.34375 2.5 15.359375 
L 2.5 0.984375 
C 2.5 -0.796875 2.59375 -0.90625 3.203125 -0.90625 
C 3.703125 -0.90625 3.796875 -0.796875 4.296875 0 
C 4.90625 0.890625 6.40625 3.296875 7 4.3125 
C 9 1.609375 12.5 -1 18.09375 -1 
C 28 -1 33.296875 4.421875 33.296875 12.25 
C 33.296875 17.375 30.59375 20.078125 29.296875 21.28125 
C 26.296875 24.390625 22.796875 25.09375 18.59375 25.890625 
C 13.09375 27.109375 6.09375 28.515625 6.09375 34.640625 
C 6.09375 37.234375 7.5 42.765625 17.59375 42.765625 
C 28.296875 42.765625 28.90625 32.71875 29.09375 29.5 
C 29.203125 29 29.703125 28.890625 30 28.890625 
C 30.90625 28.890625 30.90625 29.203125 30.90625 30.90625 
z
" id="CMR17-115"/>
      <path d="M 15.09375 40 
L 29.09375 40 
L 29.09375 42.578125 
L 15.09375 42.578125 
L 15.09375 61 
L 13.296875 61 
C 13.09375 50.703125 9.59375 41.6875 1.09375 41.6875 
L 1.09375 40 
L 9.796875 40 
L 9.796875 12.046875 
C 9.796875 10.15625 9.796875 -1 21.40625 -1 
C 27.296875 -1 30.703125 4.78125 30.703125 12.140625 
L 30.703125 17.8125 
L 28.90625 17.8125 
L 28.90625 12.234375 
C 28.90625 5.375 26.203125 0.796875 22 0.796875 
C 19.09375 0.796875 15.09375 2.78125 15.09375 11.84375 
z
" id="CMR17-116"/>
      <path d="M 41.5 30.203125 
C 41.5 35.296875 40.5 43.59375 28.703125 43.59375 
C 20.5 43.59375 16.5 37 15.296875 33.703125 
L 15.203125 33.703125 
L 15.203125 68.6875 
L 3.296875 67.59375 
L 3.296875 65 
C 9.203125 65 10.09375 64.40625 10.09375 59.640625 
L 10.09375 6.65625 
C 10.09375 2.875 9.703125 2.390625 3.296875 2.390625 
L 3.296875 -0.203125 
C 5.703125 0 10.09375 0 12.703125 0 
C 15.296875 0 19.796875 0 22.203125 -0.203125 
L 22.203125 2.390625 
C 15.796875 2.390625 15.40625 2.78125 15.40625 6.6875 
L 15.40625 25.90625 
C 15.40625 35.109375 21 42 28 42 
C 35.40625 42 36.203125 35.40625 36.203125 30.59375 
L 36.203125 6.6875 
C 36.203125 2.875 35.796875 2.390625 29.40625 2.390625 
L 29.40625 -0.203125 
C 31.796875 0 36.203125 0 38.796875 0 
C 41.40625 0 45.90625 0 48.296875 -0.203125 
L 48.296875 2.390625 
C 41.90625 2.390625 41.5 2.78125 41.5 6.6875 
z
" id="CMR17-104"/>
      <path d="M 43.796875 67.03125 
C 43.796875 68.8125 43.703125 68.921875 43.09375 68.921875 
C 42.5 68.921875 42.296875 68.515625 41.90625 67.625 
L 38.90625 61.046875 
C 35.09375 66.515625 29.296875 69 23 69 
C 12.796875 69 4.59375 60.953125 4.59375 50.828125 
C 4.59375 47.75 5.296875 43.375 8.703125 39.21875 
C 12.40625 34.65625 15.90625 33.859375 23.90625 31.765625 
C 26.90625 30.96875 31.90625 29.671875 32.90625 29.28125 
C 38.59375 26.90625 41.59375 20.953125 41.59375 15.390625 
C 41.59375 8.234375 36.5 0.59375 27.796875 0.59375 
C 17.09375 0.59375 7.09375 6.546875 6.40625 20.484375 
C 6.296875 22.078125 6.203125 22.171875 5.5 22.171875 
C 4.703125 22.171875 4.59375 22.078125 4.59375 20.078125 
L 4.59375 -0.015625 
C 4.59375 -1.796875 4.703125 -1.90625 5.296875 -1.90625 
C 6 -1.90625 6.203125 -1.40625 7.59375 1.6875 
C 7.703125 1.984375 7.703125 2.1875 9.59375 5.953125 
C 14.59375 -0.609375 23 -2 27.796875 -2 
C 38.703125 -2 46.40625 7.046875 46.40625 17.5625 
C 46.40625 22.71875 44.5 26.6875 43.40625 28.484375 
C 39.203125 34.84375 34.703125 36.03125 29.90625 37.21875 
C 29.203125 37.53125 29 37.53125 23.40625 38.90625 
C 18 40.296875 15.703125 41 13.203125 43.6875 
C 10.40625 46.75 9.40625 49.9375 9.40625 53.109375 
C 9.40625 59.5625 14.59375 66.609375 23.09375 66.609375 
C 33.703125 66.609375 40.296875 59.15625 41.796875 46.765625 
C 42.09375 44.96875 42.203125 44.875 42.90625 44.875 
C 43.796875 44.875 43.796875 45.171875 43.796875 46.859375 
z
" id="CMR17-83"/>
      <path d="M 41.09375 43.78125 
L 39.5 43.78125 
L 36.5 33.9375 
C 34.203125 39.203125 30 43.78125 23.296875 43.78125 
C 13.09375 43.78125 3.296875 34.734375 3.296875 21.609375 
C 3.296875 8.5625 12.5 -0.59375 22.5 -0.59375 
C 30.203125 -0.59375 34.5 5.28125 35.796875 7.46875 
L 35.796875 -12.328125 
C 35.796875 -16.109375 35.40625 -16.609375 29 -16.609375 
L 29 -19.1875 
C 31.40625 -19 35.796875 -19 38.40625 -19 
C 41 -19 45.5 -19 47.90625 -19.1875 
L 47.90625 -16.609375 
C 41.5 -16.609375 41.09375 -16.203125 41.09375 -12.328125 
z
M 36 13.84375 
C 36 9.5625 32.40625 5.578125 32.09375 5.28125 
C 29 1.796875 25.40625 1 23 1 
C 15.5 1 9.703125 10.453125 9.703125 21.484375 
C 9.703125 33.140625 16.296875 42 24 42 
C 32 42 36 32.9375 36 27.765625 
z
" id="CMR17-113"/>
     </defs>
     <use transform="scale(0.996264)" xlink:href="#CMR17-78"/>
     <use transform="translate(69.07243 0)scale(0.996264)" xlink:href="#CMR17-111"/>
     <use transform="translate(114.762907 0)scale(0.996264)" xlink:href="#CMR17-110"/>
     <use transform="translate(165.658277 0)scale(0.996264)" xlink:href="#CMR17-115"/>
     <use transform="translate(201.459614 0)scale(0.996264)" xlink:href="#CMR17-109"/>
     <use transform="translate(278.379204 0)scale(0.996264)" xlink:href="#CMR17-111"/>
     <use transform="translate(326.67212 0)scale(0.996264)" xlink:href="#CMR17-111"/>
     <use transform="translate(372.362597 0)scale(0.996264)" xlink:href="#CMR17-116"/>
     <use transform="translate(407.643365 0)scale(0.996264)" xlink:href="#CMR17-104"/>
     <use transform="translate(458.538735 0)scale(0.996264)" xlink:href="#CMR17-83"/>
     <use transform="translate(509.434105 0)scale(0.996264)" xlink:href="#CMR17-113"/>
     <use transform="translate(557.72702 0)scale(0.996264)" xlink:href="#CMR17-114"/>
     <use transform="translate(593.007788 0)scale(0.996264)" xlink:href="#CMR17-116"/>
    </g>
   </g>
  </g>
  <g id="legend_1">
   <g id="text_14">
    <!-- calculator -->
    <g style="fill:#262626;" transform="translate(399.076744 133.989944)scale(0.096 -0.096)">
     <defs>
      <path d="M 34.90625 35 
C 33 35 30.203125 35 30.203125 31.515625 
C 30.203125 28.71875 32.5 27.921875 33.796875 27.921875 
C 34.5 27.921875 37.40625 28.234375 37.40625 31.625 
C 37.40625 38.546875 30.59375 43.796875 22.90625 43.796875 
C 12.296875 43.796875 3.296875 34.03125 3.296875 21.296875 
C 3.296875 8.0625 12.703125 -1 22.90625 -1 
C 35.296875 -1 38.40625 10.578125 38.40625 11.6875 
C 38.40625 12.09375 38.296875 12.390625 37.59375 12.390625 
C 36.90625 12.390625 36.796875 12.296875 36.40625 10.984375 
C 33.796875 2.8125 28.09375 0.796875 23.796875 0.796875 
C 17.40625 0.796875 9.703125 6.671875 9.703125 21.390625 
C 9.703125 36.53125 17.09375 42 23 42 
C 26.90625 42 32.703125 40.203125 34.90625 35 
z
" id="CMR17-99"/>
      <path d="M 15.296875 68.6875 
L 3.40625 67.59375 
L 3.40625 65 
C 9.296875 65 10.203125 64.40625 10.203125 59.640625 
L 10.203125 6.65625 
C 10.203125 2.875 9.796875 2.390625 3.40625 2.390625 
L 3.40625 -0.203125 
C 5.796875 0 10.203125 0 12.703125 0 
C 15.296875 0 19.703125 0 22.09375 -0.203125 
L 22.09375 2.390625 
C 15.703125 2.390625 15.296875 2.78125 15.296875 6.65625 
z
" id="CMR17-108"/>
     </defs>
     <use transform="scale(0.996264)" xlink:href="#CMR17-99"/>
     <use transform="translate(40.48566 0)scale(0.996264)" xlink:href="#CMR17-97"/>
     <use transform="translate(86.176138 0)scale(0.996264)" xlink:href="#CMR17-108"/>
     <use transform="translate(111.047196 0)scale(0.996264)" xlink:href="#CMR17-99"/>
     <use transform="translate(151.532857 0)scale(0.996264)" xlink:href="#CMR17-117"/>
     <use transform="translate(202.428226 0)scale(0.996264)" xlink:href="#CMR17-108"/>
     <use transform="translate(227.299285 0)scale(0.996264)" xlink:href="#CMR17-97"/>
     <use transform="translate(272.989762 0)scale(0.996264)" xlink:href="#CMR17-116"/>
     <use transform="translate(308.27053 0)scale(0.996264)" xlink:href="#CMR17-111"/>
     <use transform="translate(353.961007 0)scale(0.996264)" xlink:href="#CMR17-114"/>
    </g>
   </g>
   <g id="line2d_61">
    <path d="M 369.05683 143.993069 
L 386.65683 143.993069 
" style="fill:none;stroke:#1f77b4;stroke-linecap:round;stroke-width:1.2;"/>
   </g>
   <g id="line2d_62"/>
   <g id="text_15">
    <!-- CPUBicubicQuad -->
    <g style="fill:#262626;" transform="translate(393.69683 147.073069)scale(0.088 -0.088)">
     <defs>
      <path d="M 62.09375 67.015625 
C 62.09375 68.796875 62 68.90625 61.40625 68.90625 
C 61 68.90625 60.90625 68.796875 60.203125 67.609375 
L 55.796875 59.25 
C 50.90625 65.421875 44.90625 69 37.203125 69 
C 20.09375 69 4.59375 54 4.59375 33.5625 
C 4.59375 12.90625 20.09375 -2 37.296875 -2 
C 52.59375 -2 62.09375 11.40625 62.09375 22.828125 
C 62.09375 23.8125 62.09375 24.21875 61.203125 24.21875 
C 60.40625 24.21875 60.40625 23.921875 60.296875 23.03125 
C 59.5 9.140625 49.5 0.59375 38.703125 0.59375 
C 28.5 0.59375 12.203125 7.734375 12.203125 33.546875 
C 12.203125 59.453125 28.796875 66.40625 38.5 66.40625 
C 49.796875 66.40625 58 56.6875 59.90625 42.890625 
C 60.09375 41.6875 60.09375 41.484375 61 41.484375 
C 62.09375 41.484375 62.09375 41.6875 62.09375 43.484375 
z
" id="CMR17-67"/>
      <path d="M 19.796875 31.90625 
L 35.796875 31.90625 
C 48.703125 31.90625 58.09375 40.28125 58.09375 49.75 
C 58.09375 59.234375 48.90625 68 35.796875 68 
L 5.203125 68 
L 5.203125 65.40625 
C 12.09375 65.40625 13.203125 65.40625 13.203125 60.921875 
L 13.203125 6.96875 
C 13.203125 2.5 12.09375 2.5 5.203125 2.5 
L 5.203125 0 
C 8.09375 0 13.40625 0 16.5 0 
C 19.59375 0 24.90625 0 27.796875 0 
L 27.796875 2.5 
C 20.90625 2.5 19.796875 2.5 19.796875 6.96875 
z
M 19.59375 34 
L 19.59375 61.53125 
C 19.59375 64.921875 19.796875 65.40625 23.796875 65.40625 
L 33.90625 65.40625 
C 46.796875 65.40625 50.5 58.03125 50.5 49.75 
C 50.5 40.6875 46.09375 34 33.90625 34 
z
" id="CMR17-80"/>
      <path d="M 54 22.390625 
C 54 9.046875 45.296875 0.59375 35.796875 0.59375 
C 30.703125 0.59375 26.09375 3.28125 23.296875 7.453125 
C 20.09375 12.234375 19.703125 18.40625 19.703125 21.890625 
L 19.703125 60.53125 
C 19.703125 65 20.796875 65 27.703125 65 
L 27.703125 67.5 
C 24.796875 67.5 19.5 67.5 16.40625 67.5 
C 13.296875 67.5 8 67.5 5.09375 67.5 
L 5.09375 65 
C 12 65 13.09375 65 13.09375 60.53125 
L 13.09375 22.390625 
C 13.09375 8.0625 24 -2 35.59375 -2 
C 48.59375 -2 56.09375 11.234375 56.09375 21 
L 56.09375 58.84375 
C 56.09375 64.40625 61.203125 65 64.09375 65 
L 64.09375 67.59375 
C 61.796875 67.5 57.59375 67.5 55.09375 67.5 
C 52.59375 67.5 48.296875 67.5 46 67.59375 
L 46 65 
C 54 65 54 60.328125 54 57.84375 
z
" id="CMR17-85"/>
      <path d="M 5.203125 68 
L 5.203125 65.40625 
C 12.09375 65.40625 13.203125 65.40625 13.203125 60.9375 
L 13.203125 7.0625 
C 13.203125 2.59375 12.09375 2.59375 5.203125 2.59375 
L 5.203125 0 
L 39.59375 0 
C 52.40625 0 60.703125 9.109375 60.703125 18.1875 
C 60.703125 27.203125 52.5 34.890625 41.796875 34.890625 
C 51.40625 36.8125 58.09375 43.296875 58.09375 51 
C 58.09375 59.40625 49.90625 68 37 68 
z
M 19.5 36 
L 19.5 61.515625 
C 19.5 64.921875 19.703125 65.40625 23.703125 65.40625 
L 36.5 65.40625 
C 46.40625 65.40625 50.796875 57.40625 50.796875 51.203125 
C 50.796875 43.609375 44.703125 36 33.90625 36 
z
M 23.703125 2.59375 
C 19.703125 2.59375 19.5 3.078125 19.5 6.453125 
L 19.5 34.40625 
L 38 34.40625 
C 48.296875 34.40625 53.296875 25.390625 53.296875 18.15625 
C 53.296875 10.921875 47.59375 2.59375 36.703125 2.59375 
z
" id="CMR17-66"/>
      <path d="M 15 68.6875 
L 3.09375 67.59375 
L 3.09375 65 
C 9 65 9.90625 64.40625 9.90625 59.640625 
L 9.90625 -0.203125 
L 11.703125 -0.203125 
L 14.59375 6.890625 
C 17.5 2.203125 21.796875 -1 27.59375 -1 
C 37.59375 -1 47.703125 7.8125 47.703125 21.40625 
C 47.703125 34.1875 38.703125 43.59375 28.59375 43.59375 
C 22.40625 43.59375 18 40.296875 15 36.40625 
z
M 15.203125 31.3125 
C 15.203125 33.09375 15.203125 33.40625 16.59375 35.5 
C 20.5 41.515625 26.09375 42 28 42 
C 31 42 41.296875 40.390625 41.296875 21.5 
C 41.296875 1.6875 29.5 0.59375 27.09375 0.59375 
C 24 0.59375 19.5 1.78125 16.296875 7.59375 
C 15.203125 9.5 15.203125 9.703125 15.203125 11.484375 
z
" id="CMR17-98"/>
      <path d="M 47.296875 1.296875 
C 59.203125 6.375 67.296875 19.3125 67.296875 34.265625 
C 67.296875 54.671875 52.59375 70 36 70 
C 19 70 4.59375 54.5 4.59375 34.359375 
C 4.59375 14.5 19 -1 36 -1 
C 38.296875 -1 41.5 -0.703125 45.296875 0.59375 
C 47 -11.671875 48.09375 -19 56.703125 -19 
C 67.296875 -19 67.796875 -3.328125 67.796875 -0.515625 
C 67.796875 0.5 67.796875 1.1875 67.09375 1.1875 
C 66.59375 1.1875 66.5 0.484375 66.5 0.28125 
C 65.796875 -9.421875 60.40625 -11.4375 57.203125 -11.4375 
C 51.296875 -11.4375 49.203125 -6.15625 47.296875 1.296875 
z
M 30.59375 1.5625 
C 20.203125 4.84375 12 15.890625 12 34.359375 
C 12 57.984375 25.09375 68.203125 35.90625 68.203125 
C 47.09375 68.203125 59.90625 57.59375 59.90625 34.34375 
C 59.90625 17.5625 53.203125 8.234375 46.5 3.96875 
C 45 9.046875 42.59375 15 36.09375 15 
C 31.296875 15 28.59375 10.8125 28.59375 7.03125 
C 28.59375 4.75 29.5 2.859375 30.59375 1.5625 
z
M 44.90625 3 
C 40.90625 0.890625 37.703125 0.890625 36 0.890625 
C 31.5 0.890625 30.203125 4.921875 30.203125 7.09375 
C 30.203125 10.15625 32.296875 13.40625 36.09375 13.40625 
C 42.5 13.40625 44.09375 7.703125 44.90625 3 
z
" id="CMR17-81"/>
      <path d="M 29.203125 67.59375 
L 29.203125 65 
C 35.09375 65 36 64.40625 36 59.6875 
L 36 36.640625 
C 35.59375 37.140625 31.5 43.59375 23.40625 43.59375 
C 13.203125 43.59375 3.296875 34.5 3.296875 21.3125 
C 3.296875 8.203125 12.59375 -1 22.40625 -1 
C 30.90625 -1 35.296875 5.265625 35.796875 5.9375 
L 35.796875 -0.984375 
L 47.90625 -0.984375 
L 47.90625 2 
C 42 2 41.09375 2.59375 41.09375 7.390625 
L 41.09375 68.6875 
z
M 35.796875 11.796875 
C 35.796875 8.796875 34 6.09375 31.703125 4.09375 
C 28.296875 1.09375 24.90625 0.59375 23 0.59375 
C 20.09375 0.59375 9.703125 2.09375 9.703125 21.1875 
C 9.703125 40.8125 21.296875 42 23.90625 42 
C 28.5 42 32.203125 39.40625 34.5 35.796875 
C 35.796875 33.703125 35.796875 33.40625 35.796875 31.609375 
z
" id="CMR17-100"/>
     </defs>
     <use transform="scale(0.996264)" xlink:href="#CMR17-67"/>
     <use transform="translate(66.509881 0)scale(0.996264)" xlink:href="#CMR17-80"/>
     <use transform="translate(129.096181 0)scale(0.996264)" xlink:href="#CMR17-85"/>
     <use transform="translate(198.168611 0)scale(0.996264)" xlink:href="#CMR17-66"/>
     <use transform="translate(263.357365 0)scale(0.996264)" xlink:href="#CMR17-105"/>
     <use transform="translate(288.228424 0)scale(0.996264)" xlink:href="#CMR17-99"/>
     <use transform="translate(328.714084 0)scale(0.996264)" xlink:href="#CMR17-117"/>
     <use transform="translate(379.609454 0)scale(0.996264)" xlink:href="#CMR17-98"/>
     <use transform="translate(430.504824 0)scale(0.996264)" xlink:href="#CMR17-105"/>
     <use transform="translate(455.375882 0)scale(0.996264)" xlink:href="#CMR17-99"/>
     <use transform="translate(495.861543 0)scale(0.996264)" xlink:href="#CMR17-81"/>
     <use transform="translate(567.576331 0)scale(0.996264)" xlink:href="#CMR17-117"/>
     <use transform="translate(618.471701 0)scale(0.996264)" xlink:href="#CMR17-97"/>
     <use transform="translate(664.162178 0)scale(0.996264)" xlink:href="#CMR17-100"/>
    </g>
   </g>
   <g id="line2d_63">
    <path d="M 369.05683 156.909819 
L 386.65683 156.909819 
" style="fill:none;stroke:#ff7f0e;stroke-dasharray:4.8,1.8;stroke-dashoffset:0;stroke-width:1.2;"/>
   </g>
   <g id="line2d_64"/>
   <g id="text_16">
    <!-- CPUBicubicSparse -->
    <g style="fill:#262626;" transform="translate(393.69683 159.989819)scale(0.088 -0.088)">
     <defs>
      <path d="M 22 -16.609375 
C 15.59375 -16.609375 15.203125 -16.203125 15.203125 -12.328125 
L 15.203125 6.28125 
C 18.09375 2.09375 22.296875 -0.59375 27.59375 -0.59375 
C 37.59375 -0.59375 47.703125 8.171875 47.703125 21.6875 
C 47.703125 34.234375 39 43.78125 28.703125 43.78125 
C 22.703125 43.78125 17.796875 40.5 15 36.53125 
L 15 43.78125 
L 3.09375 42.6875 
L 3.09375 40.109375 
C 9 40.109375 9.90625 39.5 9.90625 34.734375 
L 9.90625 -12.328125 
C 9.90625 -16.109375 9.5 -16.609375 3.09375 -16.609375 
L 3.09375 -19.1875 
C 5.5 -19 9.90625 -19 12.5 -19 
C 15.09375 -19 19.59375 -19 22 -19.1875 
z
M 15.203125 31.4375 
C 15.203125 32.84375 15.203125 34.921875 19.09375 38.609375 
C 19.59375 39.015625 23 42 28 42 
C 35.296875 42 41.296875 32.9375 41.296875 21.59375 
C 41.296875 10.25 34.90625 1 27 1 
C 23.40625 1 19.5 2.6875 16.5 7.375 
C 15.203125 9.5625 15.203125 10.15625 15.203125 11.75 
z
" id="CMR17-112"/>
      <path d="M 38.09375 23 
C 38.5 23.40625 38.5 23.609375 38.5 24.625 
C 38.5 34.96875 33.09375 44 21.703125 44 
C 11.09375 44 2.703125 33.890625 2.703125 21.609375 
C 2.703125 8.609375 12.203125 -1 22.796875 -1 
C 34 -1 38.40625 9.484375 38.40625 11.5625 
C 38.40625 12.25 37.796875 12.25 37.59375 12.25 
C 36.90625 12.25 36.796875 12.046875 36.40625 10.875 
C 34.203125 4.140625 28.703125 0.796875 23.5 0.796875 
C 19.203125 0.796875 14.90625 3.171875 12.203125 7.5 
C 9.09375 12.546875 9.09375 18.375 9.09375 23 
z
M 9.203125 24.5 
C 9.90625 39.140625 17.59375 42.40625 21.59375 42.40625 
C 28.40625 42.40625 33 35.890625 33.09375 24.5 
z
" id="CMR17-101"/>
     </defs>
     <use transform="scale(0.996264)" xlink:href="#CMR17-67"/>
     <use transform="translate(66.509881 0)scale(0.996264)" xlink:href="#CMR17-80"/>
     <use transform="translate(129.096181 0)scale(0.996264)" xlink:href="#CMR17-85"/>
     <use transform="translate(198.168611 0)scale(0.996264)" xlink:href="#CMR17-66"/>
     <use transform="translate(263.357365 0)scale(0.996264)" xlink:href="#CMR17-105"/>
     <use transform="translate(288.228424 0)scale(0.996264)" xlink:href="#CMR17-99"/>
     <use transform="translate(328.714084 0)scale(0.996264)" xlink:href="#CMR17-117"/>
     <use transform="translate(379.609454 0)scale(0.996264)" xlink:href="#CMR17-98"/>
     <use transform="translate(430.504824 0)scale(0.996264)" xlink:href="#CMR17-105"/>
     <use transform="translate(455.375882 0)scale(0.996264)" xlink:href="#CMR17-99"/>
     <use transform="translate(495.861543 0)scale(0.996264)" xlink:href="#CMR17-83"/>
     <use transform="translate(546.756913 0)scale(0.996264)" xlink:href="#CMR17-112"/>
     <use transform="translate(597.652282 0)scale(0.996264)" xlink:href="#CMR17-97"/>
     <use transform="translate(643.342759 0)scale(0.996264)" xlink:href="#CMR17-114"/>
     <use transform="translate(678.623527 0)scale(0.996264)" xlink:href="#CMR17-115"/>
     <use transform="translate(714.424865 0)scale(0.996264)" xlink:href="#CMR17-101"/>
    </g>
   </g>
   <g id="line2d_65">
    <path d="M 369.05683 169.826569 
L 386.65683 169.826569 
" style="fill:none;stroke:#2ca02c;stroke-dasharray:1.2,1.2;stroke-dashoffset:0;stroke-width:1.2;"/>
   </g>
   <g id="line2d_66"/>
   <g id="text_17">
    <!-- CPUDCTPadded -->
    <g style="fill:#262626;" transform="translate(393.69683 172.906569)scale(0.088 -0.088)">
     <defs>
      <path d="M 5.203125 68 
L 5.203125 65.40625 
C 12.09375 65.40625 13.203125 65.40625 13.203125 60.9375 
L 13.203125 7.0625 
C 13.203125 2.59375 12.09375 2.59375 5.203125 2.59375 
L 5.203125 0 
L 37 0 
C 53.09375 0 66 14.734375 66 33.453125 
C 66 52.28125 53.296875 68 37 68 
z
M 23.796875 2.59375 
C 19.796875 2.59375 19.59375 3.078125 19.59375 6.46875 
L 19.59375 61.53125 
C 19.59375 64.921875 19.796875 65.40625 23.796875 65.40625 
L 35 65.40625 
C 43.296875 65.40625 58.59375 60.53125 58.59375 33.453125 
C 58.59375 19.40625 54.5 13.734375 52.59375 11.046875 
C 50.203125 7.96875 44.5 2.59375 35 2.59375 
z
" id="CMR17-68"/>
      <path d="M 62.203125 67.59375 
L 4.5 67.59375 
L 2.796875 45.59375 
L 4.59375 45.59375 
C 5.90625 62.125 7.296875 65 22.703125 65 
C 24.5 65 27.40625 65 28.203125 64.90625 
C 30.09375 64.609375 30.09375 63.40625 30.09375 61.125 
L 30.09375 7.171875 
C 30.09375 3.59375 29.796875 2.5 21.5 2.5 
L 18.703125 2.5 
L 18.703125 0 
C 23.5 0 28.5 0 33.40625 0 
C 38.296875 0 43.296875 0 48.09375 0 
L 48.09375 2.5 
L 45.296875 2.5 
C 37 2.5 36.703125 3.59375 36.703125 7.171875 
L 36.703125 61.125 
C 36.703125 63.3125 36.703125 64.515625 38.5 64.90625 
C 39.296875 65 42.203125 65 44 65 
C 59.296875 65 60.796875 62.125 62.09375 45.59375 
L 63.90625 45.59375 
z
" id="CMR17-84"/>
     </defs>
     <use transform="scale(0.996264)" xlink:href="#CMR17-67"/>
     <use transform="translate(66.509881 0)scale(0.996264)" xlink:href="#CMR17-80"/>
     <use transform="translate(129.096181 0)scale(0.996264)" xlink:href="#CMR17-85"/>
     <use transform="translate(198.168611 0)scale(0.996264)" xlink:href="#CMR17-68"/>
     <use transform="translate(268.562167 0)scale(0.996264)" xlink:href="#CMR17-67"/>
     <use transform="translate(335.072047 0)scale(0.996264)" xlink:href="#CMR17-84"/>
     <use transform="translate(401.581928 0)scale(0.996264)" xlink:href="#CMR17-80"/>
     <use transform="translate(461.565774 0)scale(0.996264)" xlink:href="#CMR17-97"/>
     <use transform="translate(507.256252 0)scale(0.996264)" xlink:href="#CMR17-100"/>
     <use transform="translate(558.151621 0)scale(0.996264)" xlink:href="#CMR17-100"/>
     <use transform="translate(609.046991 0)scale(0.996264)" xlink:href="#CMR17-101"/>
     <use transform="translate(649.532652 0)scale(0.996264)" xlink:href="#CMR17-100"/>
    </g>
   </g>
   <g id="line2d_67">
    <path d="M 369.05683 182.743319 
L 386.65683 182.743319 
" style="fill:none;stroke:#d62728;stroke-dasharray:3.6,1.5,1.8,1.5;stroke-dashoffset:0;stroke-width:1.2;"/>
   </g>
   <g id="line2d_68"/>
   <g id="text_18">
    <!-- CPUChebDense -->
    <g style="fill:#262626;" transform="translate(393.69683 185.823319)scale(0.088 -0.088)">
     <use transform="scale(0.996264)" xlink:href="#CMR17-67"/>
     <use transform="translate(66.509881 0)scale(0.996264)" xlink:href="#CMR17-80"/>
     <use transform="translate(129.096181 0)scale(0.996264)" xlink:href="#CMR17-85"/>
     <use transform="translate(198.168611 0)scale(0.996264)" xlink:href="#CMR17-67"/>
     <use transform="translate(264.678491 0)scale(0.996264)" xlink:href="#CMR17-104"/>
     <use transform="translate(315.573861 0)scale(0.996264)" xlink:href="#CMR17-101"/>
     <use transform="translate(356.059522 0)scale(0.996264)" xlink:href="#CMR17-98"/>
     <use transform="translate(406.954891 0)scale(0.996264)" xlink:href="#CMR17-68"/>
     <use transform="translate(477.348447 0)scale(0.996264)" xlink:href="#CMR17-101"/>
     <use transform="translate(517.834108 0)scale(0.996264)" xlink:href="#CMR17-110"/>
     <use transform="translate(568.729478 0)scale(0.996264)" xlink:href="#CMR17-115"/>
     <use transform="translate(604.530815 0)scale(0.996264)" xlink:href="#CMR17-101"/>
    </g>
   </g>
   <g id="line2d_69">
    <path d="M 369.05683 195.660069 
L 386.65683 195.660069 
" style="fill:none;stroke:#9467bd;stroke-dasharray:6,1.2,1.2,1.2;stroke-dashoffset:0;stroke-width:1.2;"/>
   </g>
   <g id="line2d_70"/>
   <g id="text_19">
    <!-- CPULinearQuad -->
    <g style="fill:#262626;" transform="translate(393.69683 198.740069)scale(0.088 -0.088)">
     <defs>
      <path d="M 54.203125 25.234375 
L 52.40625 25.234375 
C 51.59375 15.359375 50.296875 2.59375 33.203125 2.59375 
L 23.90625 2.59375 
C 19.90625 2.59375 19.703125 3.078125 19.703125 6.46875 
L 19.703125 60.90625 
C 19.703125 64.515625 19.90625 65.5 27.5 65.5 
L 29.703125 65.5 
L 29.703125 68 
C 25.59375 68 20.796875 68 16.703125 68 
C 13.59375 68 8 68 5.09375 68 
L 5.09375 65.5 
C 12 65.5 13.09375 65.5 13.09375 61.015625 
L 13.09375 7.0625 
C 13.09375 2.59375 12 2.59375 5.09375 2.59375 
L 5.09375 0 
L 51.796875 0 
z
" id="CMR17-76"/>
     </defs>
     <use transform="scale(0.996264)" xlink:href="#CMR17-67"/>
     <use transform="translate(66.509881 0)scale(0.996264)" xlink:href="#CMR17-80"/>
     <use transform="translate(129.096181 0)scale(0.996264)" xlink:href="#CMR17-85"/>
     <use transform="translate(198.168611 0)scale(0.996264)" xlink:href="#CMR17-76"/>
     <use transform="translate(255.550019 0)scale(0.996264)" xlink:href="#CMR17-105"/>
     <use transform="translate(280.421077 0)scale(0.996264)" xlink:href="#CMR17-110"/>
     <use transform="translate(331.316447 0)scale(0.996264)" xlink:href="#CMR17-101"/>
     <use transform="translate(371.802107 0)scale(0.996264)" xlink:href="#CMR17-97"/>
     <use transform="translate(417.492585 0)scale(0.996264)" xlink:href="#CMR17-114"/>
     <use transform="translate(452.773352 0)scale(0.996264)" xlink:href="#CMR17-81"/>
     <use transform="translate(524.488141 0)scale(0.996264)" xlink:href="#CMR17-117"/>
     <use transform="translate(575.383511 0)scale(0.996264)" xlink:href="#CMR17-97"/>
     <use transform="translate(621.073988 0)scale(0.996264)" xlink:href="#CMR17-100"/>
    </g>
   </g>
   <g id="line2d_71">
    <path d="M 369.05683 208.576819 
L 386.65683 208.576819 
" style="fill:none;stroke:#8c564b;stroke-dasharray:3.6,1.5,1.5,1.5,1.5,1.5;stroke-dashoffset:0;stroke-width:1.2;"/>
   </g>
   <g id="line2d_72"/>
   <g id="text_20">
    <!-- CPULinearSparse -->
    <g style="fill:#262626;" transform="translate(393.69683 211.656819)scale(0.088 -0.088)">
     <use transform="scale(0.996264)" xlink:href="#CMR17-67"/>
     <use transform="translate(66.509881 0)scale(0.996264)" xlink:href="#CMR17-80"/>
     <use transform="translate(129.096181 0)scale(0.996264)" xlink:href="#CMR17-85"/>
     <use transform="translate(198.168611 0)scale(0.996264)" xlink:href="#CMR17-76"/>
     <use transform="translate(255.550019 0)scale(0.996264)" xlink:href="#CMR17-105"/>
     <use transform="translate(280.421077 0)scale(0.996264)" xlink:href="#CMR17-110"/>
     <use transform="translate(331.316447 0)scale(0.996264)" xlink:href="#CMR17-101"/>
     <use transform="translate(371.802107 0)scale(0.996264)" xlink:href="#CMR17-97"/>
     <use transform="translate(417.492585 0)scale(0.996264)" xlink:href="#CMR17-114"/>
     <use transform="translate(452.773352 0)scale(0.996264)" xlink:href="#CMR17-83"/>
     <use transform="translate(503.668722 0)scale(0.996264)" xlink:href="#CMR17-112"/>
     <use transform="translate(554.564092 0)scale(0.996264)" xlink:href="#CMR17-97"/>
     <use transform="translate(600.254569 0)scale(0.996264)" xlink:href="#CMR17-114"/>
     <use transform="translate(635.535337 0)scale(0.996264)" xlink:href="#CMR17-115"/>
     <use transform="translate(671.336674 0)scale(0.996264)" xlink:href="#CMR17-101"/>
    </g>
   </g>
   <g id="line2d_73">
    <path d="M 369.05683 221.493569 
L 386.65683 221.493569 
" style="fill:none;stroke:#e377c2;stroke-dasharray:4.8,1.2,4.8,1.2,1.2,1.2;stroke-dashoffset:0;stroke-width:1.2;"/>
   </g>
   <g id="line2d_74"/>
   <g id="text_21">
    <!-- GPUBicubicSparse -->
    <g style="fill:#262626;" transform="translate(393.69683 224.573569)scale(0.088 -0.088)">
     <defs>
      <path d="M 62.09375 19.265625 
C 62.09375 23.015625 62.40625 23.515625 68.59375 23.515625 
L 68.59375 26.09375 
C 66.203125 26 60.796875 26 58.09375 26 
C 55.296875 26 47.5 26 43.703125 26 
L 43.703125 23.515625 
L 46.703125 23.515625 
C 55.296875 23.515625 55.5 22.40625 55.5 18.765625 
L 55.5 12.09375 
C 55.5 0.984375 42.5 0.984375 39.40625 0.984375 
C 29.09375 0.984375 12.203125 7.984375 12.203125 33.75 
C 12.203125 59.5 28.796875 66.40625 38.5 66.40625 
C 49.796875 66.40625 58 56.65625 59.90625 42.828125 
C 60.09375 41.625 60.09375 41.421875 61 41.421875 
C 62.09375 41.421875 62.09375 41.625 62.09375 43.421875 
L 62.09375 67 
C 62.09375 68.78125 62 68.890625 61.40625 68.890625 
C 61 68.890625 60.90625 68.78125 60.203125 67.59375 
L 55.796875 59.234375 
C 50.90625 65.421875 44.90625 69 37.203125 69 
C 20.09375 69 4.59375 54 4.59375 33.5625 
C 4.59375 13.203125 19.796875 -2 37.40625 -2 
C 45.5 -2 53.40625 0.875 56.5 6.515625 
C 58.203125 2.46875 61 -0.3125 61.5 -0.3125 
C 62 -0.3125 62.09375 -0.203125 62.09375 1.5625 
z
" id="CMR17-71"/>
     </defs>
     <use transform="scale(0.996264)" xlink:href="#CMR17-71"/>
     <use transform="translate(72.355346 0)scale(0.996264)" xlink:href="#CMR17-80"/>
     <use transform="translate(134.941646 0)scale(0.996264)" xlink:href="#CMR17-85"/>
     <use transform="translate(204.014076 0)scale(0.996264)" xlink:href="#CMR17-66"/>
     <use transform="translate(269.202831 0)scale(0.996264)" xlink:href="#CMR17-105"/>
     <use transform="translate(294.073889 0)scale(0.996264)" xlink:href="#CMR17-99"/>
     <use transform="translate(334.55955 0)scale(0.996264)" xlink:href="#CMR17-117"/>
     <use transform="translate(385.454919 0)scale(0.996264)" xlink:href="#CMR17-98"/>
     <use transform="translate(436.350289 0)scale(0.996264)" xlink:href="#CMR17-105"/>
     <use transform="translate(461.221348 0)scale(0.996264)" xlink:href="#CMR17-99"/>
     <use transform="translate(501.707008 0)scale(0.996264)" xlink:href="#CMR17-83"/>
     <use transform="translate(552.602378 0)scale(0.996264)" xlink:href="#CMR17-112"/>
     <use transform="translate(603.497748 0)scale(0.996264)" xlink:href="#CMR17-97"/>
     <use transform="translate(649.188225 0)scale(0.996264)" xlink:href="#CMR17-114"/>
     <use transform="translate(684.468993 0)scale(0.996264)" xlink:href="#CMR17-115"/>
     <use transform="translate(720.27033 0)scale(0.996264)" xlink:href="#CMR17-101"/>
    </g>
   </g>
   <g id="line2d_75">
    <path d="M 369.05683 234.410319 
L 386.65683 234.410319 
" style="fill:none;stroke:#7f7f7f;stroke-dasharray:3.6,1.5,3.6,1.5,1.5,1.5;stroke-dashoffset:0;stroke-width:1.2;"/>
   </g>
   <g id="line2d_76"/>
   <g id="text_22">
    <!-- GPUChebDense -->
    <g style="fill:#262626;" transform="translate(393.69683 237.490319)scale(0.088 -0.088)">
     <use transform="scale(0.996264)" xlink:href="#CMR17-71"/>
     <use transform="translate(72.355346 0)scale(0.996264)" xlink:href="#CMR17-80"/>
     <use transform="translate(134.941646 0)scale(0.996264)" xlink:href="#CMR17-85"/>
     <use transform="translate(204.014076 0)scale(0.996264)" xlink:href="#CMR17-67"/>
     <use transform="translate(270.523957 0)scale(0.996264)" xlink:href="#CMR17-104"/>
     <use transform="translate(321.419327 0)scale(0.996264)" xlink:href="#CMR17-101"/>
     <use transform="translate(361.904987 0)scale(0.996264)" xlink:href="#CMR17-98"/>
     <use transform="translate(412.800357 0)scale(0.996264)" xlink:href="#CMR17-68"/>
     <use transform="translate(483.193913 0)scale(0.996264)" xlink:href="#CMR17-101"/>
     <use transform="translate(523.679573 0)scale(0.996264)" xlink:href="#CMR17-110"/>
     <use transform="translate(574.574943 0)scale(0.996264)" xlink:href="#CMR17-115"/>
     <use transform="translate(610.376281 0)scale(0.996264)" xlink:href="#CMR17-101"/>
    </g>
   </g>
   <g id="line2d_77">
    <path d="M 369.05683 247.327069 
L 386.65683 247.327069 
" style="fill:none;stroke:#bcbd22;stroke-dasharray:4.8,1.2,1.2,1.2,1.2,1.2;stroke-dashoffset:0;stroke-width:1.2;"/>
   </g>
   <g id="line2d_78"/>
   <g id="text_23">
    <!-- GPULinearSparse -->
    <g style="fill:#262626;" transform="translate(393.69683 250.407069)scale(0.088 -0.088)">
     <use transform="scale(0.996264)" xlink:href="#CMR17-71"/>
     <use transform="translate(72.355346 0)scale(0.996264)" xlink:href="#CMR17-80"/>
     <use transform="translate(134.941646 0)scale(0.996264)" xlink:href="#CMR17-85"/>
     <use transform="translate(204.014076 0)scale(0.996264)" xlink:href="#CMR17-76"/>
     <use transform="translate(261.395484 0)scale(0.996264)" xlink:href="#CMR17-105"/>
     <use transform="translate(286.266543 0)scale(0.996264)" xlink:href="#CMR17-110"/>
     <use transform="translate(337.161912 0)scale(0.996264)" xlink:href="#CMR17-101"/>
     <use transform="translate(377.647573 0)scale(0.996264)" xlink:href="#CMR17-97"/>
     <use transform="translate(423.33805 0)scale(0.996264)" xlink:href="#CMR17-114"/>
     <use transform="translate(458.618818 0)scale(0.996264)" xlink:href="#CMR17-83"/>
     <use transform="translate(509.514188 0)scale(0.996264)" xlink:href="#CMR17-112"/>
     <use transform="translate(560.409557 0)scale(0.996264)" xlink:href="#CMR17-97"/>
     <use transform="translate(606.100034 0)scale(0.996264)" xlink:href="#CMR17-114"/>
     <use transform="translate(641.380802 0)scale(0.996264)" xlink:href="#CMR17-115"/>
     <use transform="translate(677.18214 0)scale(0.996264)" xlink:href="#CMR17-101"/>
    </g>
   </g>
  </g>
 </g>
 <defs>
  <clipPath id="pbf69f419e0">
   <rect height="323.171004" width="315.468733" x="46.976583" y="19.841765"/>
  </clipPath>
 </defs>
</svg>
